<?xml version="1.0" standalone="no"?>
<!DOCTYPE svg PUBLIC "-//W3C//DTD SVG 1.1//EN" "http://www.w3.org/Graphics/SVG/1.1/DTD/svg11.dtd" >
<svg xmlns="http://www.w3.org/2000/svg" xmlns:xlink="http://www.w3.org/1999/xlink" version="1.1">
<metadata>
Created by FontForge 20170924 at Fri Mar  8 11:03:34 2019
 By www-data
Copyright 2019 Black Foundry
</metadata>
<defs>
<font id="Galien-Regular" horiz-adv-x="501" >
  <font-face
    font-family="Galien"
    font-weight="400"
    font-style="italic"
    font-stretch="normal"
    units-per-em="1000"
    panose-1="2 0 0 0 0 0 0 0 0 0"
    ascent="720"
    descent="-280"
    x-height="357"
    cap-height="570"
    bbox="-130 -280 950 868"
    underline-thickness="21"
    underline-position="-110"
    slope="-360"
    unicode-range="U+000D-FB06"
  />
<missing-glyph horiz-adv-x="600"
d="M503 0h-406v780h406v-780zM132 748v-716h336v716h-336zM338 391l69 -69l-36 -36l-69 69l-69 -69l-35 36l69 69l-69 68l35 36l69 -69l69 69l36 -36z" />
    <glyph glyph-name="fi" unicode="fi" horiz-adv-x="466"
d="M201 14v-14h-180v14l29 7q14 3 19 10t5 24v256h-55v15l55 29v36q0 143 52 216t152 73q47 0 84 -16t37 -38q0 -9 -8 -22t-28 -36h-6q-51 50 -76 67t-47 17q-39 0 -62.5 -40t-23.5 -114v-141h164q20 0 41 2.5t43 7.5l8 -4q-3 -17 -4 -33t-1 -53v-222q0 -17 5 -24t19 -10
l29 -7v-14h-180v14l29 7q14 3 19 10t5 24v223q0 18 -8 25.5t-27 7.5h-142v-256q0 -17 5 -24t19 -10z" />
    <glyph glyph-name="fl" unicode="fl" horiz-adv-x="467"
d="M201 14v-14h-180v14l29 7q14 3 19 10t5 24v256h-55v15l55 29v36q0 143 51 216t149 73q21 0 41 -3t42 -10l39 13l8 -5q-3 -16 -4 -32t-1 -54v-534q0 -17 5 -24t19 -10l29 -7v-14h-180v14l29 7q14 3 19 10t5 24v256h-177v-256q0 -17 5 -24t19 -10zM240 652
q-43 0 -67.5 -40.5t-24.5 -113.5v-141h177v246q-32 32 -48.5 40.5t-36.5 8.5z" />
    <glyph glyph-name="ff" unicode="ff" horiz-adv-x="538"
d="M201 14v-14h-180v14l29 7q14 3 19 10t5 24v256h-55v15l55 29v23q0 143 51 216t149 73q33 0 63.5 -8t55.5 -23q23 22 53 33t67 11q32 0 58 -10.5t26 -25.5q0 -6 -6.5 -16.5t-18.5 -24.5h-5q-32 27 -52.5 38t-41.5 11q-37 0 -55.5 -37t-18.5 -111v-147h127v-46h-127v-256
q0 -17 4.5 -23.5t19.5 -8.5l49 -9v-14h-200v14l29 7q14 3 19 10t5 24v256h-177v-256q0 -17 5 -24t19 -10zM238 639q-41 0 -65.5 -41t-24.5 -113v-128h177v40q0 58 7.5 103t22.5 78q-37 34 -63 47.5t-54 13.5z" />
    <glyph glyph-name="fj" unicode="fj" horiz-adv-x="457"
d="M209 14v-14h-188v14l29 7q14 3 19 10t5 24v256h-55v15l55 29v36q0 143 52 216t152 73q47 0 84 -16t37 -38q0 -9 -8 -22t-28 -36h-6q-51 50 -76 67t-47 17q-39 0 -62.5 -40t-23.5 -114v-141h164q20 0 41 2.5t43 7.5l8 -4q-3 -17 -4 -33t-1 -53v-354q0 -33 -31.5 -64.5
t-98.5 -64.5l-8 13q38 27 51 53t13 70v348q0 18 -8 25.5t-27 7.5h-142v-256q0 -17 4.5 -23.5t19.5 -9.5z" />
    <glyph glyph-name="f_b" unicode="fb" horiz-adv-x="718"
d="M209 14v-14h-188v14l29 7q14 3 19 10t5 24v256h-55v15l55 29v36q0 143 51 216t149 73q21 0 41 -3t42 -10l39 13l8 -5q-3 -16 -4 -32t-1 -54v-277q30 24 66 39.5t62 15.5q70 0 114 -47t44 -124q0 -92 -58 -149t-149 -57q-42 0 -84.5 11.5t-68.5 29.5v280h-177v-256
q0 -17 4.5 -23.5t19.5 -9.5zM240 652q-43 0 -67.5 -40.5t-24.5 -113.5v-141h177v246q-32 32 -48.5 40.5t-36.5 8.5zM399 291v-201q0 -35 25 -56t65 -21q55 0 87 39t32 108q0 72 -33 114.5t-90 42.5q-23 0 -45.5 -7t-40.5 -19z" />
    <glyph glyph-name="f_h" unicode="fh" horiz-adv-x="703"
d="M201 14v-14h-180v14l29 7q14 3 19 10t5 24v256h-55v15l55 29v36q0 143 51 216t149 73q21 0 41 -3t42 -10l39 13l8 -5q-3 -16 -4 -32t-1 -54v-276q30 22 65.5 38t55.5 16q55 0 85.5 -31.5t30.5 -89.5v-191q0 -17 5 -24t19 -10l30 -7v-14h-180v14l29 7q14 3 19 10t5 24v172
q0 46 -20 68t-61 22q-20 0 -41.5 -6.5t-41.5 -19.5v-236q0 -17 5 -24t19 -10l29 -7v-14h-180v14l29 7q14 3 19 10t5 24v256h-177v-256q0 -17 5 -24t19 -10zM240 652q-43 0 -67.5 -40.5t-24.5 -113.5v-141h177v246q-32 32 -48.5 40.5t-36.5 8.5z" />
    <glyph glyph-name="f_k" unicode="fk" horiz-adv-x="699"
d="M201 14v-14h-180v14l29 7q14 3 19 10t5 24v256h-55v15l55 29v36q0 143 51 216t149 73q21 0 41 -3t42 -10l39 13l8 -5q-3 -16 -4 -32t-1 -54v-534q0 -17 5 -24t19 -10l29 -7v-14h-180v14l29 7q14 3 19 10t5 24v256h-177v-256q0 -17 5 -24t19 -10zM240 652
q-43 0 -67.5 -40.5t-24.5 -113.5v-141h177v246q-32 32 -48.5 40.5t-36.5 8.5zM697 14v-14h-188v14l34 6q10 2 11.5 6t-4.5 11l-136 159v6l140 116q5 5 3.5 9.5t-8.5 6.5l-49 9v14h181v-14l-48 -10q-11 -2 -18 -5t-15 -9l-118 -89l153 -185q9 -11 17.5 -16.5t18.5 -8.5z" />
    <glyph glyph-name="f_f_f" unicode="fff" horiz-adv-x="789"
d="M201 14v-14h-180v14l29 7q14 3 19 10t5 24v256h-55v15l55 29v23q0 143 51 216t149 73q37 0 71.5 -10.5t60.5 -28.5q24 19 54 29t65 10q33 0 63.5 -8t55.5 -23q22 22 52 33t67 11q33 0 58.5 -10.5t25.5 -25.5q0 -6 -6.5 -16.5t-18.5 -24.5h-4q-32 27 -53 38t-42 11
q-37 0 -55.5 -37t-18.5 -111v-147h127v-46h-127v-256q0 -17 4.5 -23.5t19.5 -8.5l49 -9v-14h-199v14l28 7q14 3 19 10t5 24v256h-177v-256q0 -17 5 -24t19 -10l29 -7v-14h-179v14l28 7q14 3 19 10t5 24v256h-176v-256q0 -17 5 -24t19 -10zM238 639q-41 0 -65.5 -41
t-24.5 -113v-128h176v21q0 61 9.5 109.5t28.5 84.5q-39 37 -66.5 52t-57.5 15zM489 639q-41 0 -66 -40.5t-25 -113.5v-128h177v40q0 58 7.5 103t22.5 78q-37 34 -62.5 47.5t-53.5 13.5z" />
    <glyph glyph-name="ffi" unicode="ffi" horiz-adv-x="717"
d="M201 14v-14h-180v14l29 7q14 3 19 10t5 24v256h-55v15l55 29v23q0 143 51 216t149 73q35 0 67 -9t58 -26q25 24 57 36t73 12q47 0 84 -16t37 -38q0 -9 -8 -22t-28 -36h-6q-51 50 -76 67t-47 17q-40 0 -63 -40t-23 -114v-141h164q20 0 41 2.5t43 7.5l7 -4q-3 -21 -4 -39.5
t-1 -46.5v-222q0 -17 5 -24t19 -10l30 -7v-14h-180v14l29 7q14 3 19 10t5 24v223q0 18 -8 25.5t-27 7.5h-142v-256q0 -17 5 -24t19 -10l29 -7v-14h-180v14l29 7q14 3 19 10t5 24v256h-177v-256q0 -17 5 -24t19 -10zM238 639q-41 0 -65.5 -41t-24.5 -113v-128h177v34
q0 57 8 102.5t25 81.5q-37 35 -63.5 49.5t-56.5 14.5z" />
    <glyph glyph-name="f_f_j" unicode="ffj" horiz-adv-x="708"
d="M201 14v-14h-180v14l29 7q14 3 19 10t5 24v256h-55v15l55 29v23q0 143 51 216t149 73q35 0 67 -9t58 -26q25 24 57 36t73 12q47 0 84 -16t37 -38q0 -9 -8 -22t-28 -36h-6q-51 50 -76 67t-47 17q-40 0 -63 -40t-23 -114v-141h164q20 0 41 2.5t43 7.5l7 -4q-3 -21 -4 -39.5
t-1 -46.5v-354q0 -33 -31.5 -64.5t-98.5 -64.5l-7 13q38 27 51 53t13 70v348q0 18 -8 25.5t-27 7.5h-142v-256q0 -17 5 -24t19 -10l29 -7v-14h-180v14l29 7q14 3 19 10t5 24v256h-177v-256q0 -17 5 -24t19 -10zM238 639q-41 0 -65.5 -41t-24.5 -113v-128h177v34
q0 57 8 102.5t25 81.5q-37 35 -63.5 49.5t-56.5 14.5z" />
    <glyph glyph-name="f_f_l" unicode="ffl" horiz-adv-x="718"
d="M201 14v-14h-180v14l29 7q14 3 19 10t5 24v256h-55v15l55 29v23q0 143 51 216t149 73q34 0 66.5 -9t57.5 -25q25 23 56.5 35t70.5 12q21 0 41 -3t41 -10l40 13l7 -5q-3 -20 -4 -39t-1 -47v-534q0 -17 5 -24t19 -10l30 -7v-14h-180v14l29 7q14 3 19 10t5 24v256h-177v-256
q0 -17 5 -24t19 -10l29 -7v-14h-180v14l29 7q14 3 19 10t5 24v256h-177v-256q0 -17 5 -24t19 -10zM490 652q-42 0 -66.5 -40.5t-24.5 -113.5v-141h177v246q-34 33 -50 41t-36 8zM238 639q-41 0 -65.5 -41t-24.5 -113v-128h177v34q0 56 8.5 102.5t24.5 82.5q-37 35 -63.5 49
t-56.5 14z" />
    <glyph glyph-name="f_f_b" unicode="ffb" horiz-adv-x="969"
d="M201 14v-14h-180v14l29 7q14 3 19 10t5 24v256h-55v15l55 29v23q0 143 51 216t149 73q34 0 66.5 -9t57.5 -25q25 23 56.5 35t70.5 12q21 0 41 -3t41 -10l40 13l7 -5q-3 -20 -4 -39t-1 -47v-278q30 24 67 40t62 16q70 0 114 -47t44 -124q0 -92 -58.5 -149t-149.5 -57
q-41 0 -83.5 11.5t-68.5 29.5v280h-177v-256q0 -17 4.5 -23.5t19.5 -9.5l37 -8v-14h-188v14l29 7q14 3 19 10t5 24v256h-177v-256q0 -17 5 -24t19 -10zM490 652q-42 0 -66.5 -40.5t-24.5 -113.5v-141h177v246q-34 33 -50 41t-36 8zM238 639q-41 0 -65.5 -41t-24.5 -113v-128
h177v34q0 56 8.5 102.5t24.5 82.5q-37 35 -63.5 49t-56.5 14zM649 290v-200q0 -35 25 -56t66 -21q55 0 87 39t32 108q0 73 -33 115t-91 42q-23 0 -46.5 -7.5t-39.5 -19.5z" />
    <glyph glyph-name="f_f_h" unicode="ffh" horiz-adv-x="954"
d="M201 14v-14h-180v14l29 7q14 3 19 10t5 24v256h-55v15l55 29v23q0 143 51 216t149 73q33 0 66 -9t58 -25q25 23 57 35t70 12q21 0 41 -3t41 -10l40 13l7 -5q-3 -20 -4 -39t-1 -47v-277q29 22 65 38.5t57 16.5q55 0 85.5 -31.5t30.5 -89.5v-191q0 -17 5 -24t19 -10l29 -7
v-14h-179v14l28 7q14 3 19 10t5 24v172q0 46 -19.5 68t-60.5 22q-22 0 -43 -7t-41 -20v-235q0 -17 5 -24t19 -10l30 -7v-14h-180v14l29 7q14 3 19 10t5 24v256h-177v-256q0 -17 5 -24t19 -10l29 -7v-14h-180v14l29 7q14 3 19 10t5 24v256h-177v-256q0 -17 5 -24t19 -10z
M490 652q-42 0 -66.5 -40.5t-24.5 -113.5v-141h177v246q-34 33 -50 41t-36 8zM238 639q-41 0 -65.5 -41t-24.5 -113v-128h177v34q0 57 8.5 103.5t24.5 81.5q-38 35 -64.5 49t-55.5 14z" />
    <glyph glyph-name="f_f_k" unicode="ffk" horiz-adv-x="950"
d="M201 14v-14h-180v14l29 7q14 3 19 10t5 24v256h-55v15l55 29v23q0 143 51 216t149 73q33 0 66 -9t58 -25q25 23 57 35t70 12q21 0 41 -3t41 -10l40 13l7 -5q-3 -20 -4 -39t-1 -47v-534q0 -17 5 -24t19 -10l30 -7v-14h-180v14l29 7q14 3 19 10t5 24v256h-177v-256
q0 -17 5 -24t19 -10l29 -7v-14h-180v14l29 7q14 3 19 10t5 24v256h-177v-256q0 -17 5 -24t19 -10zM490 652q-42 0 -66.5 -40.5t-24.5 -113.5v-141h177v246q-34 33 -50 41t-36 8zM238 639q-41 0 -65.5 -41t-24.5 -113v-128h177v34q0 57 8.5 103.5t24.5 81.5q-38 35 -64.5 49
t-55.5 14zM921 20l27 -6v-14h-188v14l34 6q10 2 11.5 6t-4.5 11l-136 159v6l140 116q5 5 3.5 9.5t-9.5 6.5l-48 9v14h181v-14l-48 -10q-11 -2 -18 -5t-15 -9l-119 -89l154 -185q9 -11 17 -16.5t18 -8.5z" />
    <glyph glyph-name=".notdef" horiz-adv-x="600"
d="M503 0h-406v780h406v-780zM132 748v-716h336v716h-336zM338 391l69 -69l-36 -36l-69 69l-69 -69l-35 36l69 69l-69 68l35 36l69 -69l69 69l36 -36z" />
    <glyph glyph-name=".null" horiz-adv-x="0"
 />
    <glyph glyph-name=".null" horiz-adv-x="0"
 />
    <glyph glyph-name="CR" unicode="&#xd;" horiz-adv-x="0"
 />
    <glyph glyph-name="space" unicode=" " horiz-adv-x="206"
 />
    <glyph glyph-name="uni00A0" unicode="&#xa0;" horiz-adv-x="206"
 />
    <glyph glyph-name="A" unicode="A" horiz-adv-x="596"
d="M176 16v-16h-162v16l22 7q17 5 23.5 11t11.5 19l208 523h37l208 -523q6 -15 13 -20.5t21 -9.5l24 -7v-16h-215v16l52 9q15 3 19.5 8.5t-0.5 16.5l-65 165h-200l-62 -166q-5 -11 0 -17t20 -8zM270 475l-87 -233h179z" />
    <glyph glyph-name="B" unicode="B" horiz-adv-x="540"
d="M326 304q82 -4 127 -41.5t45 -100.5q0 -74 -60 -118t-161 -44h-236v16l32 7q23 6 29 13.5t6 28.5v439q0 21 -6 28.5t-29 13.5l-32 7v17h249q79 0 128 -36t49 -95q0 -51 -37.5 -87t-103.5 -48zM267 543h-78v-228h85q51 0 78 30.5t27 84.5q0 57 -28 85t-84 28zM407 157
q0 64 -33.5 97.5t-98.5 33.5h-86v-222q0 -22 8 -30.5t26 -8.5h59q59 0 92 34t33 96z" />
    <glyph glyph-name="C" unicode="C" horiz-adv-x="607"
d="M351 -10q-138 0 -223.5 79t-85.5 209q0 132 87 217t222 85q55 0 107.5 -15t89.5 -41v-113h-15l-18 44q-19 49 -61.5 73.5t-105.5 24.5q-101 0 -158 -68t-57 -189q0 -125 63 -202.5t163 -77.5q56 0 95 22t64 66l25 44h13l-5 -105q-31 -23 -87 -38t-113 -15z" />
    <glyph glyph-name="D" unicode="D" horiz-adv-x="652"
d="M610 287q0 -131 -88.5 -209t-240.5 -78h-240v16l32 7q23 6 29 13.5t6 28.5v439q0 21 -6 28.5t-29 13.5l-32 7v17h237q154 0 243 -76.5t89 -206.5zM519 277q0 129 -63.5 197t-185.5 68h-81v-477q0 -21 8 -29.5t26 -8.5h57q115 0 177 65.5t62 184.5z" />
    <glyph glyph-name="E" unicode="E" horiz-adv-x="527"
d="M409 379v-181h-15l-23 55q-6 14 -11.5 17.5t-18.5 3.5h-152v-218q0 -21 10.5 -27.5t44.5 -5.5l139 6q23 1 34.5 7.5t20.5 26.5l35 73h16l-12 -136h-436v16l32 7q23 6 29 13.5t6 28.5v439q0 21 -6 28.5t-29 13.5l-32 7v17h341q17 0 30 2t27 6l7 -2v-135h-15l-23 62
q-8 22 -19 30t-37 9l-163 4v-244h152q13 0 19 3.5t11 17.5l23 56h15z" />
    <glyph glyph-name="F" unicode="F" horiz-adv-x="484"
d="M276 16v-16h-235v16l32 7q23 6 29 13.5t6 28.5v439q0 21 -6 28.5t-29 13.5l-32 7v17h344q17 0 30.5 2t27.5 6l7 -2v-135h-16l-22 62q-9 22 -20 30t-36 9l-167 4v-264h156q13 0 19 3.5t11 17.5l23 56h15v-191h-15l-23 65q-4 13 -10 17t-20 4h-156v-189q0 -20 5.5 -27
t29.5 -12z" />
    <glyph glyph-name="G" unicode="G" horiz-adv-x="639"
d="M362 -10q-144 0 -232 79t-88 210t90 216t227 85q61 0 114 -14.5t93 -41.5v-113h-15l-16 44q-18 46 -65.5 72t-114.5 26q-104 0 -163 -68.5t-59 -190.5q0 -126 64 -202t169 -76q36 0 68.5 8t54.5 22v127q0 22 -6.5 29.5t-28.5 11.5l-50 8v17h219v-17l-22 -6
q-21 -5 -26.5 -13t-5.5 -30v-73q0 -17 2 -28.5t6 -22.5l-3 -6q-38 -24 -96.5 -38.5t-115.5 -14.5z" />
    <glyph glyph-name="H" unicode="H" horiz-adv-x="686"
d="M256 16v-16h-215v16l32 7q23 6 29 13.5t6 28.5v439q0 21 -6 28.5t-29 13.5l-32 7v17h215v-17l-33 -7q-23 -6 -29 -13.5t-6 -28.5v-194h310v194q0 21 -6 28.5t-29 13.5l-33 7v17h215v-17l-32 -7q-23 -6 -29 -13.5t-6 -28.5v-439q0 -21 6 -28.5t29 -13.5l32 -7v-16h-215v16
l33 7q23 6 29 13.5t6 28.5v217h-310v-217q0 -21 6 -28.5t29 -13.5z" />
    <glyph glyph-name="I" unicode="I" horiz-adv-x="298"
d="M256 16v-16h-215v16l32 7q23 6 29 13.5t6 28.5v439q0 21 -6 28.5t-29 13.5l-32 7v17h215v-17l-32 -7q-23 -6 -29 -13.5t-6 -28.5v-439q0 -21 6 -28.5t29 -13.5z" />
    <glyph glyph-name="J" unicode="J" horiz-adv-x="298"
d="M23 -172l-8 17q58 40 75.5 69.5t17.5 77.5v512q0 21 -6 28.5t-29 13.5l-32 7v17h215v-17l-32 -7q-23 -6 -29 -13.5t-6 -28.5v-497q0 -54 -35.5 -93.5t-130.5 -85.5z" />
    <glyph glyph-name="K" unicode="K" horiz-adv-x="605"
d="M256 16v-16h-215v16l32 7q23 6 29 13.5t6 28.5v439q0 21 -6 28.5t-29 13.5l-32 7v17h215v-17l-32 -7q-23 -6 -29 -13.5t-6 -28.5v-198l233 210q12 10 9 17.5t-20 11.5l-40 8v17h201v-17l-30 -7q-23 -4 -36 -10t-27 -17l-222 -186l249 -271q15 -16 29 -23.5t41 -15.5
l24 -7v-16h-249v16l43 9q18 4 21 10t-8 19l-218 236v-225q0 -21 6 -28.5t29 -13.5z" />
    <glyph glyph-name="L" unicode="L" horiz-adv-x="499"
d="M481 138l-11 -138h-429v16l32 7q23 6 29 13.5t6 28.5v439q0 21 -6 28.5t-29 13.5l-32 7v17h215v-17l-32 -7q-23 -6 -29 -13.5t-6 -28.5v-448q0 -21 11 -28t44 -5l133 6q24 1 35 7.5t20 26.5l34 75h15z" />
    <glyph glyph-name="M" unicode="M" horiz-adv-x="783"
d="M221 16v-16h-180v16l32 7q23 6 29 13.5t6 28.5v439q0 21 -6 28.5t-29 13.5l-32 7v17h144l207 -471l199 471h150v-17l-32 -7q-23 -6 -29 -13.5t-6 -28.5v-439q0 -21 6 -28.5t29 -13.5l32 -7v-16h-215v16l32 7q23 6 29 13.5t6 28.5v421l-209 -491h-34l-206 468v-398
q0 -22 6.5 -30t28.5 -12z" />
    <glyph glyph-name="N" unicode="N" horiz-adv-x="676"
d="M219 16v-16h-180v16l32 7q23 6 29 13.5t6 28.5v439q0 21 -6 28.5t-29 13.5l-32 7v17h132l363 -445v379q0 22 -6.5 30t-28.5 12l-42 7v17h179v-17l-32 -7q-23 -6 -29 -13.5t-6 -28.5v-504h-38l-389 479v-414q0 -22 6.5 -30t28.5 -12z" />
    <glyph glyph-name="O" unicode="O" horiz-adv-x="688"
d="M646 289q0 -130 -86.5 -214.5t-213.5 -84.5q-132 0 -218 80.5t-86 209.5q0 130 86.5 215t213.5 85q132 0 218 -81t86 -210zM133 302q0 -129 60 -207t160 -78q96 0 149 65.5t53 184.5q0 129 -60 207t-160 78q-96 0 -149 -66t-53 -184z" />
    <glyph glyph-name="P" unicode="P" horiz-adv-x="504"
d="M276 16v-16h-235v16l32 7q23 6 29 13.5t6 28.5v439q0 21 -6 28.5t-29 13.5l-32 7v17h229q94 0 150.5 -42.5t56.5 -114.5q0 -79 -64.5 -127t-176.5 -48h-13v16l14 2q77 7 114.5 43t37.5 103q0 68 -35 104.5t-101 36.5h-64v-478q0 -20 5.5 -27t29.5 -12z" />
    <glyph glyph-name="Q" unicode="Q" horiz-adv-x="696"
d="M805 -215q-94 0 -211 52t-250 153q-132 2 -217 82.5t-85 207.5q0 130 85.5 215t210.5 85q134 0 221 -81t87 -210q0 -100 -51.5 -175t-139.5 -106q138 -102 232 -143.5t184 -41.5q18 0 37.5 3.5t33.5 8.5l8 -16q-25 -16 -63.5 -25t-81.5 -9zM133 302q0 -128 61.5 -206.5
t162.5 -78.5q95 0 146.5 65.5t51.5 184.5q0 128 -61.5 206.5t-162.5 78.5q-94 0 -146 -65.5t-52 -184.5z" />
    <glyph glyph-name="R" unicode="R" horiz-adv-x="576"
d="M256 16v-16h-215v16l32 7q23 6 29 13.5t6 28.5v439q0 21 -6 28.5t-29 13.5l-32 7v17h232q88 0 142 -40.5t54 -106.5q0 -53 -37 -92t-98 -52l153 -215q16 -23 26 -29t37 -13l28 -6v-16h-108q-24 0 -34 4.5t-21 21.5l-135 203q-11 17 -25 23t-42 6h-24v-193q0 -21 6 -28.5
t29 -13.5zM249 543h-60v-258h55q69 0 103.5 32.5t34.5 97.5q0 61 -34.5 94.5t-98.5 33.5z" />
    <glyph glyph-name="S" unicode="S" horiz-adv-x="469"
d="M410 155q0 -75 -56.5 -120t-143.5 -45q-38 0 -76.5 9.5t-76.5 28.5l-9 130h16l21 -53q18 -45 49.5 -67t77.5 -22q59 0 92 27.5t33 78.5q0 40 -23.5 70t-100.5 69q-85 44 -111.5 80t-26.5 86q0 66 50.5 109.5t125.5 43.5q38 0 72 -9t61 -26l6 -106h-16l-14 36
q-16 40 -44 59t-71 19q-45 0 -74 -26t-29 -66q0 -36 22.5 -63t97.5 -66q46 -24 67 -38t36 -28q23 -23 34 -50.5t11 -60.5z" />
    <glyph glyph-name="T" unicode="T" horiz-adv-x="544"
d="M379 16v-16h-215v16l32 7q23 6 29 13.5t6 28.5v477h-116q-25 0 -36.5 -8t-18.5 -30l-23 -73h-15v145l6 2q14 -4 27.5 -6t30.5 -2h371q17 0 30.5 2t27.5 6l7 -2v-145h-16l-22 73q-6 21 -18 29.5t-38 8.5h-116v-477q0 -21 6 -28.5t29 -13.5z" />
    <glyph glyph-name="U" unicode="U" horiz-adv-x="655"
d="M337 -10q-108 0 -168.5 56t-60.5 158v300q0 21 -6 28.5t-29 13.5l-32 7v17h215v-17l-32 -7q-23 -6 -29 -13.5t-6 -28.5v-300q0 -88 41.5 -133t122.5 -45q79 0 119.5 49.5t40.5 145.5v283q0 21 -6 28.5t-29 12.5l-43 8v17h180v-17l-32 -7q-23 -6 -29 -13.5t-6 -28.5v-283
q0 -113 -53.5 -172t-157.5 -59z" />
    <glyph glyph-name="V" unicode="V" horiz-adv-x="578"
d="M309 -6h-40l-206 523q-6 15 -13.5 21t-21.5 9l-25 6v17h217v-18l-52 -9q-16 -3 -20 -8.5t0 -16.5l170 -427l159 428q5 12 1 17.5t-20 8.5l-43 7v18h160v-17l-24 -7q-15 -4 -22 -9.5t-13 -19.5z" />
    <glyph glyph-name="W" unicode="W" horiz-adv-x="843"
d="M319 -6h-42l-217 523q-7 16 -13.5 21.5t-20.5 8.5l-24 6v17h203v-18l-40 -9q-16 -3 -20 -8.5t0 -16.5l180 -441l83 200l-104 240q-6 15 -13.5 21t-21.5 9l-23 6v17h196v-18l-36 -9q-15 -4 -19.5 -9.5t0.5 -17.5l76 -177l76 180q5 10 1.5 15t-21.5 11l-27 7v18h151v-17
l-30 -7q-13 -3 -20 -8t-15 -21l-99 -213l97 -227l166 441q4 12 0 17.5t-20 8.5l-38 8v18h157v-17l-24 -7q-16 -4 -23 -9.5t-12 -19.5l-211 -523h-41l-105 243z" />
    <glyph glyph-name="X" unicode="X" horiz-adv-x="567"
d="M174 17v-17h-168v16l25 7q15 3 22 8t18 21l169 229l-163 235q-12 16 -20.5 21.5t-25.5 9.5l-28 6v17h234v-18l-48 -9q-17 -3 -20.5 -9t3.5 -17l130 -186l133 189q7 9 2 15t-22 9l-41 8v18h170v-17l-27 -7q-12 -3 -19 -7.5t-21 -21.5l-160 -208l178 -255q11 -16 20.5 -23
t23.5 -9l26 -6v-16h-229v17l47 9q17 3 20.5 9t-3.5 17l-144 207l-143 -210q-7 -9 -2.5 -15t22.5 -9z" />
    <glyph glyph-name="Y" unicode="Y" horiz-adv-x="543"
d="M379 16v-16h-215v16l32 7q23 6 29 13.5t6 28.5v175l-167 277q-11 19 -18 23t-19 7l-25 6v17h225v-18l-52 -9q-16 -3 -20.5 -9t0.5 -16l144 -242l143 240q7 11 2.5 18t-21.5 11l-43 8v17h161v-17l-22 -6q-12 -3 -18.5 -8t-19.5 -25l-170 -268v-181q0 -21 6 -28.5t29 -13.5
z" />
    <glyph glyph-name="Z" unicode="Z" horiz-adv-x="543"
d="M505 138l-11 -138h-470v14l358 528h-238q-26 0 -38 -8.5t-18 -29.5l-23 -73h-15v145l7 2q14 -4 27 -6t30 -2h373v-14l-360 -532l274 5q23 0 34.5 7t20.5 27l34 75h15z" />
    <glyph glyph-name="AE" unicode="&#xc6;" horiz-adv-x="798"
d="M165 16v-16h-163v16l22 7q15 4 21.5 9.5t16.5 20.5l279 451q10 16 4.5 25t-28.5 15l-41 9v17h377q17 0 30.5 2t27.5 6l6 -2v-135h-15l-23 62q-8 22 -19 30t-37 9l-143 4v-254h132q13 0 19 3.5t11 17.5l23 56h15v-181h-15l-23 55q-5 14 -11 17.5t-19 3.5h-132v-208
q0 -21 10.5 -27.5t44.5 -4.5l119 5q23 1 34.5 7.5t21.5 26.5l34 73h16l-12 -136h-416v16l33 7q23 6 29 13.5t6 28.5v164h-189l-108 -180q-7 -11 -3 -17t20 -8zM400 542l-172 -285h172v285z" />
    <glyph glyph-name="OE" unicode="&#x152;" horiz-adv-x="863"
d="M354 -10q-136 0 -224 80.5t-88 209.5q0 132 86 216t218 84q24 0 46 -2.5t41 -7.5h285q17 0 30.5 2t27.5 6l7 -2v-135h-16l-22 62q-9 22 -20 30t-36 9l-189 4q69 -34 109 -98t44 -146h25q13 0 18.5 3.5t11.5 17.5l22 56h16v-181h-16l-22 55q-6 14 -12 17.5t-18 3.5h-25
q-4 -86 -46 -152.5t-114 -101.5h16l211 9q23 1 34.5 7.5t20.5 26.5l35 73h15l-11 -136h-377q-19 -5 -39.5 -7.5t-43.5 -2.5zM133 302q0 -128 61.5 -206.5t163.5 -78.5h15v534q-12 1 -21 1.5t-17 0.5q-97 0 -149.5 -65.5t-52.5 -185.5zM454 528v-226h119q-5 77 -36.5 136
t-82.5 90zM454 274v-218q0 -6 0.5 -10.5t2.5 -8.5q57 27 87 87t30 147v3h-120z" />
    <glyph glyph-name="Lslash" unicode="&#x141;" horiz-adv-x="499"
d="M108 258l-56 -23l-11 26l67 27v216q0 21 -6 28.5t-29 13.5l-32 7v17h215v-17l-32 -7q-23 -6 -29 -13.5t-6 -28.5v-182l108 44l11 -26l-119 -49v-235q0 -21 11 -28t44 -5l133 6q24 1 35 7.5t20 26.5l34 75h15l-11 -138h-429v16l32 7q23 6 29 13.5t6 28.5v193z" />
    <glyph glyph-name="Oslash" unicode="&#xd8;" horiz-adv-x="688"
d="M133 66l-71 -66l-20 22l70 65q-35 38 -52.5 87t-17.5 106q0 130 86.5 215t213.5 85q62 0 117 -20t96 -57l71 67l20 -23l-69 -65q34 -39 51.5 -88t17.5 -105q0 -130 -86.5 -214.5t-213.5 -84.5q-62 0 -117 19.5t-96 56.5zM335 552q-96 0 -149 -66t-53 -184q0 -46 8.5 -87
t24.5 -76l340 319q-30 46 -73.5 70t-97.5 24zM353 17q96 0 149 65.5t53 184.5q0 46 -8.5 87t-24.5 76l-341 -318q29 -46 73 -70.5t99 -24.5z" />
    <glyph glyph-name="Eth" unicode="&#xd0;" horiz-adv-x="652"
d="M108 275h-67v27h67v202q0 21 -6 28.5t-29 13.5l-32 7v17h237q154 0 243 -76.5t89 -206.5q0 -131 -88.5 -209t-240.5 -78h-240v16l32 7q23 6 29 13.5t6 28.5v210zM519 277q0 129 -63.5 197t-185.5 68h-81v-240h141v-27h-141v-210q0 -21 8 -29.5t26 -8.5h57q115 0 177 65.5
t62 184.5z" />
    <glyph glyph-name="Thorn" unicode="&#xde;" horiz-adv-x="510"
d="M236 142h-13v16l14 2q77 7 114.5 43t37.5 103q0 68 -35 104.5t-101 36.5h-64v-382q0 -20 5.5 -27t29.5 -12l52 -10v-16h-235v16l32 7q23 6 29 13.5t6 28.5v439q0 21 -6 28.5t-29 13.5l-32 7v17h215v-17l-32 -7q-23 -6 -29 -13.5t-6 -28.5v-30h81q94 0 150.5 -42.5
t56.5 -114.5q0 -79 -64.5 -127t-176.5 -48z" />
    <glyph glyph-name="uni0191" unicode="&#x191;" horiz-adv-x="484"
d="M189 254v-247q0 -54 -35.5 -93.5t-130.5 -85.5l-8 17q58 40 75.5 69.5t17.5 77.5v512q0 21 -6 28.5t-29 13.5l-32 7v17h344q17 0 30.5 2t27.5 6l7 -2v-135h-16l-22 62q-9 22 -20 30t-36 9l-167 4v-264h156q13 0 19 3.5t11 17.5l23 56h15v-191h-15l-23 65q-4 13 -10 17
t-20 4h-156z" />
    <glyph glyph-name="uni1E9E" unicode="&#x1e9e;" horiz-adv-x="629"
d="M188 360v-360h-148v16l32 7q23 6 29 13.5t6 28.5v278q0 112 61 174.5t174 62.5q30 0 62.5 -7.5t61.5 -21.5q23 -11 34.5 -16t21.5 -8l3 -6l-178 -195h23q102 0 163.5 -44.5t61.5 -117.5q0 -77 -56 -125.5t-138 -48.5q-37 0 -73 8.5t-76 26.5l-9 130h16l21 -53
q18 -43 48.5 -64.5t74.5 -21.5q52 0 80.5 36.5t28.5 103.5t-39.5 105t-108.5 38h-61v17l145 175q-13 29 -43 45.5t-69 16.5q-78 0 -113 -45.5t-35 -147.5z" />
    <glyph glyph-name="a" unicode="a" horiz-adv-x="362"
d="M220 40q-37 -24 -66 -37t-48 -13q-36 0 -60.5 21t-24.5 54q0 28 19.5 46.5t66.5 35.5l112 39v67q0 35 -19.5 54t-54.5 19q-15 0 -28.5 -3.5t-22.5 -9.5q-10 -7 -14 -14.5t-4 -21.5q0 -5 2 -15t6 -22q-8 -5 -19.5 -8t-18.5 -3q-11 0 -18 7.5t-7 19.5q0 32 57.5 71.5
t106.5 39.5q46 0 77 -24.5t31 -60.5v-200q0 -22 7 -32t23 -10q7 0 15 1.5t17 4.5l5 -12q-27 -20 -51.5 -32t-37.5 -12q-23 0 -35.5 12.5t-15.5 37.5zM96 85q0 -23 14.5 -35t41.5 -12q19 0 35 4.5t32 13.5v111l-70 -29q-32 -14 -42.5 -25t-10.5 -28z" />
    <glyph glyph-name="b" unicode="b" horiz-adv-x="461"
d="M428 196q0 -91 -58.5 -148.5t-149.5 -57.5q-41 0 -83.5 11.5t-69.5 29.5v556q0 14 -3.5 20.5t-13.5 11.5l-25 13v11l114 37l7 -5q-3 -20 -4 -39t-1 -47v-277q32 24 68 39.5t60 15.5q71 0 115 -47t44 -124zM141 290v-200q0 -35 25 -56t66 -21q55 0 86.5 39t31.5 108
q0 73 -33 115t-90 42q-23 0 -46.5 -7.5t-39.5 -19.5z" />
    <glyph glyph-name="c" unicode="c" horiz-adv-x="366"
d="M205 -10q-77 0 -125 50t-48 130q0 88 59 142.5t146 54.5q44 0 72.5 -12t28.5 -29q0 -8 -8 -20.5t-21 -25.5h-5q-36 38 -54 49.5t-37 11.5q-47 0 -74.5 -37t-27.5 -100q0 -71 37 -113t100 -42q24 0 47.5 6.5t47.5 19.5l8 -11q-28 -29 -71.5 -51.5t-74.5 -22.5z" />
    <glyph glyph-name="d" unicode="d" horiz-adv-x="461"
d="M446 27l-127 -35v53q-31 -23 -68 -39t-60 -16q-71 0 -115 47.5t-44 123.5q0 91 58.5 148.5t149.5 57.5q19 0 38 -3t41 -10v233q0 15 -3.5 21t-14.5 11l-24 13v11l114 37l7 -5q-3 -20 -4 -39t-1 -47v-514q0 -13 4 -18.5t20 -9.5l29 -7v-13zM229 344q-56 0 -87.5 -39
t-31.5 -108q0 -72 33.5 -114t90.5 -42q23 0 45.5 6.5t39.5 18.5v182q0 46 -24 71t-66 25z" />
    <glyph glyph-name="e" unicode="e" horiz-adv-x="381"
d="M211 -10q-81 0 -130 51t-49 135t52.5 137.5t128.5 53.5q63 0 101 -32t41 -89l-4 -10h-243q-1 -4 -1 -9.5v-16.5q0 -76 37 -118.5t104 -42.5q26 0 51.5 6.5t49.5 19.5l8 -11q-26 -30 -70 -52t-76 -22zM279 275q0 30 -21 50t-53 20q-36 0 -60 -22.5t-33 -64.5h149
q11 0 14.5 3.5t3.5 13.5z" />
    <glyph glyph-name="f" unicode="f" horiz-adv-x="287"
d="M221 14v-14h-200v14l29 7q14 3 19 10t5 24v256h-55v15l55 29v42q0 141 47 212t141 71q32 0 58 -10.5t26 -25.5q0 -6 -6.5 -16.5t-18.5 -24.5h-5q-32 27 -52.5 38t-41.5 11q-37 0 -55.5 -37t-18.5 -111v-147h127v-46h-127v-256q0 -17 4.5 -23.5t19.5 -8.5z" />
    <glyph glyph-name="g" unicode="g" horiz-adv-x="415"
d="M352 230q0 -57 -45.5 -94.5t-108.5 -37.5q-17 0 -32.5 2.5t-30.5 7.5q-23 -22 -31 -33.5t-8 -24.5q0 -18 12.5 -28t36.5 -10h165q47 0 73 -27t26 -73q0 -78 -69.5 -135t-163.5 -57q-65 0 -108 34t-43 85q0 17 14 34t73 74q-35 4 -55.5 24t-20.5 50q0 14 16.5 33.5
t61.5 62.5q-35 17 -54 46t-19 67q0 59 46.5 98t110.5 39q9 0 18.5 -1t21.5 -4q7 -1 32 -8t47 -7h93v-38h-86q14 -17 21 -37t7 -42zM117 237q0 -52 23.5 -85t60.5 -33t57 27.5t20 78.5q0 56 -22.5 88.5t-61.5 32.5q-35 0 -56 -29.5t-21 -79.5zM93 -141q0 -48 32.5 -75.5
t91.5 -27.5q61 0 101.5 34t40.5 85q0 35 -19.5 53t-57.5 18h-143q-26 -25 -36 -44t-10 -43z" />
    <glyph glyph-name="h" unicode="h" horiz-adv-x="445"
d="M194 14v-14h-179v14l28 7q14 3 19 10t5 24v532q0 15 -3.5 21t-13.5 11l-25 13v11l114 37l7 -5q-3 -20 -4 -39t-1 -47v-276q31 22 66.5 38t55.5 16q55 0 85.5 -31.5t30.5 -89.5v-191q0 -17 5 -24t19 -10l29 -7v-14h-179v14l28 7q14 3 19 10t5 24v172q0 46 -19.5 68
t-60.5 22q-21 0 -42.5 -6.5t-41.5 -19.5v-236q0 -17 5 -24t19 -10z" />
    <glyph glyph-name="i" unicode="i" horiz-adv-x="213"
d="M160 537q0 -18 -12.5 -30.5t-30.5 -12.5t-30 12t-12 31q0 18 12 30t30 12t30.5 -12.5t12.5 -29.5zM198 14v-14h-180v14l29 7q14 3 19 10t5 24v220q0 14 -3.5 20.5t-13.5 11.5l-25 13v11l113 36l8 -4q-3 -17 -4 -33t-1 -53v-222q0 -17 5 -24t19 -10z" />
    <glyph glyph-name="j" unicode="j" horiz-adv-x="199"
d="M156 537q0 -19 -12 -31t-30 -12q-19 0 -30.5 12t-11.5 31q0 18 12 30t30 12t30 -12t12 -30zM140 277v-358q0 -33 -31.5 -64.5t-98.5 -65.5l-8 14q38 26 51 52t13 71v349q0 14 -3.5 20.5t-13.5 11.5l-25 13v11l114 36l7 -4q-3 -21 -4 -39.5t-1 -46.5z" />
    <glyph glyph-name="k" unicode="k" horiz-adv-x="442"
d="M194 14v-14h-180v14l29 7q14 3 19 10t5 24v532q0 14 -3.5 20.5t-13.5 11.5l-25 13v11l114 37l7 -5q-3 -20 -4 -39t-1 -47v-534q0 -17 5 -24t19 -10zM413 20l27 -6v-14h-188v14l34 6q9 2 10.5 6t-3.5 11l-136 159v6l140 116q5 5 3.5 9.5t-9.5 6.5l-48 9v14h181v-14
l-48 -10q-11 -2 -18 -5t-15 -9l-119 -89l153 -185q11 -12 19 -17t17 -8z" />
    <glyph glyph-name="l" unicode="l" horiz-adv-x="210"
d="M194 14v-14h-179v14l28 7q14 3 19 10t5 24v532q0 14 -3.5 20.5t-13.5 11.5l-25 13v11l114 37l7 -5q-3 -20 -4 -39t-1 -47v-534q0 -17 5 -24t19 -10z" />
    <glyph glyph-name="m" unicode="m" horiz-adv-x="659"
d="M198 14v-14h-180v14l29 7q14 3 19 10t5 24v220q0 14 -3.5 20.5t-13.5 11.5l-25 13v11l113 36l8 -4q-4 -30 -4.5 -36.5t-0.5 -13.5q29 23 63 38.5t54 15.5q33 0 58 -14.5t37 -42.5q31 24 65.5 40.5t55.5 16.5q54 0 84 -32t30 -90v-190q0 -17 5 -24t19 -10l29 -7v-14h-179
v14l28 7q14 3 19 10t5 24v176q0 44 -18.5 65t-56.5 21q-19 0 -39.5 -6.5t-40.5 -18.5q3 -11 4.5 -22.5t1.5 -24.5v-190q0 -17 5 -24t19 -10l28 -7v-14h-179v14l29 7q14 3 19 10t5 24v176q0 44 -17 65t-52 21q-20 0 -41 -7t-40 -19v-236q0 -17 5 -24t19 -10z" />
    <glyph glyph-name="n" unicode="n" horiz-adv-x="449"
d="M198 14v-14h-180v14l29 7q14 3 19 10t5 24v220q0 14 -3.5 20.5t-13.5 11.5l-25 13v11l113 36l8 -4q-2 -11 -3 -22t-2 -28q30 22 65.5 38t55.5 16q55 0 86 -31.5t31 -89.5v-191q0 -17 5 -24t19 -10l29 -7v-14h-180v14l29 7q14 3 19 10t5 24v172q0 46 -19.5 68t-61.5 22
q-20 0 -41.5 -6.5t-41.5 -19.5v-236q0 -17 5 -24t19 -10z" />
    <glyph glyph-name="o" unicode="o" horiz-adv-x="455"
d="M423 181q0 -81 -58 -136t-137 -55q-89 0 -142.5 49.5t-53.5 136.5q0 81 58 136t138 55q88 0 141.5 -50t53.5 -136zM114 185q0 -79 31.5 -125.5t86.5 -46.5q51 0 79.5 42t28.5 117q0 79 -31.5 125.5t-85.5 46.5q-52 0 -80.5 -41.5t-28.5 -117.5z" />
    <glyph glyph-name="p" unicode="p" horiz-adv-x="458"
d="M426 196q0 -91 -58.5 -148.5t-149.5 -57.5q-19 0 -38 3t-41 10v-218q0 -16 4.5 -22.5t19.5 -8.5l49 -10v-14h-200v14l29 7q15 4 19.5 10.5t4.5 23.5v490q0 14 -3.5 20.5t-14.5 12.5l-24 12v11l113 36l8 -4q-2 -10 -3 -20.5t-2 -30.5q31 24 67 39.5t61 15.5
q71 0 115 -47.5t44 -123.5zM139 291v-182q0 -46 24 -71t66 -25q56 0 87.5 39t31.5 108q0 72 -33 114.5t-90 42.5q-21 0 -44.5 -7t-41.5 -19z" />
    <glyph glyph-name="q" unicode="q" horiz-adv-x="455"
d="M32 161q0 92 58.5 149t151.5 57q23 0 49.5 -5t52.5 -14l37 26h12v-589q0 -17 4.5 -23.5t19.5 -10.5l29 -7v-14h-200v14l49 10q15 2 19.5 8.5t4.5 22.5v260q-31 -23 -68 -39t-60 -16q-71 0 -115 47.5t-44 123.5zM229 344q-56 0 -87.5 -39t-31.5 -108q0 -72 33.5 -114
t90.5 -42q23 0 45.5 6.5t39.5 18.5v182q0 45 -24 70.5t-66 25.5z" />
    <glyph glyph-name="r" unicode="r" horiz-adv-x="295"
d="M218 14v-14h-200v14l29 7q14 3 19 10t5 24v220q0 14 -3.5 20.5t-13.5 11.5l-25 13v11l113 36l8 -4q-3 -18 -4 -32t-1 -35q35 33 63.5 52t44.5 19q13 0 22 -7.5t9 -19.5q0 -8 -4 -22.5t-12 -31.5l-4 -1q-25 7 -36 9.5t-18 2.5q-18 0 -34 -5t-31 -16v-221q0 -17 4.5 -23.5
t19.5 -8.5z" />
    <glyph glyph-name="s" unicode="s" horiz-adv-x="323"
d="M289 98q0 -49 -38.5 -78.5t-95.5 -29.5q-29 0 -58.5 6.5t-54.5 17.5l-12 102h15q17 -50 45.5 -77t65.5 -27q30 0 47.5 15.5t17.5 43.5q0 22 -14 39t-62 41q-58 30 -77 55.5t-19 60.5q0 46 35 73t92 27q25 0 51.5 -7t45.5 -18l2 -82h-14q-13 43 -34.5 64.5t-50.5 21.5
q-27 0 -43.5 -14.5t-16.5 -38.5q0 -22 14.5 -39t61.5 -41q59 -29 78 -54.5t19 -60.5z" />
    <glyph glyph-name="t" unicode="t" horiz-adv-x="302"
d="M166 -10q-45 0 -71 24t-26 66v231h-54v12l117 100h11v-66h138v-46h-138v-198q0 -35 18.5 -52.5t54.5 -17.5q17 0 33 4t34 13l7 -13q-28 -24 -64.5 -40.5t-59.5 -16.5z" />
    <glyph glyph-name="u" unicode="u" horiz-adv-x="438"
d="M173 -10q-52 0 -81 30t-29 85v170q0 14 -4 20.5t-14 12.5l-27 12v11l117 36l8 -4q-3 -20 -4.5 -38.5t-1.5 -47.5v-156q0 -42 18 -61.5t56 -19.5q20 0 41.5 6.5t41.5 19.5v206q0 17 -4 23t-13 10l-43 15v11l132 36l7 -4q-3 -21 -4 -39.5t-1 -46.5v-202q0 -14 4.5 -20
t19.5 -8l33 -5v-13l-131 -37v52q-30 -22 -65.5 -38t-55.5 -16z" />
    <glyph glyph-name="v" unicode="v" horiz-adv-x="412"
d="M215 -15h-21l-139 332q-4 10 -8.5 14t-13.5 6l-28 6v14h187v-14l-44 -8q-8 -2 -10.5 -7t1.5 -12l92 -229l90 227q3 10 1 15t-10 6l-43 8v14h137v-14l-30 -8q-7 -2 -11.5 -7t-9.5 -16z" />
    <glyph glyph-name="w" unicode="w" horiz-adv-x="607"
d="M207 -15h-22l-129 330q-3 10 -8 15t-14 8l-26 5v14h172v-14l-32 -6q-8 -2 -10.5 -6.5t0.5 -11.5l85 -229l66 168l-24 61q-3 8 -6.5 11.5t-12.5 6.5l-21 6v14h171v-14l-34 -7q-9 -2 -12 -7t0 -14l85 -223l81 219q3 9 0.5 14.5t-10.5 7.5l-41 10v14h134v-14l-30 -9
q-6 -2 -10.5 -6.5t-9.5 -13.5l-131 -329h-21l-93 236z" />
    <glyph glyph-name="x" unicode="x" horiz-adv-x="411"
d="M148 14v-14h-139v14l29 8q9 3 14.5 7t11.5 12l99 134l-100 138q-7 10 -13.5 15t-18.5 9l-22 6v14h188v-14l-34 -8q-10 -3 -11.5 -8.5t4.5 -16.5l66 -91l72 96q6 8 5 12t-9 6l-44 10v14h143v-14l-30 -9q-10 -3 -16 -7t-12 -11l-94 -118l111 -154q8 -10 14.5 -15t18.5 -9
l21 -6v-14h-188v14l35 8q10 2 11.5 8.5t-5.5 16.5l-77 106l-77 -111q-6 -8 -5 -11.5t9 -5.5z" />
    <glyph glyph-name="y" unicode="y" horiz-adv-x="419"
d="M81 -280q-11 0 -20.5 10t-17.5 30q40 21 58.5 40.5t36.5 61.5l57 127l-141 328q-5 11 -9 14.5t-12 5.5l-29 6v14h187v-14l-43 -8q-9 -1 -11.5 -6t0.5 -13l99 -235h2l92 228q4 10 2 16t-9 8l-40 10v14h132v-14l-31 -11q-7 -2 -10.5 -6t-8.5 -16l-217 -496
q-24 -57 -38 -75.5t-29 -18.5z" />
    <glyph glyph-name="z" unicode="z" horiz-adv-x="364"
d="M337 109l-11 -109h-301v11l211 324h-132q-11 0 -15 -2.5t-7 -10.5l-30 -71h-13l3 106h285v-11l-211 -324h145q9 0 13 2t9 11l40 74h14z" />
    <glyph glyph-name="ae" unicode="&#xe6;" horiz-adv-x="567"
d="M252 60q-42 -32 -81.5 -51t-64.5 -19q-36 0 -60.5 21t-24.5 54q0 28 19.5 46.5t66.5 35.5l112 39v67q0 35 -19.5 54t-54.5 19q-15 0 -28.5 -3.5t-22.5 -9.5q-10 -7 -14 -14.5t-4 -21.5q0 -5 2 -15t6 -22q-8 -5 -19.5 -8t-18.5 -3q-11 0 -18 7.5t-7 19.5q0 32 57.5 71.5
t106.5 39.5q30 0 55 -14.5t38 -39.5q22 25 54.5 39.5t66.5 14.5q63 0 101 -32t41 -89l-4 -10h-243q-1 -4 -1 -9.5v-16.5q0 -76 37.5 -118.5t103.5 -42.5q26 0 52 6.5t50 19.5l7 -11q-26 -30 -69.5 -52t-75.5 -22q-47 0 -84.5 18t-61.5 52zM465 275q0 30 -21 50t-53 20
q-36 0 -60.5 -23t-32.5 -64h149q11 0 14.5 3.5t3.5 13.5zM96 85q0 -23 14.5 -35t41.5 -12q23 0 46.5 9t45.5 26q-12 20 -18 44t-7 50l-70 -29q-32 -14 -42.5 -25t-10.5 -28z" />
    <glyph glyph-name="oe" unicode="&#x153;" horiz-adv-x="694"
d="M375 65q-26 -34 -65.5 -54.5t-81.5 -20.5q-89 0 -142.5 49.5t-53.5 136.5q0 81 58 136t138 55q52 0 93 -19t65 -55q23 35 59.5 54.5t79.5 19.5q64 0 102 -32t41 -89l-4 -10h-243q-1 -4 -1 -9.5v-16.5q0 -76 37 -118.5t103 -42.5q26 0 52 6.5t50 19.5l8 -11
q-27 -30 -70.5 -52t-75.5 -22q-49 0 -87.5 19.5t-61.5 55.5zM592 275q0 30 -21 50t-53 20q-36 0 -60 -22.5t-33 -64.5h149q10 0 14 3.5t4 13.5zM114 185q0 -79 31.5 -125.5t86.5 -46.5q51 0 79.5 42t28.5 117q0 79 -31.5 125.5t-85.5 46.5q-52 0 -80.5 -41.5t-28.5 -117.5z
" />
    <glyph glyph-name="lslash" unicode="&#x142;" horiz-adv-x="210"
d="M194 14v-14h-179v14l28 7q14 3 19 10t5 24v248l-64 -32l-11 23l75 38v255q0 14 -3.5 20.5t-13.5 11.5l-25 13v11l114 37l7 -5q-3 -20 -4 -39t-1 -47v-220l65 33l12 -22l-77 -39v-286q0 -17 5 -24t19 -10z" />
    <glyph glyph-name="oslash" unicode="&#xf8;" horiz-adv-x="455"
d="M90 36l-40 -36l-18 19l39 36q-19 23 -29 54t-10 67q0 81 58 136t138 55q40 0 75.5 -12t61.5 -34l40 36l18 -19l-40 -36q20 -23 30 -53.5t10 -67.5q0 -81 -58 -136t-137 -55q-41 0 -76.5 12t-61.5 34zM223 344q-52 0 -80.5 -41.5t-28.5 -117.5q0 -22 2.5 -42.5t8.5 -39.5
l194 176q-15 32 -40 48.5t-56 16.5zM232 13q51 0 79.5 42t28.5 117q0 22 -3 42t-8 39l-194 -176q16 -31 40.5 -47.5t56.5 -16.5z" />
    <glyph glyph-name="eth" unicode="&#xf0;" horiz-adv-x="465"
d="M424 246q0 -120 -53 -188t-143 -68q-89 0 -142.5 49.5t-53.5 136.5q0 81 58 136t138 55q26 0 51.5 -7t46.5 -19q-13 67 -37 123t-58 101l-128 -65l-12 23l123 62q-22 25 -47 45t-54 35l9 15q35 -13 67.5 -32t61.5 -44l130 66l12 -23l-121 -62q71 -67 111.5 -158
t40.5 -181zM233 13q51 0 79.5 42t28.5 119t-32 123.5t-86 46.5q-52 0 -80 -41.5t-28 -117.5q0 -80 31.5 -126t86.5 -46z" />
    <glyph glyph-name="thorn" unicode="&#xfe;" horiz-adv-x="461"
d="M428 196q0 -91 -58.5 -148.5t-149.5 -57.5q-19 0 -38 3t-41 10v-218q0 -16 4.5 -22.5t19.5 -8.5l49 -10v-14h-200v14l29 7q15 4 19.5 10.5t4.5 23.5v802q0 15 -3.5 21.5t-13.5 11.5l-28 12v11l117 37l7 -5q-3 -20 -4 -39t-1 -47v-277q31 24 67 39.5t61 15.5
q71 0 115 -47.5t44 -123.5zM141 290v-181q0 -46 24 -71t67 -25q55 0 86.5 39t31.5 108q0 73 -33 115t-90 42q-22 0 -45.5 -7.5t-40.5 -19.5z" />
    <glyph glyph-name="uni0192" horiz-adv-x="277"
d="M8 -206l-8 13q37 26 50.5 52.5t13.5 70.5v381h-55v15l55 29v42q0 141 47 212t141 71q32 0 58 -10.5t26 -25.5q0 -6 -6.5 -16.5t-18.5 -24.5h-5q-32 27 -52.5 38t-41.5 11q-37 0 -55.5 -37t-18.5 -111v-147h127v-46h-127v-388q0 -33 -31.5 -64.5t-98.5 -64.5z" />
    <glyph glyph-name="germandbls" unicode="&#xdf;" horiz-adv-x="504"
d="M375 239q62 -40 81.5 -69.5t19.5 -66.5q0 -52 -38 -82.5t-96 -30.5q-29 0 -58.5 6.5t-55.5 17.5l-12 102h15q18 -51 46.5 -77.5t65.5 -26.5q31 0 48 17t17 48q0 23 -14.5 43t-63.5 53q-63 43 -83 74.5t-20 71.5q0 28 14 56t50 71q29 33 40.5 60t11.5 58q0 41 -25 66
t-65 25q-55 0 -80 -36t-25 -115v-504h-127v14l29 7q14 3 19 10t5 24v256h-55v15l55 29v42q0 142 49 212.5t149 70.5q60 0 98.5 -30t38.5 -75q0 -18 -7 -35.5t-22 -36.5q-10 -12 -30 -31.5t-25 -25.5q-21 -21 -31 -42.5t-10 -46.5q0 -31 17.5 -56t73.5 -62z" />
    <glyph glyph-name="dotlessi" unicode="&#x131;" horiz-adv-x="213"
d="M199 14v-14h-181v14l29 7q14 3 19 10t5 24v220q0 14 -3.5 20.5t-13.5 11.5l-25 13v11l113 36l8 -4q-3 -17 -4 -33t-1 -53v-222q0 -17 5 -24t19 -10z" />
    <glyph glyph-name="dotlessj" unicode="&#x237;" horiz-adv-x="196"
d="M138 277v-354q0 -33 -31.5 -64.5t-98.5 -64.5l-7 13q38 27 51 53t13 70v345q0 13 -4 20t-14 12l-24 13v11l113 36l7 -4q-3 -21 -4 -39.5t-1 -46.5z" />
    <glyph glyph-name="Aacute" unicode="&#xc1;" horiz-adv-x="596"
d="M176 16v-16h-162v16l22 7q17 5 23.5 11t11.5 19l208 523h37l208 -523q6 -15 13 -20.5t21 -9.5l24 -7v-16h-215v16l52 9q15 3 19.5 8.5t-0.5 16.5l-65 165h-200l-62 -166q-5 -11 0 -17t20 -8zM270 475l-87 -233h179zM305 617l-16 7l38 109q7 16 13 23t14 7t13 -4.5
t5 -12.5q0 -4 -2 -9.5t-7 -16.5z" />
    <glyph glyph-name="Acircumflex" unicode="&#xc2;" horiz-adv-x="596"
d="M176 16v-16h-162v16l22 7q17 5 23.5 11t11.5 19l208 523h37l208 -523q6 -15 13 -20.5t21 -9.5l24 -7v-16h-215v16l52 9q15 3 19.5 8.5t-0.5 16.5l-65 165h-200l-62 -166q-5 -11 0 -17t20 -8zM270 475l-87 -233h179zM322 742l80 -115l-16 -10l-92 104h-1l-93 -104l-16 10
l80 115q9 13 14.5 17t14.5 4q8 0 14 -4.5t15 -16.5z" />
    <glyph glyph-name="Adieresis" unicode="&#xc4;" horiz-adv-x="596"
d="M176 16v-16h-162v16l22 7q17 5 23.5 11t11.5 19l208 523h37l208 -523q6 -15 13 -20.5t21 -9.5l24 -7v-16h-215v16l52 9q15 3 19.5 8.5t-0.5 16.5l-65 165h-200l-62 -166q-5 -11 0 -17t20 -8zM270 475l-87 -233h179zM265 693q0 -18 -12 -30.5t-30 -12.5q-19 0 -31 12
t-12 31q0 18 12.5 30t30.5 12q17 0 29.5 -12.5t12.5 -29.5zM411 693q0 -19 -12 -31t-30 -12q-19 0 -30.5 12t-11.5 31q0 18 12 30t30 12t30 -12t12 -30z" />
    <glyph glyph-name="Agrave" unicode="&#xc0;" horiz-adv-x="596"
d="M176 16v-16h-162v16l22 7q17 5 23.5 11t11.5 19l208 523h37l208 -523q6 -15 13 -20.5t21 -9.5l24 -7v-16h-215v16l52 9q15 3 19.5 8.5t-0.5 16.5l-65 165h-200l-62 -166q-5 -11 0 -17t20 -8zM270 475l-87 -233h179zM261 736l39 -112l-16 -7l-58 105q-5 10 -6.5 15t-1.5 9
q0 8 5 12.5t13 4.5t14 -6.5t11 -20.5z" />
    <glyph glyph-name="Aring" unicode="&#xc5;" horiz-adv-x="596"
d="M176 16v-16h-162v16l22 7q17 5 23.5 11t11.5 19l208 523h37l208 -523q6 -15 13 -20.5t21 -9.5l24 -7v-16h-215v16l52 9q15 3 19.5 8.5t-0.5 16.5l-65 165h-200l-62 -166q-5 -11 0 -17t20 -8zM270 475l-87 -233h179zM298 757q38 0 63 -20t25 -52q0 -35 -25.5 -57
t-64.5 -22q-40 0 -65 20t-25 52q0 35 25.5 57t66.5 22zM299 624q24 0 38 15t14 42q0 26 -16 43t-41 17q-24 0 -39 -16t-15 -43q0 -25 16.5 -41.5t42.5 -16.5z" />
    <glyph glyph-name="Atilde" unicode="&#xc3;" horiz-adv-x="596"
d="M176 16v-16h-162v16l22 7q17 5 23.5 11t11.5 19l208 523h37l208 -523q6 -15 13 -20.5t21 -9.5l24 -7v-16h-215v16l52 9q15 3 19.5 8.5t-0.5 16.5l-65 165h-200l-62 -166q-5 -11 0 -17t20 -8zM270 475l-87 -233h179zM352 654q-7 0 -18.5 3.5t-36.5 14.5q-26 12 -37.5 15.5
t-19.5 3.5q-12 0 -19.5 -6.5t-13.5 -23.5l-14 -35l-17 7l16 44q12 32 23.5 43t31.5 11q7 0 18 -3.5t36 -14.5q26 -12 37.5 -15.5t18.5 -3.5q12 0 19.5 6t15.5 25l15 33l17 -7l-17 -43q-14 -34 -25 -44t-30 -10z" />
    <glyph glyph-name="Abreve" unicode="&#x102;" horiz-adv-x="596"
d="M176 16v-16h-162v16l22 7q17 5 23.5 11t11.5 19l208 523h37l208 -523q6 -15 13 -20.5t21 -9.5l24 -7v-16h-215v16l52 9q15 3 19.5 8.5t-0.5 16.5l-65 165h-200l-62 -166q-5 -11 0 -17t20 -8zM270 475l-87 -233h179zM296 618q-47 0 -74 31.5t-32 92.5l16 1
q9 -42 30.5 -61.5t59.5 -19.5q39 0 60 19t29 62l16 -1q-5 -61 -31.5 -92.5t-73.5 -31.5z" />
    <glyph glyph-name="Amacron" unicode="&#x100;" horiz-adv-x="596"
d="M176 16v-16h-162v16l22 7q17 5 23.5 11t11.5 19l208 523h37l208 -523q6 -15 13 -20.5t21 -9.5l24 -7v-16h-215v16l52 9q15 3 19.5 8.5t-0.5 16.5l-65 165h-200l-62 -166q-5 -11 0 -17t20 -8zM270 475l-87 -233h179zM409 677h-227v36h227v-36z" />
    <glyph glyph-name="Aogonek" unicode="&#x104;" horiz-adv-x="596"
d="M176 16v-16h-162v16l22 7q17 5 23.5 11t11.5 19l208 523h37l208 -523q6 -15 13 -20.5t21 -9.5l24 -7v-16h-59q-34 -41 -48 -69.5t-14 -57.5q0 -28 15 -44t42 -16q15 0 29 5t27 15l7 -9q-14 -18 -37.5 -31.5t-44.5 -13.5q-36 0 -59 20.5t-23 53.5q0 28 16 58.5t68 88.5
h-134v16l52 9q15 3 19.5 8.5t-0.5 16.5l-65 165h-200l-62 -166q-5 -11 0 -17t20 -8zM270 475l-87 -233h179z" />
    <glyph glyph-name="Ccedilla" unicode="&#xc7;" horiz-adv-x="607"
d="M430 -145q0 -34 -33 -56t-81 -22q-21 0 -32.5 6t-11.5 18q0 6 3.5 12t15.5 18q16 -17 30 -24t33 -7t31 11t12 28q0 22 -23 40t-68 30v7l40 74q-136 2 -220 81t-84 207q0 132 87 217t222 85q55 0 107.5 -15t89.5 -41v-113h-15l-18 44q-19 49 -61.5 73.5t-105.5 24.5
q-101 0 -158 -68t-57 -189q0 -125 63 -202.5t163 -77.5q56 0 95 22t64 66l25 44h13l-5 -105q-29 -21 -78 -35.5t-102 -17.5l-28 -51q43 -13 65 -34.5t22 -49.5z" />
    <glyph glyph-name="Cacute" unicode="&#x106;" horiz-adv-x="607"
d="M351 -10q-138 0 -223.5 79t-85.5 209q0 132 87 217t222 85q55 0 107.5 -15t89.5 -41v-113h-15l-18 44q-19 49 -61.5 73.5t-105.5 24.5q-101 0 -158 -68t-57 -189q0 -125 63 -202.5t163 -77.5q56 0 95 22t64 66l25 44h13l-5 -105q-31 -23 -87 -38t-113 -15zM376 617l-16 7
l38 109q7 16 13 23t14 7t13 -4.5t5 -12.5q0 -4 -2 -9.5t-7 -16.5z" />
    <glyph glyph-name="Ccaron" unicode="&#x10c;" horiz-adv-x="607"
d="M351 -10q-138 0 -223.5 79t-85.5 209q0 132 87 217t222 85q55 0 107.5 -15t89.5 -41v-113h-15l-18 44q-19 49 -61.5 73.5t-105.5 24.5q-101 0 -158 -68t-57 -189q0 -125 63 -202.5t163 -77.5q56 0 95 22t64 66l25 44h13l-5 -105q-31 -23 -87 -38t-113 -15zM459 763
l16 -10l-79 -115q-8 -12 -14.5 -16t-14.5 -4q-9 0 -15 4t-14 16l-80 115l16 10l92 -104h1z" />
    <glyph glyph-name="Ccircumflex" unicode="&#x108;" horiz-adv-x="607"
d="M351 -10q-138 0 -223.5 79t-85.5 209q0 132 87 217t222 85q55 0 107.5 -15t89.5 -41v-113h-15l-18 44q-19 49 -61.5 73.5t-105.5 24.5q-101 0 -158 -68t-57 -189q0 -125 63 -202.5t163 -77.5q56 0 95 22t64 66l25 44h13l-5 -105q-31 -23 -87 -38t-113 -15zM395 742
l80 -115l-16 -10l-92 104h-1l-93 -104l-16 10l80 115q9 13 14.5 17t14.5 4q8 0 14 -4.5t15 -16.5z" />
    <glyph glyph-name="Cdotaccent" unicode="&#x10a;" horiz-adv-x="607"
d="M351 -10q-138 0 -223.5 79t-85.5 209q0 132 87 217t222 85q55 0 107.5 -15t89.5 -41v-113h-15l-18 44q-19 49 -61.5 73.5t-105.5 24.5q-101 0 -158 -68t-57 -189q0 -125 63 -202.5t163 -77.5q56 0 95 22t64 66l25 44h13l-5 -105q-31 -23 -87 -38t-113 -15zM414 692
q0 -19 -13 -32t-31 -13q-19 0 -32 13t-13 32t13 32t32 13q18 0 31 -13t13 -32z" />
    <glyph glyph-name="Dcaron" unicode="&#x10e;" horiz-adv-x="652"
d="M610 287q0 -131 -88.5 -209t-240.5 -78h-240v16l32 7q23 6 29 13.5t6 28.5v439q0 21 -6 28.5t-29 13.5l-32 7v17h237q154 0 243 -76.5t89 -206.5zM519 277q0 129 -63.5 197t-185.5 68h-81v-477q0 -21 8 -29.5t26 -8.5h57q115 0 177 65.5t62 184.5zM379 763l16 -10
l-79 -115q-8 -12 -14.5 -16t-14.5 -4q-9 0 -15 4t-14 16l-80 115l16 10l92 -104h1z" />
    <glyph glyph-name="Dcroat" unicode="&#x110;" horiz-adv-x="652"
d="M108 275h-67v27h67v202q0 21 -6 28.5t-29 13.5l-32 7v17h237q154 0 243 -76.5t89 -206.5q0 -131 -88.5 -209t-240.5 -78h-240v16l32 7q23 6 29 13.5t6 28.5v210zM519 277q0 129 -63.5 197t-185.5 68h-81v-240h141v-27h-141v-210q0 -21 8 -29.5t26 -8.5h57q115 0 177 65.5
t62 184.5z" />
    <glyph glyph-name="Eacute" unicode="&#xc9;" horiz-adv-x="527"
d="M409 379v-181h-15l-23 55q-6 14 -11.5 17.5t-18.5 3.5h-152v-218q0 -21 10.5 -27.5t44.5 -5.5l139 6q23 1 34.5 7.5t20.5 26.5l35 73h16l-12 -136h-436v16l32 7q23 6 29 13.5t6 28.5v439q0 21 -6 28.5t-29 13.5l-32 7v17h341q17 0 30 2t27 6l7 -2v-135h-15l-23 62
q-8 22 -19 30t-37 9l-163 4v-244h152q13 0 19 3.5t11 17.5l23 56h15zM284 617l-16 7l38 109q7 16 13 23t14 7t13 -4.5t5 -12.5q0 -4 -2 -9.5t-7 -16.5z" />
    <glyph glyph-name="Ecircumflex" unicode="&#xca;" horiz-adv-x="527"
d="M409 379v-181h-15l-23 55q-6 14 -11.5 17.5t-18.5 3.5h-152v-218q0 -21 10.5 -27.5t44.5 -5.5l139 6q23 1 34.5 7.5t20.5 26.5l35 73h16l-12 -136h-436v16l32 7q23 6 29 13.5t6 28.5v439q0 21 -6 28.5t-29 13.5l-32 7v17h341q17 0 30 2t27 6l7 -2v-135h-15l-23 62
q-8 22 -19 30t-37 9l-163 4v-244h152q13 0 19 3.5t11 17.5l23 56h15zM303 742l80 -115l-16 -10l-92 104h-1l-93 -104l-16 10l80 115q9 13 14.5 17t14.5 4q8 0 14 -4.5t15 -16.5z" />
    <glyph glyph-name="Edieresis" unicode="&#xcb;" horiz-adv-x="527"
d="M409 379v-181h-15l-23 55q-6 14 -11.5 17.5t-18.5 3.5h-152v-218q0 -21 10.5 -27.5t44.5 -5.5l139 6q23 1 34.5 7.5t20.5 26.5l35 73h16l-12 -136h-436v16l32 7q23 6 29 13.5t6 28.5v439q0 21 -6 28.5t-29 13.5l-32 7v17h341q17 0 30 2t27 6l7 -2v-135h-15l-23 62
q-8 22 -19 30t-37 9l-163 4v-244h152q13 0 19 3.5t11 17.5l23 56h15zM246 693q0 -18 -12 -30.5t-30 -12.5q-19 0 -31 12t-12 31q0 18 12.5 30t30.5 12q17 0 29.5 -12.5t12.5 -29.5zM392 693q0 -19 -12 -31t-30 -12q-19 0 -30.5 12t-11.5 31q0 18 12 30t30 12t30 -12t12 -30z
" />
    <glyph glyph-name="Egrave" unicode="&#xc8;" horiz-adv-x="527"
d="M409 379v-181h-15l-23 55q-6 14 -11.5 17.5t-18.5 3.5h-152v-218q0 -21 10.5 -27.5t44.5 -5.5l139 6q23 1 34.5 7.5t20.5 26.5l35 73h16l-12 -136h-436v16l32 7q23 6 29 13.5t6 28.5v439q0 21 -6 28.5t-29 13.5l-32 7v17h341q17 0 30 2t27 6l7 -2v-135h-15l-23 62
q-8 22 -19 30t-37 9l-163 4v-244h152q13 0 19 3.5t11 17.5l23 56h15zM243 736l39 -112l-16 -7l-58 105q-5 10 -6.5 15t-1.5 9q0 8 5 12.5t13 4.5t14 -6.5t11 -20.5z" />
    <glyph glyph-name="Ebreve" unicode="&#x114;" horiz-adv-x="527"
d="M409 379v-181h-15l-23 55q-6 14 -11.5 17.5t-18.5 3.5h-152v-218q0 -21 10.5 -27.5t44.5 -5.5l139 6q23 1 34.5 7.5t20.5 26.5l35 73h16l-12 -136h-436v16l32 7q23 6 29 13.5t6 28.5v439q0 21 -6 28.5t-29 13.5l-32 7v17h341q17 0 30 2t27 6l7 -2v-135h-15l-23 62
q-8 22 -19 30t-37 9l-163 4v-244h152q13 0 19 3.5t11 17.5l23 56h15zM277 618q-47 0 -74 31.5t-32 92.5l16 1q9 -42 30.5 -61.5t59.5 -19.5q39 0 60 19t29 62l16 -1q-5 -61 -31.5 -92.5t-73.5 -31.5z" />
    <glyph glyph-name="Ecaron" unicode="&#x11a;" horiz-adv-x="527"
d="M409 379v-181h-15l-23 55q-6 14 -11.5 17.5t-18.5 3.5h-152v-218q0 -21 10.5 -27.5t44.5 -5.5l139 6q23 1 34.5 7.5t20.5 26.5l35 73h16l-12 -136h-436v16l32 7q23 6 29 13.5t6 28.5v439q0 21 -6 28.5t-29 13.5l-32 7v17h341q17 0 30 2t27 6l7 -2v-135h-15l-23 62
q-8 22 -19 30t-37 9l-163 4v-244h152q13 0 19 3.5t11 17.5l23 56h15zM367 763l16 -10l-79 -115q-8 -12 -14.5 -16t-14.5 -4q-9 0 -15 4t-14 16l-80 115l16 10l92 -104h1z" />
    <glyph glyph-name="Edotaccent" unicode="&#x116;" horiz-adv-x="527"
d="M409 379v-181h-15l-23 55q-6 14 -11.5 17.5t-18.5 3.5h-152v-218q0 -21 10.5 -27.5t44.5 -5.5l139 6q23 1 34.5 7.5t20.5 26.5l35 73h16l-12 -136h-436v16l32 7q23 6 29 13.5t6 28.5v439q0 21 -6 28.5t-29 13.5l-32 7v17h341q17 0 30 2t27 6l7 -2v-135h-15l-23 62
q-8 22 -19 30t-37 9l-163 4v-244h152q13 0 19 3.5t11 17.5l23 56h15zM322 692q0 -19 -13 -32t-31 -13q-19 0 -32 13t-13 32t13 32t32 13q18 0 31 -13t13 -32z" />
    <glyph glyph-name="Emacron" unicode="&#x112;" horiz-adv-x="527"
d="M409 379v-181h-15l-23 55q-6 14 -11.5 17.5t-18.5 3.5h-152v-218q0 -21 10.5 -27.5t44.5 -5.5l139 6q23 1 34.5 7.5t20.5 26.5l35 73h16l-12 -136h-436v16l32 7q23 6 29 13.5t6 28.5v439q0 21 -6 28.5t-29 13.5l-32 7v17h341q17 0 30 2t27 6l7 -2v-135h-15l-23 62
q-8 22 -19 30t-37 9l-163 4v-244h152q13 0 19 3.5t11 17.5l23 56h15zM390 677h-227v36h227v-36z" />
    <glyph glyph-name="Eogonek" unicode="&#x118;" horiz-adv-x="527"
d="M409 379v-181h-15l-23 55q-6 14 -11.5 17.5t-18.5 3.5h-152v-218q0 -21 10.5 -27.5t44.5 -5.5l139 6q23 1 34.5 7.5t20.5 26.5l35 73h16l-12 -136h-53q-34 -41 -48 -69.5t-14 -57.5q0 -28 15 -44t42 -16q15 0 29 5t27 15l7 -9q-14 -18 -37.5 -31.5t-44.5 -13.5
q-36 0 -59 20.5t-23 53.5q0 28 16 58.5t68 88.5h-361v16l32 7q23 6 29 13.5t6 28.5v439q0 21 -6 28.5t-29 13.5l-32 7v17h341q17 0 30 2t27 6l7 -2v-135h-15l-23 62q-8 22 -19 30t-37 9l-163 4v-244h152q13 0 19 3.5t11 17.5l23 56h15z" />
    <glyph glyph-name="Gbreve" unicode="&#x11e;" horiz-adv-x="639"
d="M362 -10q-144 0 -232 79t-88 210t90 216t227 85q61 0 114 -14.5t93 -41.5v-113h-15l-16 44q-18 46 -65.5 72t-114.5 26q-104 0 -163 -68.5t-59 -190.5q0 -126 64 -202t169 -76q36 0 68.5 8t54.5 22v127q0 22 -6.5 29.5t-28.5 11.5l-50 8v17h219v-17l-22 -6
q-21 -5 -26.5 -13t-5.5 -30v-73q0 -17 2 -28.5t6 -22.5l-3 -6q-38 -24 -96.5 -38.5t-115.5 -14.5zM368 618q-47 0 -74 31.5t-32 92.5l16 1q9 -42 30.5 -61.5t59.5 -19.5q39 0 60 19t29 62l16 -1q-5 -61 -31.5 -92.5t-73.5 -31.5z" />
    <glyph glyph-name="Gcircumflex" unicode="&#x11c;" horiz-adv-x="639"
d="M362 -10q-144 0 -232 79t-88 210t90 216t227 85q61 0 114 -14.5t93 -41.5v-113h-15l-16 44q-18 46 -65.5 72t-114.5 26q-104 0 -163 -68.5t-59 -190.5q0 -126 64 -202t169 -76q36 0 68.5 8t54.5 22v127q0 22 -6.5 29.5t-28.5 11.5l-50 8v17h219v-17l-22 -6
q-21 -5 -26.5 -13t-5.5 -30v-73q0 -17 2 -28.5t6 -22.5l-3 -6q-38 -24 -96.5 -38.5t-115.5 -14.5zM394 742l80 -115l-16 -10l-92 104h-1l-93 -104l-16 10l80 115q9 13 14.5 17t14.5 4q8 0 14 -4.5t15 -16.5z" />
    <glyph glyph-name="Gcommaaccent" unicode="&#x122;" horiz-adv-x="639"
d="M362 -10q-144 0 -232 79t-88 210t90 216t227 85q61 0 114 -14.5t93 -41.5v-113h-15l-16 44q-18 46 -65.5 72t-114.5 26q-104 0 -163 -68.5t-59 -190.5q0 -126 64 -202t169 -76q36 0 68.5 8t54.5 22v127q0 22 -6.5 29.5t-28.5 11.5l-50 8v17h219v-17l-22 -6
q-21 -5 -26.5 -13t-5.5 -30v-73q0 -17 2 -28.5t6 -22.5l-3 -6q-38 -24 -96.5 -38.5t-115.5 -14.5zM417 -109q0 -40 -27.5 -69.5t-79.5 -43.5l-5 17q39 12 59 29t20 39q0 16 -13 27t-53 25q8 22 18 30t26 8q25 0 40 -17t15 -45z" />
    <glyph glyph-name="Gdotaccent" unicode="&#x120;" horiz-adv-x="639"
d="M362 -10q-144 0 -232 79t-88 210t90 216t227 85q61 0 114 -14.5t93 -41.5v-113h-15l-16 44q-18 46 -65.5 72t-114.5 26q-104 0 -163 -68.5t-59 -190.5q0 -126 64 -202t169 -76q36 0 68.5 8t54.5 22v127q0 22 -6.5 29.5t-28.5 11.5l-50 8v17h219v-17l-22 -6
q-21 -5 -26.5 -13t-5.5 -30v-73q0 -17 2 -28.5t6 -22.5l-3 -6q-38 -24 -96.5 -38.5t-115.5 -14.5zM413 692q0 -19 -13 -32t-31 -13q-19 0 -32 13t-13 32t13 32t32 13q18 0 31 -13t13 -32z" />
    <glyph glyph-name="Hbar" unicode="&#x126;" horiz-adv-x="687"
d="M256 16v-16h-215v16l32 7q23 6 29 13.5t6 28.5v347h-67v26h67v66q0 21 -6 28.5t-29 13.5l-32 7v17h215v-17l-33 -7q-23 -6 -29 -13.5t-6 -28.5v-66h310v66q0 21 -6 28.5t-29 13.5l-33 7v17h215v-17l-32 -7q-23 -6 -29 -13.5t-6 -28.5v-66h67v-26h-67v-347q0 -21 6 -28.5
t29 -13.5l32 -7v-16h-215v16l33 7q23 6 29 13.5t6 28.5v217h-310v-217q0 -21 6 -28.5t29 -13.5zM188 412v-102h310v102h-310z" />
    <glyph glyph-name="Hcircumflex" unicode="&#x124;" horiz-adv-x="687"
d="M256 16v-16h-215v16l32 7q23 6 29 13.5t6 28.5v439q0 21 -6 28.5t-29 13.5l-32 7v17h215v-17l-33 -7q-23 -6 -29 -13.5t-6 -28.5v-194h310v194q0 21 -6 28.5t-29 13.5l-33 7v17h215v-17l-32 -7q-23 -6 -29 -13.5t-6 -28.5v-439q0 -21 6 -28.5t29 -13.5l32 -7v-16h-215v16
l33 7q23 6 29 13.5t6 28.5v217h-310v-217q0 -21 6 -28.5t29 -13.5zM377 742l80 -115l-16 -10l-92 104h-1l-93 -104l-16 10l80 115q9 13 14.5 17t14.5 4q8 0 14 -4.5t15 -16.5z" />
    <glyph glyph-name="Iacute" unicode="&#xcd;" horiz-adv-x="298"
d="M256 16v-16h-215v16l32 7q23 6 29 13.5t6 28.5v439q0 21 -6 28.5t-29 13.5l-32 7v17h215v-17l-32 -7q-23 -6 -29 -13.5t-6 -28.5v-439q0 -21 6 -28.5t29 -13.5zM157 617l-16 7l38 109q7 16 13 23t14 7t13 -4.5t5 -12.5q0 -4 -2 -9.5t-7 -16.5z" />
    <glyph glyph-name="Icircumflex" unicode="&#xce;" horiz-adv-x="298"
d="M256 16v-16h-215v16l32 7q23 6 29 13.5t6 28.5v439q0 21 -6 28.5t-29 13.5l-32 7v17h215v-17l-32 -7q-23 -6 -29 -13.5t-6 -28.5v-439q0 -21 6 -28.5t29 -13.5zM176 742l80 -115l-16 -10l-92 104h-1l-93 -104l-16 10l80 115q9 13 14.5 17t14.5 4q8 0 14 -4.5t15 -16.5z
" />
    <glyph glyph-name="Idieresis" unicode="&#xcf;" horiz-adv-x="298"
d="M256 16v-16h-215v16l32 7q23 6 29 13.5t6 28.5v439q0 21 -6 28.5t-29 13.5l-32 7v17h215v-17l-32 -7q-23 -6 -29 -13.5t-6 -28.5v-439q0 -21 6 -28.5t29 -13.5zM119 693q0 -18 -12 -30.5t-30 -12.5q-19 0 -31 12t-12 31q0 18 12.5 30t30.5 12q17 0 29.5 -12.5t12.5 -29.5
zM265 693q0 -19 -12 -31t-30 -12q-19 0 -30.5 12t-11.5 31q0 18 12 30t30 12t30 -12t12 -30z" />
    <glyph glyph-name="Igrave" unicode="&#xcc;" horiz-adv-x="298"
d="M256 16v-16h-215v16l32 7q23 6 29 13.5t6 28.5v439q0 21 -6 28.5t-29 13.5l-32 7v17h215v-17l-32 -7q-23 -6 -29 -13.5t-6 -28.5v-439q0 -21 6 -28.5t29 -13.5zM116 736l39 -112l-16 -7l-58 105q-5 10 -6.5 15t-1.5 9q0 8 5 12.5t13 4.5t14 -6.5t11 -20.5z" />
    <glyph glyph-name="Ibreve" unicode="&#x12c;" horiz-adv-x="298"
d="M256 16v-16h-215v16l32 7q23 6 29 13.5t6 28.5v439q0 21 -6 28.5t-29 13.5l-32 7v17h215v-17l-32 -7q-23 -6 -29 -13.5t-6 -28.5v-439q0 -21 6 -28.5t29 -13.5zM150 618q-47 0 -74 31.5t-32 92.5l16 1q9 -42 30.5 -61.5t59.5 -19.5q39 0 60 19t29 62l16 -1
q-5 -61 -31.5 -92.5t-73.5 -31.5z" />
    <glyph glyph-name="Idotaccent" unicode="&#x130;" horiz-adv-x="298"
d="M256 16v-16h-215v16l32 7q23 6 29 13.5t6 28.5v439q0 21 -6 28.5t-29 13.5l-32 7v17h215v-17l-32 -7q-23 -6 -29 -13.5t-6 -28.5v-439q0 -21 6 -28.5t29 -13.5zM195 692q0 -19 -13 -32t-31 -13q-19 0 -32 13t-13 32t13 32t32 13q18 0 31 -13t13 -32z" />
    <glyph glyph-name="Imacron" unicode="&#x12a;" horiz-adv-x="298"
d="M256 16v-16h-215v16l32 7q23 6 29 13.5t6 28.5v439q0 21 -6 28.5t-29 13.5l-32 7v17h215v-17l-32 -7q-23 -6 -29 -13.5t-6 -28.5v-439q0 -21 6 -28.5t29 -13.5zM263 677h-227v36h227v-36z" />
    <glyph glyph-name="Iogonek" unicode="&#x12e;" horiz-adv-x="298"
d="M256 16v-16h-76q-34 -41 -48 -69.5t-14 -57.5q0 -28 15 -44t42 -16q15 0 29 5t27 15l7 -9q-14 -18 -37.5 -31.5t-44.5 -13.5q-36 0 -59 20.5t-23 53.5q0 28 16 58.5t68 88.5h-117v16l32 7q23 6 29 13.5t6 28.5v439q0 21 -6 28.5t-29 13.5l-32 7v17h215v-17l-32 -7
q-23 -6 -29 -13.5t-6 -28.5v-439q0 -21 6 -28.5t29 -13.5z" />
    <glyph glyph-name="Itilde" unicode="&#x128;" horiz-adv-x="298"
d="M256 16v-16h-215v16l32 7q23 6 29 13.5t6 28.5v439q0 21 -6 28.5t-29 13.5l-32 7v17h215v-17l-32 -7q-23 -6 -29 -13.5t-6 -28.5v-439q0 -21 6 -28.5t29 -13.5zM206 654q-7 0 -18.5 3.5t-36.5 14.5q-26 12 -37.5 15.5t-19.5 3.5q-12 0 -19.5 -6.5t-13.5 -23.5l-14 -35
l-17 7l16 44q12 32 23.5 43t31.5 11q7 0 18 -3.5t36 -14.5q26 -12 37.5 -15.5t18.5 -3.5q12 0 19.5 6t15.5 25l15 33l17 -7l-17 -43q-14 -34 -25 -44t-30 -10z" />
    <glyph glyph-name="Jcircumflex" unicode="&#x134;" horiz-adv-x="298"
d="M23 -172l-8 17q58 40 75.5 69.5t17.5 77.5v512q0 21 -6 28.5t-29 13.5l-32 7v17h215v-17l-32 -7q-23 -6 -29 -13.5t-6 -28.5v-497q0 -54 -35.5 -93.5t-130.5 -85.5zM177 742l80 -115l-16 -10l-92 104h-1l-93 -104l-16 10l80 115q9 13 14.5 17t14.5 4q8 0 14 -4.5
t15 -16.5z" />
    <glyph glyph-name="IJ" unicode="&#x132;" horiz-adv-x="596"
d="M256 16v-16h-215v16l32 7q23 6 29 13.5t6 28.5v439q0 21 -6 28.5t-29 13.5l-32 7v17h215v-17l-32 -7q-23 -6 -29 -13.5t-6 -28.5v-439q0 -21 6 -28.5t29 -13.5zM321 -172l-8 17q58 40 75.5 69.5t17.5 77.5v512q0 21 -6 28.5t-29 13.5l-32 7v17h215v-17l-32 -7
q-23 -6 -29 -13.5t-6 -28.5v-497q0 -54 -35.5 -93.5t-130.5 -85.5z" />
    <glyph glyph-name="Kcommaaccent" unicode="&#x136;" horiz-adv-x="605"
d="M256 16v-16h-215v16l32 7q23 6 29 13.5t6 28.5v439q0 21 -6 28.5t-29 13.5l-32 7v17h215v-17l-32 -7q-23 -6 -29 -13.5t-6 -28.5v-198l233 210q12 10 9 17.5t-20 11.5l-40 8v17h201v-17l-30 -7q-23 -4 -36 -10t-27 -17l-222 -186l249 -271q15 -16 29 -23.5t41 -15.5
l24 -7v-16h-249v16l43 9q18 4 21 10t-8 19l-218 236v-225q0 -21 6 -28.5t29 -13.5zM356 -109q0 -40 -27.5 -69.5t-79.5 -43.5l-5 17q39 12 59 29t20 39q0 16 -13 27t-53 25q8 22 18 30t26 8q25 0 40 -17t15 -45z" />
    <glyph glyph-name="kgreenlandic.case" horiz-adv-x="691"
d="M256 16v-16h-215v16l32 7q23 6 29 13.5t6 28.5v439q0 21 -6 28.5t-29 13.5l-32 7v17h215v-17l-32 -7q-23 -6 -29 -13.5t-6 -28.5v-198l233 210q12 10 9 17.5t-20 11.5l-40 8v17h201v-17l-30 -7q-23 -4 -36 -10t-27 -17l-222 -186l249 -271q15 -16 29 -23.5t41 -15.5
l24 -7v-16h-249v16l43 9q18 4 21 10t-8 19l-218 236v-225q0 -21 6 -28.5t29 -13.5zM579 465q0 41 27 70t79 44l6 -17q-38 -12 -58.5 -29.5t-20.5 -39.5q0 -16 12 -26.5t54 -24.5q-8 -22 -18 -30.5t-26 -8.5q-25 0 -40 17t-15 45z" />
    <glyph glyph-name="Lacute" unicode="&#x139;" horiz-adv-x="499"
d="M481 138l-11 -138h-429v16l32 7q23 6 29 13.5t6 28.5v439q0 21 -6 28.5t-29 13.5l-32 7v17h215v-17l-32 -7q-23 -6 -29 -13.5t-6 -28.5v-448q0 -21 11 -28t44 -5l133 6q24 1 35 7.5t20 26.5l34 75h15zM158 617l-16 7l38 109q7 16 13 23t14 7t13 -4.5t5 -12.5
q0 -4 -2 -9.5t-7 -16.5z" />
    <glyph glyph-name="Lcaron" unicode="&#x13d;" horiz-adv-x="499"
d="M481 138l-11 -138h-429v16l32 7q23 6 29 13.5t6 28.5v439q0 21 -6 28.5t-29 13.5l-32 7v17h215v-17l-32 -7q-23 -6 -29 -13.5t-6 -28.5v-448q0 -21 11 -28t44 -5l133 6q24 1 35 7.5t20 26.5l34 75h15zM286 414l-14 2l17 167q2 19 8 27.5t16 8.5q8 0 12.5 -5t4.5 -13
q0 -3 -0.5 -7.5t-3.5 -18.5z" />
    <glyph glyph-name="Lcommaaccent" unicode="&#x13b;" horiz-adv-x="499"
d="M481 138l-11 -138h-429v16l32 7q23 6 29 13.5t6 28.5v439q0 21 -6 28.5t-29 13.5l-32 7v17h215v-17l-32 -7q-23 -6 -29 -13.5t-6 -28.5v-448q0 -21 11 -28t44 -5l133 6q24 1 35 7.5t20 26.5l34 75h15zM351 -109q0 -40 -27.5 -69.5t-79.5 -43.5l-5 17q39 12 59 29t20 39
q0 16 -13 27t-53 25q8 22 18 30t26 8q25 0 40 -17t15 -45z" />
    <glyph glyph-name="Ldot" unicode="&#x13f;" horiz-adv-x="499"
d="M481 138l-11 -138h-429v16l32 7q23 6 29 13.5t6 28.5v439q0 21 -6 28.5t-29 13.5l-32 7v17h215v-17l-32 -7q-23 -6 -29 -13.5t-6 -28.5v-448q0 -21 11 -28t44 -5l133 6q24 1 35 7.5t20 26.5l34 75h15zM440 294q0 -19 -13 -32t-32 -13t-32 13t-13 32t13 32.5t32 13.5
t32 -13.5t13 -32.5z" />
    <glyph glyph-name="Ntilde" unicode="&#xd1;" horiz-adv-x="676"
d="M219 16v-16h-180v16l32 7q23 6 29 13.5t6 28.5v439q0 21 -6 28.5t-29 13.5l-32 7v17h132l363 -445v379q0 22 -6.5 30t-28.5 12l-42 7v17h179v-17l-32 -7q-23 -6 -29 -13.5t-6 -28.5v-504h-38l-389 479v-414q0 -22 6.5 -30t28.5 -12zM395 654q-7 0 -18.5 3.5t-36.5 14.5
q-26 12 -37.5 15.5t-19.5 3.5q-12 0 -19.5 -6.5t-13.5 -23.5l-14 -35l-17 7l16 44q12 32 23.5 43t31.5 11q7 0 18 -3.5t36 -14.5q26 -12 37.5 -15.5t18.5 -3.5q12 0 19.5 6t15.5 25l15 33l17 -7l-17 -43q-14 -34 -25 -44t-30 -10z" />
    <glyph glyph-name="Nacute" unicode="&#x143;" horiz-adv-x="676"
d="M219 16v-16h-180v16l32 7q23 6 29 13.5t6 28.5v439q0 21 -6 28.5t-29 13.5l-32 7v17h132l363 -445v379q0 22 -6.5 30t-28.5 12l-42 7v17h179v-17l-32 -7q-23 -6 -29 -13.5t-6 -28.5v-504h-38l-389 479v-414q0 -22 6.5 -30t28.5 -12zM348 617l-16 7l38 109q7 16 13 23
t14 7t13 -4.5t5 -12.5q0 -4 -2 -9.5t-7 -16.5z" />
    <glyph glyph-name="Ncaron" unicode="&#x147;" horiz-adv-x="676"
d="M219 16v-16h-180v16l32 7q23 6 29 13.5t6 28.5v439q0 21 -6 28.5t-29 13.5l-32 7v17h132l363 -445v379q0 22 -6.5 30t-28.5 12l-42 7v17h179v-17l-32 -7q-23 -6 -29 -13.5t-6 -28.5v-504h-38l-389 479v-414q0 -22 6.5 -30t28.5 -12zM429 763l16 -10l-79 -115
q-8 -12 -14.5 -16t-14.5 -4q-9 0 -15 4t-14 16l-80 115l16 10l92 -104h1z" />
    <glyph glyph-name="Ncommaaccent" unicode="&#x145;" horiz-adv-x="676"
d="M219 16v-16h-180v16l32 7q23 6 29 13.5t6 28.5v439q0 21 -6 28.5t-29 13.5l-32 7v17h132l363 -445v379q0 22 -6.5 30t-28.5 12l-42 7v17h179v-17l-32 -7q-23 -6 -29 -13.5t-6 -28.5v-504h-38l-389 479v-414q0 -22 6.5 -30t28.5 -12zM391 -109q0 -40 -27.5 -69.5
t-79.5 -43.5l-5 17q39 12 59 29t20 39q0 16 -13 27t-53 25q8 22 18 30t26 8q25 0 40 -17t15 -45z" />
    <glyph glyph-name="Eng" unicode="&#x14a;" horiz-adv-x="678"
d="M219 16v-16h-180v16l32 7q23 6 29 13.5t6 28.5v439q0 21 -6 28.5t-29 13.5l-32 7v17h132l363 -452v386q0 21 -6 28.5t-29 12.5l-42 8v17h179v-17l-32 -7q-23 -6 -29 -13.5t-6 -28.5v-504q0 -55 -33 -93.5t-118 -78.5l-8 17q68 45 88.5 75.5t20.5 72.5v16l-377 468v-412
q0 -22 6.5 -29.5t28.5 -11.5z" />
    <glyph glyph-name="napostrophe.case" horiz-adv-x="778"
d="M321 16v-16h-180v16l32 7q23 6 29 13.5t6 28.5v439q0 21 -6 28.5t-29 13.5l-32 7v17h132l363 -445v379q0 22 -6.5 30t-28.5 12l-42 7v17h179v-17l-32 -7q-23 -6 -29 -13.5t-6 -28.5v-504h-38l-389 479v-414q0 -22 6.5 -30t28.5 -12zM112 517q0 -40 -27.5 -69.5
t-79.5 -43.5l-5 17q39 12 59 29t20 39q0 16 -13 27t-53 25q8 22 18 30t26 8q25 0 40 -17t15 -45z" />
    <glyph glyph-name="Oacute" unicode="&#xd3;" horiz-adv-x="688"
d="M646 289q0 -130 -86.5 -214.5t-213.5 -84.5q-132 0 -218 80.5t-86 209.5q0 130 86.5 215t213.5 85q132 0 218 -81t86 -210zM133 302q0 -129 60 -207t160 -78q96 0 149 65.5t53 184.5q0 129 -60 207t-160 78q-96 0 -149 -66t-53 -184zM354 617l-16 7l38 109q7 16 13 23
t14 7t13 -4.5t5 -12.5q0 -4 -2 -9.5t-7 -16.5z" />
    <glyph glyph-name="Ocircumflex" unicode="&#xd4;" horiz-adv-x="688"
d="M646 289q0 -130 -86.5 -214.5t-213.5 -84.5q-132 0 -218 80.5t-86 209.5q0 130 86.5 215t213.5 85q132 0 218 -81t86 -210zM133 302q0 -129 60 -207t160 -78q96 0 149 65.5t53 184.5q0 129 -60 207t-160 78q-96 0 -149 -66t-53 -184zM371 742l80 -115l-16 -10l-92 104h-1
l-93 -104l-16 10l80 115q9 13 14.5 17t14.5 4q8 0 14 -4.5t15 -16.5z" />
    <glyph glyph-name="Odieresis" unicode="&#xd6;" horiz-adv-x="688"
d="M646 289q0 -130 -86.5 -214.5t-213.5 -84.5q-132 0 -218 80.5t-86 209.5q0 130 86.5 215t213.5 85q132 0 218 -81t86 -210zM133 302q0 -129 60 -207t160 -78q96 0 149 65.5t53 184.5q0 129 -60 207t-160 78q-96 0 -149 -66t-53 -184zM314 693q0 -18 -12 -30.5t-30 -12.5
q-19 0 -31 12t-12 31q0 18 12.5 30t30.5 12q17 0 29.5 -12.5t12.5 -29.5zM460 693q0 -19 -12 -31t-30 -12q-19 0 -30.5 12t-11.5 31q0 18 12 30t30 12t30 -12t12 -30z" />
    <glyph glyph-name="Ograve" unicode="&#xd2;" horiz-adv-x="688"
d="M646 289q0 -130 -86.5 -214.5t-213.5 -84.5q-132 0 -218 80.5t-86 209.5q0 130 86.5 215t213.5 85q132 0 218 -81t86 -210zM133 302q0 -129 60 -207t160 -78q96 0 149 65.5t53 184.5q0 129 -60 207t-160 78q-96 0 -149 -66t-53 -184zM309 736l39 -112l-16 -7l-58 105
q-5 10 -6.5 15t-1.5 9q0 8 5 12.5t13 4.5t14 -6.5t11 -20.5z" />
    <glyph glyph-name="Otilde" unicode="&#xd5;" horiz-adv-x="688"
d="M646 289q0 -130 -86.5 -214.5t-213.5 -84.5q-132 0 -218 80.5t-86 209.5q0 130 86.5 215t213.5 85q132 0 218 -81t86 -210zM133 302q0 -129 60 -207t160 -78q96 0 149 65.5t53 184.5q0 129 -60 207t-160 78q-96 0 -149 -66t-53 -184zM401 654q-7 0 -18.5 3.5t-36.5 14.5
q-26 12 -37.5 15.5t-19.5 3.5q-12 0 -19.5 -6.5t-13.5 -23.5l-14 -35l-17 7l16 44q12 32 23.5 43t31.5 11q7 0 18 -3.5t36 -14.5q26 -12 37.5 -15.5t18.5 -3.5q12 0 19.5 6t15.5 25l15 33l17 -7l-17 -43q-14 -34 -25 -44t-30 -10z" />
    <glyph glyph-name="Obreve" unicode="&#x14e;" horiz-adv-x="688"
d="M646 289q0 -130 -86.5 -214.5t-213.5 -84.5q-132 0 -218 80.5t-86 209.5q0 130 86.5 215t213.5 85q132 0 218 -81t86 -210zM133 302q0 -129 60 -207t160 -78q96 0 149 65.5t53 184.5q0 129 -60 207t-160 78q-96 0 -149 -66t-53 -184zM345 618q-47 0 -74 31.5t-32 92.5
l16 1q9 -42 30.5 -61.5t59.5 -19.5q39 0 60 19t29 62l16 -1q-5 -61 -31.5 -92.5t-73.5 -31.5z" />
    <glyph glyph-name="Ohungarumlaut" unicode="&#x150;" horiz-adv-x="688"
d="M646 289q0 -130 -86.5 -214.5t-213.5 -84.5q-132 0 -218 80.5t-86 209.5q0 130 86.5 215t213.5 85q132 0 218 -81t86 -210zM133 302q0 -129 60 -207t160 -78q96 0 149 65.5t53 184.5q0 129 -60 207t-160 78q-96 0 -149 -66t-53 -184zM299 617l-16 7l35 110q4 15 10.5 22
t14.5 7t12.5 -4.5t4.5 -12.5q0 -4 -1.5 -8.5t-6.5 -14.5zM407 617l-16 7l35 110q4 15 10.5 22t14.5 7t12.5 -4.5t4.5 -12.5q0 -4 -1.5 -8.5t-6.5 -14.5z" />
    <glyph glyph-name="Omacron" unicode="&#x14c;" horiz-adv-x="688"
d="M646 289q0 -130 -86.5 -214.5t-213.5 -84.5q-132 0 -218 80.5t-86 209.5q0 130 86.5 215t213.5 85q132 0 218 -81t86 -210zM133 302q0 -129 60 -207t160 -78q96 0 149 65.5t53 184.5q0 129 -60 207t-160 78q-96 0 -149 -66t-53 -184zM458 677h-227v36h227v-36z" />
    <glyph glyph-name="Racute" unicode="&#x154;" horiz-adv-x="576"
d="M256 16v-16h-215v16l32 7q23 6 29 13.5t6 28.5v439q0 21 -6 28.5t-29 13.5l-32 7v17h232q88 0 142 -40.5t54 -106.5q0 -53 -37 -92t-98 -52l153 -215q16 -23 26 -29t37 -13l28 -6v-16h-108q-24 0 -34 4.5t-21 21.5l-135 203q-11 17 -25 23t-42 6h-24v-193q0 -21 6 -28.5
t29 -13.5zM249 543h-60v-258h55q69 0 103.5 32.5t34.5 97.5q0 61 -34.5 94.5t-98.5 33.5zM270 617l-16 7l38 109q7 16 13 23t14 7t13 -4.5t5 -12.5q0 -4 -2 -9.5t-7 -16.5z" />
    <glyph glyph-name="Rcaron" unicode="&#x158;" horiz-adv-x="576"
d="M256 16v-16h-215v16l32 7q23 6 29 13.5t6 28.5v439q0 21 -6 28.5t-29 13.5l-32 7v17h232q88 0 142 -40.5t54 -106.5q0 -53 -37 -92t-98 -52l153 -215q16 -23 26 -29t37 -13l28 -6v-16h-108q-24 0 -34 4.5t-21 21.5l-135 203q-11 17 -25 23t-42 6h-24v-193q0 -21 6 -28.5
t29 -13.5zM249 543h-60v-258h55q69 0 103.5 32.5t34.5 97.5q0 61 -34.5 94.5t-98.5 33.5zM353 763l16 -10l-79 -115q-8 -12 -14.5 -16t-14.5 -4q-9 0 -15 4t-14 16l-80 115l16 10l92 -104h1z" />
    <glyph glyph-name="Rcommaaccent" unicode="&#x156;" horiz-adv-x="576"
d="M256 16v-16h-215v16l32 7q23 6 29 13.5t6 28.5v439q0 21 -6 28.5t-29 13.5l-32 7v17h232q88 0 142 -40.5t54 -106.5q0 -53 -37 -92t-98 -52l153 -215q16 -23 26 -29t37 -13l28 -6v-16h-108q-24 0 -34 4.5t-21 21.5l-135 203q-11 17 -25 23t-42 6h-24v-193q0 -21 6 -28.5
t29 -13.5zM249 543h-60v-258h55q69 0 103.5 32.5t34.5 97.5q0 61 -34.5 94.5t-98.5 33.5zM381 -109q0 -40 -27.5 -69.5t-79.5 -43.5l-5 17q39 12 59 29t20 39q0 16 -13 27t-53 25q8 22 18 30t26 8q25 0 40 -17t15 -45z" />
    <glyph glyph-name="Scaron" unicode="&#x160;" horiz-adv-x="469"
d="M410 155q0 -75 -56.5 -120t-143.5 -45q-38 0 -76.5 9.5t-76.5 28.5l-9 130h16l21 -53q18 -45 49.5 -67t77.5 -22q59 0 92 27.5t33 78.5q0 40 -23.5 70t-100.5 69q-85 44 -111.5 80t-26.5 86q0 66 50.5 109.5t125.5 43.5q38 0 72 -9t61 -26l6 -106h-16l-14 36
q-16 40 -44 59t-71 19q-45 0 -74 -26t-29 -66q0 -36 22.5 -63t97.5 -66q46 -24 67 -38t36 -28q23 -23 34 -50.5t11 -60.5zM339 763l16 -10l-79 -115q-8 -12 -14.5 -16t-14.5 -4q-9 0 -15 4t-14 16l-80 115l16 10l92 -104h1z" />
    <glyph glyph-name="Sacute" unicode="&#x15a;" horiz-adv-x="469"
d="M410 155q0 -75 -56.5 -120t-143.5 -45q-38 0 -76.5 9.5t-76.5 28.5l-9 130h16l21 -53q18 -45 49.5 -67t77.5 -22q59 0 92 27.5t33 78.5q0 40 -23.5 70t-100.5 69q-85 44 -111.5 80t-26.5 86q0 66 50.5 109.5t125.5 43.5q38 0 72 -9t61 -26l6 -106h-16l-14 36
q-16 40 -44 59t-71 19q-45 0 -74 -26t-29 -66q0 -36 22.5 -63t97.5 -66q46 -24 67 -38t36 -28q23 -23 34 -50.5t11 -60.5zM256 617l-16 7l38 109q7 16 13 23t14 7t13 -4.5t5 -12.5q0 -4 -2 -9.5t-7 -16.5z" />
    <glyph glyph-name="Scedilla" unicode="&#x15e;" horiz-adv-x="469"
d="M219 -10h-9q-38 0 -76.5 9.5t-76.5 28.5l-9 130h16l21 -53q18 -45 49.5 -67t77.5 -22q59 0 92 27.5t33 78.5q0 40 -23.5 70t-100.5 69q-85 44 -111.5 80t-26.5 86q0 66 50.5 109.5t125.5 43.5q38 0 72 -9t61 -26l6 -106h-16l-14 36q-16 40 -44 59t-71 19q-45 0 -74 -26
t-29 -66q0 -36 22.5 -63t97.5 -66q46 -24 67 -38t36 -28q23 -23 34 -50.5t11 -60.5q0 -67 -44.5 -110t-120.5 -53l-29 -53q43 -13 65 -34.5t22 -49.5q0 -34 -33 -56t-81 -22q-21 0 -32.5 6t-11.5 18q0 6 3.5 12t15.5 18q16 -17 30 -24t33 -7t31 11t12 28q0 22 -23 40t-68 30
v7z" />
    <glyph glyph-name="Scircumflex" unicode="&#x15c;" horiz-adv-x="469"
d="M410 155q0 -75 -56.5 -120t-143.5 -45q-38 0 -76.5 9.5t-76.5 28.5l-9 130h16l21 -53q18 -45 49.5 -67t77.5 -22q59 0 92 27.5t33 78.5q0 40 -23.5 70t-100.5 69q-85 44 -111.5 80t-26.5 86q0 66 50.5 109.5t125.5 43.5q38 0 72 -9t61 -26l6 -106h-16l-14 36
q-16 40 -44 59t-71 19q-45 0 -74 -26t-29 -66q0 -36 22.5 -63t97.5 -66q46 -24 67 -38t36 -28q23 -23 34 -50.5t11 -60.5zM275 742l80 -115l-16 -10l-92 104h-1l-93 -104l-16 10l80 115q9 13 14.5 17t14.5 4q8 0 14 -4.5t15 -16.5z" />
    <glyph glyph-name="uni0218" unicode="&#x218;" horiz-adv-x="469"
d="M410 155q0 -75 -56.5 -120t-143.5 -45q-38 0 -76.5 9.5t-76.5 28.5l-9 130h16l21 -53q18 -45 49.5 -67t77.5 -22q59 0 92 27.5t33 78.5q0 40 -23.5 70t-100.5 69q-85 44 -111.5 80t-26.5 86q0 66 50.5 109.5t125.5 43.5q38 0 72 -9t61 -26l6 -106h-16l-14 36
q-16 40 -44 59t-71 19q-45 0 -74 -26t-29 -66q0 -36 22.5 -63t97.5 -66q46 -24 67 -38t36 -28q23 -23 34 -50.5t11 -60.5zM282 -109q0 -40 -27.5 -69.5t-79.5 -43.5l-5 17q39 12 59 29t20 39q0 16 -13 27t-53 25q8 22 18 30t26 8q25 0 40 -17t15 -45z" />
    <glyph glyph-name="Tbar" unicode="&#x166;" horiz-adv-x="544"
d="M231 273h-131v27h131v242h-116q-25 0 -36.5 -8t-18.5 -30l-23 -73h-15v145l6 2q14 -4 27.5 -6t30.5 -2h371q17 0 30.5 2t27.5 6l7 -2v-145h-16l-22 73q-6 21 -18 29.5t-38 8.5h-116v-242h131v-27h-131v-208q0 -21 6 -28.5t29 -13.5l32 -7v-16h-215v16l32 7q23 6 29 13.5
t6 28.5v208z" />
    <glyph glyph-name="Tcaron" unicode="&#x164;" horiz-adv-x="544"
d="M379 16v-16h-215v16l32 7q23 6 29 13.5t6 28.5v477h-116q-25 0 -36.5 -8t-18.5 -30l-23 -73h-15v145l6 2q14 -4 27.5 -6t30.5 -2h371q17 0 30.5 2t27.5 6l7 -2v-145h-16l-22 73q-6 21 -18 29.5t-38 8.5h-116v-477q0 -21 6 -28.5t29 -13.5zM362 763l16 -10l-79 -115
q-8 -12 -14.5 -16t-14.5 -4q-9 0 -15 4t-14 16l-80 115l16 10l92 -104h1z" />
    <glyph glyph-name="uni0162" unicode="&#x162;" horiz-adv-x="544"
d="M379 16v-16h-215v16l32 7q23 6 29 13.5t6 28.5v477h-116q-25 0 -36.5 -8t-18.5 -30l-23 -73h-15v145l6 2q14 -4 27.5 -6t30.5 -2h371q17 0 30.5 2t27.5 6l7 -2v-145h-16l-22 73q-6 21 -18 29.5t-38 8.5h-116v-477q0 -21 6 -28.5t29 -13.5zM324 -109q0 -40 -27.5 -69.5
t-79.5 -43.5l-5 17q39 12 59 29t20 39q0 16 -13 27t-53 25q8 22 18 30t26 8q25 0 40 -17t15 -45z" />
    <glyph glyph-name="uni021A" unicode="&#x21a;" horiz-adv-x="544"
d="M379 16v-16h-215v16l32 7q23 6 29 13.5t6 28.5v477h-116q-25 0 -36.5 -8t-18.5 -30l-23 -73h-15v145l6 2q14 -4 27.5 -6t30.5 -2h371q17 0 30.5 2t27.5 6l7 -2v-145h-16l-22 73q-6 21 -18 29.5t-38 8.5h-116v-477q0 -21 6 -28.5t29 -13.5zM324 -109q0 -40 -27.5 -69.5
t-79.5 -43.5l-5 17q39 12 59 29t20 39q0 16 -13 27t-53 25q8 22 18 30t26 8q25 0 40 -17t15 -45z" />
    <glyph glyph-name="Uacute" unicode="&#xda;" horiz-adv-x="655"
d="M337 -10q-108 0 -168.5 56t-60.5 158v300q0 21 -6 28.5t-29 13.5l-32 7v17h215v-17l-32 -7q-23 -6 -29 -13.5t-6 -28.5v-300q0 -88 41.5 -133t122.5 -45q79 0 119.5 49.5t40.5 145.5v283q0 21 -6 28.5t-29 12.5l-43 8v17h180v-17l-32 -7q-23 -6 -29 -13.5t-6 -28.5v-283
q0 -113 -53.5 -172t-157.5 -59zM359 617l-16 7l38 109q7 16 13 23t14 7t13 -4.5t5 -12.5q0 -4 -2 -9.5t-7 -16.5z" />
    <glyph glyph-name="Ucircumflex" unicode="&#xdb;" horiz-adv-x="655"
d="M337 -10q-108 0 -168.5 56t-60.5 158v300q0 21 -6 28.5t-29 13.5l-32 7v17h215v-17l-32 -7q-23 -6 -29 -13.5t-6 -28.5v-300q0 -88 41.5 -133t122.5 -45q79 0 119.5 49.5t40.5 145.5v283q0 21 -6 28.5t-29 12.5l-43 8v17h180v-17l-32 -7q-23 -6 -29 -13.5t-6 -28.5v-283
q0 -113 -53.5 -172t-157.5 -59zM377 742l80 -115l-16 -10l-92 104h-1l-93 -104l-16 10l80 115q9 13 14.5 17t14.5 4q8 0 14 -4.5t15 -16.5z" />
    <glyph glyph-name="Udieresis" unicode="&#xdc;" horiz-adv-x="655"
d="M337 -10q-108 0 -168.5 56t-60.5 158v300q0 21 -6 28.5t-29 13.5l-32 7v17h215v-17l-32 -7q-23 -6 -29 -13.5t-6 -28.5v-300q0 -88 41.5 -133t122.5 -45q79 0 119.5 49.5t40.5 145.5v283q0 21 -6 28.5t-29 12.5l-43 8v17h180v-17l-32 -7q-23 -6 -29 -13.5t-6 -28.5v-283
q0 -113 -53.5 -172t-157.5 -59zM320 693q0 -18 -12 -30.5t-30 -12.5q-19 0 -31 12t-12 31q0 18 12.5 30t30.5 12q17 0 29.5 -12.5t12.5 -29.5zM466 693q0 -19 -12 -31t-30 -12q-19 0 -30.5 12t-11.5 31q0 18 12 30t30 12t30 -12t12 -30z" />
    <glyph glyph-name="Ugrave" unicode="&#xd9;" horiz-adv-x="655"
d="M337 -10q-108 0 -168.5 56t-60.5 158v300q0 21 -6 28.5t-29 13.5l-32 7v17h215v-17l-32 -7q-23 -6 -29 -13.5t-6 -28.5v-300q0 -88 41.5 -133t122.5 -45q79 0 119.5 49.5t40.5 145.5v283q0 21 -6 28.5t-29 12.5l-43 8v17h180v-17l-32 -7q-23 -6 -29 -13.5t-6 -28.5v-283
q0 -113 -53.5 -172t-157.5 -59zM317 736l39 -112l-16 -7l-58 105q-5 10 -6.5 15t-1.5 9q0 8 5 12.5t13 4.5t14 -6.5t11 -20.5z" />
    <glyph glyph-name="Ubreve" unicode="&#x16c;" horiz-adv-x="655"
d="M337 -10q-108 0 -168.5 56t-60.5 158v300q0 21 -6 28.5t-29 13.5l-32 7v17h215v-17l-32 -7q-23 -6 -29 -13.5t-6 -28.5v-300q0 -88 41.5 -133t122.5 -45q79 0 119.5 49.5t40.5 145.5v283q0 21 -6 28.5t-29 12.5l-43 8v17h180v-17l-32 -7q-23 -6 -29 -13.5t-6 -28.5v-283
q0 -113 -53.5 -172t-157.5 -59zM351 618q-47 0 -74 31.5t-32 92.5l16 1q9 -42 30.5 -61.5t59.5 -19.5q39 0 60 19t29 62l16 -1q-5 -61 -31.5 -92.5t-73.5 -31.5z" />
    <glyph glyph-name="Uhungarumlaut" unicode="&#x170;" horiz-adv-x="655"
d="M337 -10q-108 0 -168.5 56t-60.5 158v300q0 21 -6 28.5t-29 13.5l-32 7v17h215v-17l-32 -7q-23 -6 -29 -13.5t-6 -28.5v-300q0 -88 41.5 -133t122.5 -45q79 0 119.5 49.5t40.5 145.5v283q0 21 -6 28.5t-29 12.5l-43 8v17h180v-17l-32 -7q-23 -6 -29 -13.5t-6 -28.5v-283
q0 -113 -53.5 -172t-157.5 -59zM313 617l-16 7l35 110q4 15 10.5 22t14.5 7t12.5 -4.5t4.5 -12.5q0 -4 -1.5 -8.5t-6.5 -14.5zM421 617l-16 7l35 110q4 15 10.5 22t14.5 7t12.5 -4.5t4.5 -12.5q0 -4 -1.5 -8.5t-6.5 -14.5z" />
    <glyph glyph-name="Umacron" unicode="&#x16a;" horiz-adv-x="655"
d="M337 -10q-108 0 -168.5 56t-60.5 158v300q0 21 -6 28.5t-29 13.5l-32 7v17h215v-17l-32 -7q-23 -6 -29 -13.5t-6 -28.5v-300q0 -88 41.5 -133t122.5 -45q79 0 119.5 49.5t40.5 145.5v283q0 21 -6 28.5t-29 12.5l-43 8v17h180v-17l-32 -7q-23 -6 -29 -13.5t-6 -28.5v-283
q0 -113 -53.5 -172t-157.5 -59zM464 677h-227v36h227v-36z" />
    <glyph glyph-name="Uogonek" unicode="&#x172;" horiz-adv-x="655"
d="M338 -221q-36 0 -59 20.5t-23 53.5q0 28 16.5 59t59.5 78q-106 2 -165 57.5t-59 156.5v300q0 21 -6 28.5t-29 13.5l-32 7v17h215v-17l-32 -7q-23 -6 -29 -13.5t-6 -28.5v-300q0 -88 41.5 -133t122.5 -45q79 0 119.5 49.5t40.5 145.5v283q0 21 -6 28.5t-29 12.5l-43 8v17
h180v-17l-32 -7q-23 -6 -29 -13.5t-6 -28.5v-283q0 -108 -49 -167t-145 -64q-29 -36 -41.5 -62.5t-12.5 -54.5t15 -44t42 -16q15 0 29 5t27 15l7 -9q-14 -18 -37.5 -31.5t-44.5 -13.5z" />
    <glyph glyph-name="Uring" unicode="&#x16e;" horiz-adv-x="655"
d="M337 -10q-108 0 -168.5 56t-60.5 158v300q0 21 -6 28.5t-29 13.5l-32 7v17h215v-17l-32 -7q-23 -6 -29 -13.5t-6 -28.5v-300q0 -88 41.5 -133t122.5 -45q79 0 119.5 49.5t40.5 145.5v283q0 21 -6 28.5t-29 12.5l-43 8v17h180v-17l-32 -7q-23 -6 -29 -13.5t-6 -28.5v-283
q0 -113 -53.5 -172t-157.5 -59zM353 757q38 0 63 -20t25 -52q0 -35 -25.5 -57t-64.5 -22q-40 0 -65 20t-25 52q0 35 25.5 57t66.5 22zM354 624q24 0 38 15t14 42q0 26 -16 43t-41 17q-24 0 -39 -16t-15 -43q0 -25 16.5 -41.5t42.5 -16.5z" />
    <glyph glyph-name="Utilde" unicode="&#x168;" horiz-adv-x="655"
d="M337 -10q-108 0 -168.5 56t-60.5 158v300q0 21 -6 28.5t-29 13.5l-32 7v17h215v-17l-32 -7q-23 -6 -29 -13.5t-6 -28.5v-300q0 -88 41.5 -133t122.5 -45q79 0 119.5 49.5t40.5 145.5v283q0 21 -6 28.5t-29 12.5l-43 8v17h180v-17l-32 -7q-23 -6 -29 -13.5t-6 -28.5v-283
q0 -113 -53.5 -172t-157.5 -59zM407 654q-7 0 -18.5 3.5t-36.5 14.5q-26 12 -37.5 15.5t-19.5 3.5q-12 0 -19.5 -6.5t-13.5 -23.5l-14 -35l-17 7l16 44q12 32 23.5 43t31.5 11q7 0 18 -3.5t36 -14.5q26 -12 37.5 -15.5t18.5 -3.5q12 0 19.5 6t15.5 25l15 33l17 -7l-17 -43
q-14 -34 -25 -44t-30 -10z" />
    <glyph glyph-name="Wacute" unicode="&#x1e82;" horiz-adv-x="843"
d="M319 -6h-42l-217 523q-7 16 -13.5 21.5t-20.5 8.5l-24 6v17h203v-18l-40 -9q-16 -3 -20 -8.5t0 -16.5l180 -441l83 200l-104 240q-6 15 -13.5 21t-21.5 9l-23 6v17h196v-18l-36 -9q-15 -4 -19.5 -9.5t0.5 -17.5l76 -177l76 180q5 10 1.5 15t-21.5 11l-27 7v18h151v-17
l-30 -7q-13 -3 -20 -8t-15 -21l-99 -213l97 -227l166 441q4 12 0 17.5t-20 8.5l-38 8v18h157v-17l-24 -7q-16 -4 -23 -9.5t-12 -19.5l-211 -523h-41l-105 243zM477 617l-16 7l38 109q7 16 13 23t14 7t13 -4.5t5 -12.5q0 -4 -2 -9.5t-7 -16.5z" />
    <glyph glyph-name="Wcircumflex" unicode="&#x174;" horiz-adv-x="843"
d="M319 -6h-42l-217 523q-7 16 -13.5 21.5t-20.5 8.5l-24 6v17h203v-18l-40 -9q-16 -3 -20 -8.5t0 -16.5l180 -441l83 200l-104 240q-6 15 -13.5 21t-21.5 9l-23 6v17h196v-18l-36 -9q-15 -4 -19.5 -9.5t0.5 -17.5l76 -177l76 180q5 10 1.5 15t-21.5 11l-27 7v18h151v-17
l-30 -7q-13 -3 -20 -8t-15 -21l-99 -213l97 -227l166 441q4 12 0 17.5t-20 8.5l-38 8v18h157v-17l-24 -7q-16 -4 -23 -9.5t-12 -19.5l-211 -523h-41l-105 243zM496 742l80 -115l-16 -10l-92 104h-1l-93 -104l-16 10l80 115q9 13 14.5 17t14.5 4q8 0 14 -4.5t15 -16.5z" />
    <glyph glyph-name="Wdieresis" unicode="&#x1e84;" horiz-adv-x="843"
d="M319 -6h-42l-217 523q-7 16 -13.5 21.5t-20.5 8.5l-24 6v17h203v-18l-40 -9q-16 -3 -20 -8.5t0 -16.5l180 -441l83 200l-104 240q-6 15 -13.5 21t-21.5 9l-23 6v17h196v-18l-36 -9q-15 -4 -19.5 -9.5t0.5 -17.5l76 -177l76 180q5 10 1.5 15t-21.5 11l-27 7v18h151v-17
l-30 -7q-13 -3 -20 -8t-15 -21l-99 -213l97 -227l166 441q4 12 0 17.5t-20 8.5l-38 8v18h157v-17l-24 -7q-16 -4 -23 -9.5t-12 -19.5l-211 -523h-41l-105 243zM439 693q0 -18 -12 -30.5t-30 -12.5q-19 0 -31 12t-12 31q0 18 12.5 30t30.5 12q17 0 29.5 -12.5t12.5 -29.5z
M585 693q0 -19 -12 -31t-30 -12q-19 0 -30.5 12t-11.5 31q0 18 12 30t30 12t30 -12t12 -30z" />
    <glyph glyph-name="Wgrave" unicode="&#x1e80;" horiz-adv-x="843"
d="M319 -6h-42l-217 523q-7 16 -13.5 21.5t-20.5 8.5l-24 6v17h203v-18l-40 -9q-16 -3 -20 -8.5t0 -16.5l180 -441l83 200l-104 240q-6 15 -13.5 21t-21.5 9l-23 6v17h196v-18l-36 -9q-15 -4 -19.5 -9.5t0.5 -17.5l76 -177l76 180q5 10 1.5 15t-21.5 11l-27 7v18h151v-17
l-30 -7q-13 -3 -20 -8t-15 -21l-99 -213l97 -227l166 441q4 12 0 17.5t-20 8.5l-38 8v18h157v-17l-24 -7q-16 -4 -23 -9.5t-12 -19.5l-211 -523h-41l-105 243zM435 736l39 -112l-16 -7l-58 105q-5 10 -6.5 15t-1.5 9q0 8 5 12.5t13 4.5t14 -6.5t11 -20.5z" />
    <glyph glyph-name="Yacute" unicode="&#xdd;" horiz-adv-x="543"
d="M379 16v-16h-215v16l32 7q23 6 29 13.5t6 28.5v175l-167 277q-11 19 -18 23t-19 7l-25 6v17h225v-18l-52 -9q-16 -3 -20.5 -9t0.5 -16l144 -242l143 240q7 11 2.5 18t-21.5 11l-43 8v17h161v-17l-22 -6q-12 -3 -18.5 -8t-19.5 -25l-170 -268v-181q0 -21 6 -28.5t29 -13.5
zM310 617l-16 7l38 109q7 16 13 23t14 7t13 -4.5t5 -12.5q0 -4 -2 -9.5t-7 -16.5z" />
    <glyph glyph-name="Ydieresis" unicode="&#x178;" horiz-adv-x="543"
d="M379 16v-16h-215v16l32 7q23 6 29 13.5t6 28.5v175l-167 277q-11 19 -18 23t-19 7l-25 6v17h225v-18l-52 -9q-16 -3 -20.5 -9t0.5 -16l144 -242l143 240q7 11 2.5 18t-21.5 11l-43 8v17h161v-17l-22 -6q-12 -3 -18.5 -8t-19.5 -25l-170 -268v-181q0 -21 6 -28.5t29 -13.5
zM272 693q0 -18 -12 -30.5t-30 -12.5q-19 0 -31 12t-12 31q0 18 12.5 30t30.5 12q17 0 29.5 -12.5t12.5 -29.5zM418 693q0 -19 -12 -31t-30 -12q-19 0 -30.5 12t-11.5 31q0 18 12 30t30 12t30 -12t12 -30z" />
    <glyph glyph-name="Ycircumflex" unicode="&#x176;" horiz-adv-x="543"
d="M379 16v-16h-215v16l32 7q23 6 29 13.5t6 28.5v175l-167 277q-11 19 -18 23t-19 7l-25 6v17h225v-18l-52 -9q-16 -3 -20.5 -9t0.5 -16l144 -242l143 240q7 11 2.5 18t-21.5 11l-43 8v17h161v-17l-22 -6q-12 -3 -18.5 -8t-19.5 -25l-170 -268v-181q0 -21 6 -28.5t29 -13.5
zM329 742l80 -115l-16 -10l-92 104h-1l-93 -104l-16 10l80 115q9 13 14.5 17t14.5 4q8 0 14 -4.5t15 -16.5z" />
    <glyph glyph-name="Ygrave" unicode="&#x1ef2;" horiz-adv-x="543"
d="M379 16v-16h-215v16l32 7q23 6 29 13.5t6 28.5v175l-167 277q-11 19 -18 23t-19 7l-25 6v17h225v-18l-52 -9q-16 -3 -20.5 -9t0.5 -16l144 -242l143 240q7 11 2.5 18t-21.5 11l-43 8v17h161v-17l-22 -6q-12 -3 -18.5 -8t-19.5 -25l-170 -268v-181q0 -21 6 -28.5t29 -13.5
zM269 736l39 -112l-16 -7l-58 105q-5 10 -6.5 15t-1.5 9q0 8 5 12.5t13 4.5t14 -6.5t11 -20.5z" />
    <glyph glyph-name="Zcaron" unicode="&#x17d;" horiz-adv-x="543"
d="M505 138l-11 -138h-470v14l358 528h-238q-26 0 -38 -8.5t-18 -29.5l-23 -73h-15v145l7 2q14 -4 27 -6t30 -2h373v-14l-360 -532l274 5q23 0 34.5 7t20.5 27l34 75h15zM369 763l16 -10l-79 -115q-8 -12 -14.5 -16t-14.5 -4q-9 0 -15 4t-14 16l-80 115l16 10l92 -104h1z
" />
    <glyph glyph-name="Zacute" unicode="&#x179;" horiz-adv-x="543"
d="M505 138l-11 -138h-470v14l358 528h-238q-26 0 -38 -8.5t-18 -29.5l-23 -73h-15v145l7 2q14 -4 27 -6t30 -2h373v-14l-360 -532l274 5q23 0 34.5 7t20.5 27l34 75h15zM286 617l-16 7l38 109q7 16 13 23t14 7t13 -4.5t5 -12.5q0 -4 -2 -9.5t-7 -16.5z" />
    <glyph glyph-name="Zdotaccent" unicode="&#x17b;" horiz-adv-x="543"
d="M505 138l-11 -138h-470v14l358 528h-238q-26 0 -38 -8.5t-18 -29.5l-23 -73h-15v145l7 2q14 -4 27 -6t30 -2h373v-14l-360 -532l274 5q23 0 34.5 7t20.5 27l34 75h15zM324 692q0 -19 -13 -32t-31 -13q-19 0 -32 13t-13 32t13 32t32 13q18 0 31 -13t13 -32z" />
    <glyph glyph-name="aacute" unicode="&#xe1;" horiz-adv-x="362"
d="M220 40q-37 -24 -66 -37t-48 -13q-36 0 -60.5 21t-24.5 54q0 28 19.5 46.5t66.5 35.5l112 39v67q0 35 -19.5 54t-54.5 19q-15 0 -28.5 -3.5t-22.5 -9.5q-10 -7 -14 -14.5t-4 -21.5q0 -5 2 -15t6 -22q-8 -5 -19.5 -8t-18.5 -3q-11 0 -18 7.5t-7 19.5q0 32 57.5 71.5
t106.5 39.5q46 0 77 -24.5t31 -60.5v-200q0 -22 7 -32t23 -10q7 0 15 1.5t17 4.5l5 -12q-27 -20 -51.5 -32t-37.5 -12q-23 0 -35.5 12.5t-15.5 37.5zM96 85q0 -23 14.5 -35t41.5 -12q19 0 35 4.5t32 13.5v111l-70 -29q-32 -14 -42.5 -25t-10.5 -28zM194 410l-15 7l63 165
q6 17 13 24t15 7t13 -5t5 -13q0 -5 -2 -11t-7 -15z" />
    <glyph glyph-name="acircumflex" unicode="&#xe2;" horiz-adv-x="362"
d="M220 40q-37 -24 -66 -37t-48 -13q-36 0 -60.5 21t-24.5 54q0 28 19.5 46.5t66.5 35.5l112 39v67q0 35 -19.5 54t-54.5 19q-15 0 -28.5 -3.5t-22.5 -9.5q-10 -7 -14 -14.5t-4 -21.5q0 -5 2 -15t6 -22q-8 -5 -19.5 -8t-18.5 -3q-11 0 -18 7.5t-7 19.5q0 32 57.5 71.5
t106.5 39.5q46 0 77 -24.5t31 -60.5v-200q0 -22 7 -32t23 -10q7 0 15 1.5t17 4.5l5 -12q-27 -20 -51.5 -32t-37.5 -12q-23 0 -35.5 12.5t-15.5 37.5zM96 85q0 -23 14.5 -35t41.5 -12q19 0 35 4.5t32 13.5v111l-70 -29q-32 -14 -42.5 -25t-10.5 -28zM212 590l88 -170l-16 -10
l-99 156h-2l-99 -156l-16 10l88 170q7 13 13.5 18t15.5 5q8 0 14 -4.5t13 -18.5z" />
    <glyph glyph-name="adieresis" unicode="&#xe4;" horiz-adv-x="362"
d="M220 40q-37 -24 -66 -37t-48 -13q-36 0 -60.5 21t-24.5 54q0 28 19.5 46.5t66.5 35.5l112 39v67q0 35 -19.5 54t-54.5 19q-15 0 -28.5 -3.5t-22.5 -9.5q-10 -7 -14 -14.5t-4 -21.5q0 -5 2 -15t6 -22q-8 -5 -19.5 -8t-18.5 -3q-11 0 -18 7.5t-7 19.5q0 32 57.5 71.5
t106.5 39.5q46 0 77 -24.5t31 -60.5v-200q0 -22 7 -32t23 -10q7 0 15 1.5t17 4.5l5 -12q-27 -20 -51.5 -32t-37.5 -12q-23 0 -35.5 12.5t-15.5 37.5zM96 85q0 -23 14.5 -35t41.5 -12q19 0 35 4.5t32 13.5v111l-70 -29q-32 -14 -42.5 -25t-10.5 -28zM152 537q0 -18 -12 -30.5
t-30 -12.5q-19 0 -31 12t-12 31q0 18 12.5 30t30.5 12q17 0 29.5 -12.5t12.5 -29.5zM306 537q0 -19 -12 -31t-30 -12q-19 0 -30.5 12t-11.5 31q0 18 12 30t30 12t30 -12t12 -30z" />
    <glyph glyph-name="agrave" unicode="&#xe0;" horiz-adv-x="362"
d="M220 40q-37 -24 -66 -37t-48 -13q-36 0 -60.5 21t-24.5 54q0 28 19.5 46.5t66.5 35.5l112 39v67q0 35 -19.5 54t-54.5 19q-15 0 -28.5 -3.5t-22.5 -9.5q-10 -7 -14 -14.5t-4 -21.5q0 -5 2 -15t6 -22q-8 -5 -19.5 -8t-18.5 -3q-11 0 -18 7.5t-7 19.5q0 32 57.5 71.5
t106.5 39.5q46 0 77 -24.5t31 -60.5v-200q0 -22 7 -32t23 -10q7 0 15 1.5t17 4.5l5 -12q-27 -20 -51.5 -32t-37.5 -12q-23 0 -35.5 12.5t-15.5 37.5zM96 85q0 -23 14.5 -35t41.5 -12q19 0 35 4.5t32 13.5v111l-70 -29q-32 -14 -42.5 -25t-10.5 -28zM130 582l63 -165l-15 -7
l-85 159q-5 9 -7 15t-2 11q0 8 5.5 13t13.5 5t14.5 -7.5t12.5 -23.5z" />
    <glyph glyph-name="aring" unicode="&#xe5;" horiz-adv-x="362"
d="M220 40q-37 -24 -66 -37t-48 -13q-36 0 -60.5 21t-24.5 54q0 28 19.5 46.5t66.5 35.5l112 39v67q0 35 -19.5 54t-54.5 19q-15 0 -28.5 -3.5t-22.5 -9.5q-10 -7 -14 -14.5t-4 -21.5q0 -5 2 -15t6 -22q-8 -5 -19.5 -8t-18.5 -3q-11 0 -18 7.5t-7 19.5q0 32 57.5 71.5
t106.5 39.5q46 0 77 -24.5t31 -60.5v-200q0 -22 7 -32t23 -10q7 0 15 1.5t17 4.5l5 -12q-27 -20 -51.5 -32t-37.5 -12q-23 0 -35.5 12.5t-15.5 37.5zM96 85q0 -23 14.5 -35t41.5 -12q19 0 35 4.5t32 13.5v111l-70 -29q-32 -14 -42.5 -25t-10.5 -28zM189 590q39 0 64.5 -21.5
t25.5 -55.5q0 -36 -26 -59.5t-66 -23.5q-41 0 -66.5 21t-25.5 55q0 37 26.5 60.5t67.5 23.5zM190 447q25 0 39 16.5t14 45.5q0 28 -16 46t-42 18q-25 0 -40 -17.5t-15 -45.5q0 -27 17 -45t43 -18z" />
    <glyph glyph-name="atilde" unicode="&#xe3;" horiz-adv-x="362"
d="M220 40q-37 -24 -66 -37t-48 -13q-36 0 -60.5 21t-24.5 54q0 28 19.5 46.5t66.5 35.5l112 39v67q0 35 -19.5 54t-54.5 19q-15 0 -28.5 -3.5t-22.5 -9.5q-10 -7 -14 -14.5t-4 -21.5q0 -5 2 -15t6 -22q-8 -5 -19.5 -8t-18.5 -3q-11 0 -18 7.5t-7 19.5q0 32 57.5 71.5
t106.5 39.5q46 0 77 -24.5t31 -60.5v-200q0 -22 7 -32t23 -10q7 0 15 1.5t17 4.5l5 -12q-27 -20 -51.5 -32t-37.5 -12q-23 0 -35.5 12.5t-15.5 37.5zM96 85q0 -23 14.5 -35t41.5 -12q19 0 35 4.5t32 13.5v111l-70 -29q-32 -14 -42.5 -25t-10.5 -28zM251 480q-8 0 -21 3
t-42 13q-29 9 -42 12t-21 3q-12 0 -20 -6t-15 -22l-19 -45l-17 6l23 57q13 32 24 42t29 10q8 0 21 -3t42 -12q28 -10 41 -13t21 -3q11 0 19 5.5t17 24.5l19 44l17 -7l-22 -55q-13 -33 -24.5 -43.5t-29.5 -10.5z" />
    <glyph glyph-name="abreve" unicode="&#x103;" horiz-adv-x="362"
d="M220 40q-37 -24 -66 -37t-48 -13q-36 0 -60.5 21t-24.5 54q0 28 19.5 46.5t66.5 35.5l112 39v67q0 35 -19.5 54t-54.5 19q-15 0 -28.5 -3.5t-22.5 -9.5q-10 -7 -14 -14.5t-4 -21.5q0 -5 2 -15t6 -22q-8 -5 -19.5 -8t-18.5 -3q-11 0 -18 7.5t-7 19.5q0 32 57.5 71.5
t106.5 39.5q46 0 77 -24.5t31 -60.5v-200q0 -22 7 -32t23 -10q7 0 15 1.5t17 4.5l5 -12q-27 -20 -51.5 -32t-37.5 -12q-23 0 -35.5 12.5t-15.5 37.5zM96 85q0 -23 14.5 -35t41.5 -12q19 0 35 4.5t32 13.5v111l-70 -29q-32 -14 -42.5 -25t-10.5 -28zM187 432
q-51 0 -81.5 39.5t-37.5 116.5l17 1q8 -58 32.5 -85t69.5 -27q44 0 68.5 27t32.5 85l17 -1q-6 -76 -36.5 -116t-81.5 -40z" />
    <glyph glyph-name="amacron" unicode="&#x101;" horiz-adv-x="362"
d="M220 40q-37 -24 -66 -37t-48 -13q-36 0 -60.5 21t-24.5 54q0 28 19.5 46.5t66.5 35.5l112 39v67q0 35 -19.5 54t-54.5 19q-15 0 -28.5 -3.5t-22.5 -9.5q-10 -7 -14 -14.5t-4 -21.5q0 -5 2 -15t6 -22q-8 -5 -19.5 -8t-18.5 -3q-11 0 -18 7.5t-7 19.5q0 32 57.5 71.5
t106.5 39.5q46 0 77 -24.5t31 -60.5v-200q0 -22 7 -32t23 -10q7 0 15 1.5t17 4.5l5 -12q-27 -20 -51.5 -32t-37.5 -12q-23 0 -35.5 12.5t-15.5 37.5zM96 85q0 -23 14.5 -35t41.5 -12q19 0 35 4.5t32 13.5v111l-70 -29q-32 -14 -42.5 -25t-10.5 -28zM311 509h-251v36h251v-36
z" />
    <glyph glyph-name="aogonek" unicode="&#x105;" horiz-adv-x="362"
d="M220 40q-37 -24 -66 -37t-48 -13q-36 0 -60.5 21t-24.5 54q0 28 19.5 46.5t66.5 35.5l112 39v67q0 35 -19.5 54t-54.5 19q-15 0 -28.5 -3.5t-22.5 -9.5q-10 -7 -14 -14.5t-4 -21.5q0 -5 2 -15t6 -22q-8 -5 -19.5 -8t-18.5 -3q-11 0 -18 7.5t-7 19.5q0 32 57.5 71.5
t106.5 39.5q47 0 77.5 -24t30.5 -61v-200q0 -22 7 -32t23 -10q7 0 15 1.5t17 4.5l5 -12q-4 -4 -9 -8l-15 -12q-7 -5 -10.5 -8t-6.5 -5q-41 -32 -60.5 -64t-19.5 -65q0 -27 15.5 -43t41.5 -16q15 0 29 5t27 15l8 -9q-14 -18 -37.5 -31.5t-45.5 -13.5q-36 0 -58.5 20t-22.5 52
t20 64t70 78q-4 -2 -7.5 -2.5t-7.5 -0.5q-23 0 -35.5 12.5t-15.5 37.5zM96 85q0 -23 14.5 -35t41.5 -12q19 0 35 4.5t32 13.5v111l-70 -29q-32 -14 -42.5 -25t-10.5 -28z" />
    <glyph glyph-name="ccedilla" unicode="&#xe7;" horiz-adv-x="365"
d="M289 -143q0 -36 -33 -58t-81 -22q-21 0 -32.5 6.5t-11.5 18.5q0 6 4 12.5t15 16.5q14 -16 28.5 -23.5t32.5 -7.5q20 0 32.5 11t12.5 28q0 11 -6 21.5t-25 26.5q-21 17 -27 28t-6 23q0 10 14.5 25.5t44.5 36.5q-16 -5 -27 -7.5t-19 -2.5q-77 0 -125 50t-48 130
q0 88 59 142.5t146 54.5q42 0 71.5 -12t29.5 -29q0 -7 -8 -20t-21 -26h-5q-38 40 -55 50.5t-35 10.5q-47 0 -75 -37t-28 -100q0 -71 37 -113t100 -42q24 0 47.5 6.5t46.5 19.5l8 -11q-13 -15 -28 -28.5t-28 -23.5q-46 -35 -55 -45.5t-9 -18.5q0 -6 4 -12t18 -18
q22 -18 29.5 -31.5t7.5 -29.5z" />
    <glyph glyph-name="cacute" unicode="&#x107;" horiz-adv-x="366"
d="M205 -10q-77 0 -125 50t-48 130q0 88 59 142.5t146 54.5q44 0 72.5 -12t28.5 -29q0 -8 -8 -20.5t-21 -25.5h-5q-36 38 -54 49.5t-37 11.5q-47 0 -74.5 -37t-27.5 -100q0 -71 37 -113t100 -42q24 0 47.5 6.5t47.5 19.5l8 -11q-28 -29 -71.5 -51.5t-74.5 -22.5zM230 410
l-15 7l63 165q6 17 13 24t15 7t13 -5t5 -13q0 -5 -2 -11t-7 -15z" />
    <glyph glyph-name="ccaron" unicode="&#x10d;" horiz-adv-x="366"
d="M205 -10q-77 0 -125 50t-48 130q0 88 59 142.5t146 54.5q44 0 72.5 -12t28.5 -29q0 -8 -8 -20.5t-21 -25.5h-5q-36 38 -54 49.5t-37 11.5q-47 0 -74.5 -37t-27.5 -100q0 -71 37 -113t100 -42q24 0 47.5 6.5t47.5 19.5l8 -11q-28 -29 -71.5 -51.5t-74.5 -22.5zM193 433
l-86 170l16 10l97 -158h2l97 158l16 -10l-86 -170q-6 -12 -12.5 -17.5t-15.5 -5.5t-15 4.5t-13 18.5z" />
    <glyph glyph-name="ccircumflex" unicode="&#x109;" horiz-adv-x="366"
d="M205 -10q-77 0 -125 50t-48 130q0 88 59 142.5t146 54.5q44 0 72.5 -12t28.5 -29q0 -8 -8 -20.5t-21 -25.5h-5q-36 38 -54 49.5t-37 11.5q-47 0 -74.5 -37t-27.5 -100q0 -71 37 -113t100 -42q24 0 47.5 6.5t47.5 19.5l8 -11q-28 -29 -71.5 -51.5t-74.5 -22.5zM249 590
l88 -170l-16 -10l-99 156h-2l-99 -156l-16 10l88 170q7 13 13.5 18t15.5 5q8 0 14 -4.5t13 -18.5z" />
    <glyph glyph-name="cdotaccent" unicode="&#x10b;" horiz-adv-x="366"
d="M205 -10q-77 0 -125 50t-48 130q0 88 59 142.5t146 54.5q44 0 72.5 -12t28.5 -29q0 -8 -8 -20.5t-21 -25.5h-5q-36 38 -54 49.5t-37 11.5q-47 0 -74.5 -37t-27.5 -100q0 -71 37 -113t100 -42q24 0 47.5 6.5t47.5 19.5l8 -11q-28 -29 -71.5 -51.5t-74.5 -22.5zM267 537
q0 -18 -12 -30.5t-30 -12.5q-19 0 -31 12t-12 31q0 18 12.5 30t30.5 12q17 0 29.5 -12.5t12.5 -29.5z" />
    <glyph glyph-name="dcaron" unicode="&#x10f;" horiz-adv-x="515"
d="M446 27l-127 -35v53q-31 -23 -68 -39t-60 -16q-71 0 -115 47.5t-44 123.5q0 91 58.5 148.5t149.5 57.5q19 0 38 -3t41 -10v233q0 15 -3.5 21t-14.5 11l-24 13v11l114 37l7 -5q-3 -20 -4 -39t-1 -47v-514q0 -13 4 -18.5t20 -9.5l29 -7v-13zM229 344q-56 0 -87.5 -39
t-31.5 -108q0 -72 33.5 -114t90.5 -42q23 0 45.5 6.5t39.5 18.5v182q0 46 -24 71t-66 25zM466 481l-14 2l17 167q2 19 8 27.5t16 8.5q8 0 12.5 -5t4.5 -13q0 -3 -0.5 -7.5t-3.5 -18.5z" />
    <glyph glyph-name="dcroat" unicode="&#x111;" horiz-adv-x="461"
d="M446 27l-127 -35v53q-31 -23 -68 -39t-60 -16q-71 0 -115 47.5t-44 123.5q0 91 58.5 148.5t149.5 57.5q19 0 38 -3t41 -10v135h-104v25h104v73q0 15 -3.5 21t-14.5 11l-24 13v11l114 37l7 -5q-3 -20 -4 -39t-1 -47v-75h53v-25h-53v-414q0 -13 4 -18.5t20 -9.5l29 -7v-13z
M229 344q-56 0 -87.5 -39t-31.5 -108q0 -72 33.5 -114t90.5 -42q23 0 45.5 6.5t39.5 18.5v182q0 46 -24 71t-66 25z" />
    <glyph glyph-name="eacute" unicode="&#xe9;" horiz-adv-x="381"
d="M211 -10q-81 0 -130 51t-49 135t52.5 137.5t128.5 53.5q63 0 101 -32t41 -89l-4 -10h-243q-1 -4 -1 -9.5v-16.5q0 -76 37 -118.5t104 -42.5q26 0 51.5 6.5t49.5 19.5l8 -11q-26 -30 -70 -52t-76 -22zM279 275q0 30 -21 50t-53 20q-36 0 -60 -22.5t-33 -64.5h149
q11 0 14.5 3.5t3.5 13.5zM234 410l-15 7l63 165q6 17 13 24t15 7t13 -5t5 -13q0 -5 -2 -11t-7 -15z" />
    <glyph glyph-name="ecircumflex" unicode="&#xea;" horiz-adv-x="381"
d="M211 -10q-81 0 -130 51t-49 135t52.5 137.5t128.5 53.5q63 0 101 -32t41 -89l-4 -10h-243q-1 -4 -1 -9.5v-16.5q0 -76 37 -118.5t104 -42.5q26 0 51.5 6.5t49.5 19.5l8 -11q-26 -30 -70 -52t-76 -22zM279 275q0 30 -21 50t-53 20q-36 0 -60 -22.5t-33 -64.5h149
q11 0 14.5 3.5t3.5 13.5zM253 590l88 -170l-16 -10l-99 156h-2l-99 -156l-16 10l88 170q7 13 13.5 18t15.5 5q8 0 14 -4.5t13 -18.5z" />
    <glyph glyph-name="edieresis" unicode="&#xeb;" horiz-adv-x="381"
d="M211 -10q-81 0 -130 51t-49 135t52.5 137.5t128.5 53.5q63 0 101 -32t41 -89l-4 -10h-243q-1 -4 -1 -9.5v-16.5q0 -76 37 -118.5t104 -42.5q26 0 51.5 6.5t49.5 19.5l8 -11q-26 -30 -70 -52t-76 -22zM279 275q0 30 -21 50t-53 20q-36 0 -60 -22.5t-33 -64.5h149
q11 0 14.5 3.5t3.5 13.5zM180 537q0 -18 -12 -30.5t-30 -12.5q-19 0 -31 12t-12 31q0 18 12.5 30t30.5 12q17 0 29.5 -12.5t12.5 -29.5zM334 537q0 -19 -12 -31t-30 -12q-19 0 -30.5 12t-11.5 31q0 18 12 30t30 12t30 -12t12 -30z" />
    <glyph glyph-name="egrave" unicode="&#xe8;" horiz-adv-x="381"
d="M211 -10q-81 0 -130 51t-49 135t52.5 137.5t128.5 53.5q63 0 101 -32t41 -89l-4 -10h-243q-1 -4 -1 -9.5v-16.5q0 -76 37 -118.5t104 -42.5q26 0 51.5 6.5t49.5 19.5l8 -11q-26 -30 -70 -52t-76 -22zM279 275q0 30 -21 50t-53 20q-36 0 -60 -22.5t-33 -64.5h149
q11 0 14.5 3.5t3.5 13.5zM170 582l63 -165l-15 -7l-85 159q-5 9 -7 15t-2 11q0 8 5.5 13t13.5 5t14.5 -7.5t12.5 -23.5z" />
    <glyph glyph-name="ebreve" unicode="&#x115;" horiz-adv-x="381"
d="M211 -10q-81 0 -130 51t-49 135t52.5 137.5t128.5 53.5q63 0 101 -32t41 -89l-4 -10h-243q-1 -4 -1 -9.5v-16.5q0 -76 37 -118.5t104 -42.5q26 0 51.5 6.5t49.5 19.5l8 -11q-26 -30 -70 -52t-76 -22zM279 275q0 30 -21 50t-53 20q-36 0 -60 -22.5t-33 -64.5h149
q11 0 14.5 3.5t3.5 13.5zM228 432q-51 0 -81.5 39.5t-37.5 116.5l17 1q8 -58 32.5 -85t69.5 -27q44 0 68.5 27t32.5 85l17 -1q-6 -76 -36.5 -116t-81.5 -40z" />
    <glyph glyph-name="ecaron" unicode="&#x11b;" horiz-adv-x="381"
d="M211 -10q-81 0 -130 51t-49 135t52.5 137.5t128.5 53.5q63 0 101 -32t41 -89l-4 -10h-243q-1 -4 -1 -9.5v-16.5q0 -76 37 -118.5t104 -42.5q26 0 51.5 6.5t49.5 19.5l8 -11q-26 -30 -70 -52t-76 -22zM279 275q0 30 -21 50t-53 20q-36 0 -60 -22.5t-33 -64.5h149
q11 0 14.5 3.5t3.5 13.5zM197 433l-86 170l16 10l97 -158h2l97 158l16 -10l-86 -170q-6 -12 -12.5 -17.5t-15.5 -5.5t-15 4.5t-13 18.5z" />
    <glyph glyph-name="edotaccent" unicode="&#x117;" horiz-adv-x="381"
d="M211 -10q-81 0 -130 51t-49 135t52.5 137.5t128.5 53.5q63 0 101 -32t41 -89l-4 -10h-243q-1 -4 -1 -9.5v-16.5q0 -76 37 -118.5t104 -42.5q26 0 51.5 6.5t49.5 19.5l8 -11q-26 -30 -70 -52t-76 -22zM279 275q0 30 -21 50t-53 20q-36 0 -60 -22.5t-33 -64.5h149
q11 0 14.5 3.5t3.5 13.5zM271 537q0 -18 -12 -30.5t-30 -12.5q-19 0 -31 12t-12 31q0 18 12.5 30t30.5 12q17 0 29.5 -12.5t12.5 -29.5z" />
    <glyph glyph-name="emacron" unicode="&#x113;" horiz-adv-x="381"
d="M211 -10q-81 0 -130 51t-49 135t52.5 137.5t128.5 53.5q63 0 101 -32t41 -89l-4 -10h-243q-1 -4 -1 -9.5v-16.5q0 -76 37 -118.5t104 -42.5q26 0 51.5 6.5t49.5 19.5l8 -11q-26 -30 -70 -52t-76 -22zM279 275q0 30 -21 50t-53 20q-36 0 -60 -22.5t-33 -64.5h149
q11 0 14.5 3.5t3.5 13.5zM352 509h-251v36h251v-36z" />
    <glyph glyph-name="eogonek" unicode="&#x119;" horiz-adv-x="381"
d="M269 -221q-36 0 -59 21t-23 55q0 33 23.5 71t72.5 85q-18 -10 -37.5 -15.5t-34.5 -5.5q-81 0 -130 51t-49 135t52.5 137.5t128.5 53.5q63 0 101 -32t41 -89l-4 -10h-243q-1 -4 -1 -9.5v-16.5q0 -76 37 -118.5t104 -42.5q26 0 51.5 6.5t49.5 19.5l8 -11q-5 -5 -10.5 -10
t-14.5 -15q-13 -12 -20 -19l-14 -14q-35 -38 -51.5 -71t-16.5 -62q0 -27 15.5 -43.5t41.5 -16.5q15 0 29 5t27 15l8 -9q-14 -18 -37.5 -31.5t-44.5 -13.5zM279 275q0 30 -21 50t-53 20q-36 0 -60 -22.5t-33 -64.5h149q11 0 14.5 3.5t3.5 13.5z" />
    <glyph glyph-name="gbreve" unicode="&#x11f;" horiz-adv-x="415"
d="M352 230q0 -57 -45.5 -94.5t-108.5 -37.5q-17 0 -32.5 2.5t-30.5 7.5q-23 -22 -31 -33.5t-8 -24.5q0 -18 12.5 -28t36.5 -10h165q47 0 73 -27t26 -73q0 -78 -69.5 -135t-163.5 -57q-65 0 -108 34t-43 85q0 17 14 34t73 74q-35 4 -55.5 24t-20.5 50q0 14 16.5 33.5
t61.5 62.5q-35 17 -54 46t-19 67q0 59 46.5 98t110.5 39q9 0 18.5 -1t21.5 -4q7 -1 32 -8t47 -7h93v-38h-86q14 -17 21 -37t7 -42zM117 237q0 -52 23.5 -85t60.5 -33t57 27.5t20 78.5q0 56 -22.5 88.5t-61.5 32.5q-35 0 -56 -29.5t-21 -79.5zM93 -141q0 -48 32.5 -75.5
t91.5 -27.5q61 0 101.5 34t40.5 85q0 35 -19.5 53t-57.5 18h-143q-26 -25 -36 -44t-10 -43zM227 432q-51 0 -81.5 39.5t-37.5 116.5l17 1q8 -58 32.5 -85t69.5 -27q44 0 68.5 27t32.5 85l17 -1q-6 -76 -36.5 -116t-81.5 -40z" />
    <glyph glyph-name="gcircumflex" unicode="&#x11d;" horiz-adv-x="415"
d="M352 230q0 -57 -45.5 -94.5t-108.5 -37.5q-17 0 -32.5 2.5t-30.5 7.5q-23 -22 -31 -33.5t-8 -24.5q0 -18 12.5 -28t36.5 -10h165q47 0 73 -27t26 -73q0 -78 -69.5 -135t-163.5 -57q-65 0 -108 34t-43 85q0 17 14 34t73 74q-35 4 -55.5 24t-20.5 50q0 14 16.5 33.5
t61.5 62.5q-35 17 -54 46t-19 67q0 59 46.5 98t110.5 39q9 0 18.5 -1t21.5 -4q7 -1 32 -8t47 -7h93v-38h-86q14 -17 21 -37t7 -42zM117 237q0 -52 23.5 -85t60.5 -33t57 27.5t20 78.5q0 56 -22.5 88.5t-61.5 32.5q-35 0 -56 -29.5t-21 -79.5zM93 -141q0 -48 32.5 -75.5
t91.5 -27.5q61 0 101.5 34t40.5 85q0 35 -19.5 53t-57.5 18h-143q-26 -25 -36 -44t-10 -43zM252 590l88 -170l-16 -10l-99 156h-2l-99 -156l-16 10l88 170q7 13 13.5 18t15.5 5q8 0 14 -4.5t13 -18.5z" />
    <glyph glyph-name="gcommaaccent" unicode="&#x123;" horiz-adv-x="415"
d="M352 230q0 -57 -45.5 -94.5t-108.5 -37.5q-17 0 -32.5 2.5t-30.5 7.5q-23 -22 -31 -33.5t-8 -24.5q0 -18 12.5 -28t36.5 -10h165q47 0 73 -27t26 -73q0 -78 -69.5 -135t-163.5 -57q-65 0 -108 34t-43 85q0 17 14 34t73 74q-35 4 -55.5 24t-20.5 50q0 14 16.5 33.5
t61.5 62.5q-35 17 -54 46t-19 67q0 59 46.5 98t110.5 39q9 0 18.5 -1t21.5 -4q7 -1 32 -8t47 -7h93v-38h-86q14 -17 21 -37t7 -42zM117 237q0 -52 23.5 -85t60.5 -33t57 27.5t20 78.5q0 56 -22.5 88.5t-61.5 32.5q-35 0 -56 -29.5t-21 -79.5zM93 -141q0 -48 32.5 -75.5
t91.5 -27.5q61 0 101.5 34t40.5 85q0 35 -19.5 53t-57.5 18h-143q-26 -25 -36 -44t-10 -43zM171 487q0 41 27 70t79 44l6 -17q-38 -12 -58.5 -29.5t-20.5 -39.5q0 -16 12 -26.5t54 -24.5q-8 -22 -18 -30.5t-26 -8.5q-25 0 -40 17t-15 45z" />
    <glyph glyph-name="gdotaccent" unicode="&#x121;" horiz-adv-x="415"
d="M352 230q0 -57 -45.5 -94.5t-108.5 -37.5q-17 0 -32.5 2.5t-30.5 7.5q-23 -22 -31 -33.5t-8 -24.5q0 -18 12.5 -28t36.5 -10h165q47 0 73 -27t26 -73q0 -78 -69.5 -135t-163.5 -57q-65 0 -108 34t-43 85q0 17 14 34t73 74q-35 4 -55.5 24t-20.5 50q0 14 16.5 33.5
t61.5 62.5q-35 17 -54 46t-19 67q0 59 46.5 98t110.5 39q9 0 18.5 -1t21.5 -4q7 -1 32 -8t47 -7h93v-38h-86q14 -17 21 -37t7 -42zM117 237q0 -52 23.5 -85t60.5 -33t57 27.5t20 78.5q0 56 -22.5 88.5t-61.5 32.5q-35 0 -56 -29.5t-21 -79.5zM93 -141q0 -48 32.5 -75.5
t91.5 -27.5q61 0 101.5 34t40.5 85q0 35 -19.5 53t-57.5 18h-143q-26 -25 -36 -44t-10 -43zM270 537q0 -18 -12 -30.5t-30 -12.5q-19 0 -31 12t-12 31q0 18 12.5 30t30.5 12q17 0 29.5 -12.5t12.5 -29.5z" />
    <glyph glyph-name="hbar" unicode="&#x127;" horiz-adv-x="445"
d="M194 14v-14h-179v14l28 7q14 3 19 10t5 24v434h-46v25h46v73q0 15 -3.5 21t-13.5 11l-25 13v11l114 37l7 -5q-3 -20 -4 -39t-1 -47v-75h108v-25h-108v-176q31 22 66.5 38t55.5 16q55 0 85.5 -31.5t30.5 -89.5v-191q0 -17 5 -24t19 -10l29 -7v-14h-179v14l28 7q14 3 19 10
t5 24v172q0 46 -19.5 68t-60.5 22q-21 0 -42.5 -6.5t-41.5 -19.5v-236q0 -17 5 -24t19 -10z" />
    <glyph glyph-name="hcircumflex" unicode="&#x125;" horiz-adv-x="462"
d="M210 14v-14h-179v14l28 7q14 3 19 10t5 24v532q0 15 -3.5 21t-13.5 11l-25 13v11l114 37l7 -5q-3 -20 -4 -39t-1 -47v-276q31 22 66.5 38t55.5 16q55 0 85.5 -31.5t30.5 -89.5v-191q0 -17 5 -24t19 -10l29 -7v-14h-179v14l28 7q14 3 19 10t5 24v172q0 46 -19.5 68
t-60.5 22q-21 0 -42.5 -6.5t-41.5 -19.5v-236q0 -17 5 -24t19 -10zM153 847l80 -115l-16 -10l-92 104h-1l-93 -104l-16 10l80 115q9 13 14.5 17t14.5 4q8 0 14 -4.5t15 -16.5z" />
    <glyph glyph-name="iacute" unicode="&#xed;" horiz-adv-x="213"
d="M199 14v-14h-181v14l29 7q14 3 19 10t5 24v220q0 14 -3.5 20.5t-13.5 11.5l-25 13v11l113 36l8 -4q-3 -17 -4 -33t-1 -53v-222q0 -17 5 -24t19 -10zM122 410l-15 7l63 165q6 17 13 24t15 7t13 -5t5 -13q0 -5 -2 -11t-7 -15z" />
    <glyph glyph-name="icircumflex" unicode="&#xee;" horiz-adv-x="213"
d="M199 14v-14h-181v14l29 7q14 3 19 10t5 24v220q0 14 -3.5 20.5t-13.5 11.5l-25 13v11l113 36l8 -4q-3 -17 -4 -33t-1 -53v-222q0 -17 5 -24t19 -10zM145 590l88 -170l-16 -10l-99 156h-2l-99 -156l-16 10l88 170q7 13 13.5 18t15.5 5q8 0 14 -4.5t13 -18.5z" />
    <glyph glyph-name="idieresis" unicode="&#xef;" horiz-adv-x="213"
d="M199 14v-14h-181v14l29 7q14 3 19 10t5 24v220q0 14 -3.5 20.5t-13.5 11.5l-25 13v11l113 36l8 -4q-3 -17 -4 -33t-1 -53v-222q0 -17 5 -24t19 -10zM77 537q0 -18 -12 -30.5t-30 -12.5q-19 0 -31 12t-12 31q0 18 12.5 30t30.5 12q17 0 29.5 -12.5t12.5 -29.5zM231 537
q0 -19 -12 -31t-30 -12q-19 0 -30.5 12t-11.5 31q0 18 12 30t30 12t30 -12t12 -30z" />
    <glyph glyph-name="igrave" unicode="&#xec;" horiz-adv-x="213"
d="M199 14v-14h-181v14l29 7q14 3 19 10t5 24v220q0 14 -3.5 20.5t-13.5 11.5l-25 13v11l113 36l8 -4q-3 -17 -4 -33t-1 -53v-222q0 -17 5 -24t19 -10zM51 582l63 -165l-15 -7l-85 159q-5 9 -7 15t-2 11q0 8 5.5 13t13.5 5t14.5 -7.5t12.5 -23.5z" />
    <glyph glyph-name="ibreve" unicode="&#x12d;" horiz-adv-x="213"
d="M199 14v-14h-181v14l29 7q14 3 19 10t5 24v220q0 14 -3.5 20.5t-13.5 11.5l-25 13v11l113 36l8 -4q-3 -17 -4 -33t-1 -53v-222q0 -17 5 -24t19 -10zM112 432q-51 0 -81.5 39.5t-37.5 116.5l17 1q8 -58 32.5 -85t69.5 -27q44 0 68.5 27t32.5 85l17 -1q-6 -76 -36.5 -116
t-81.5 -40z" />
    <glyph glyph-name="i.dot" horiz-adv-x="213"
d="M160 537q0 -18 -12.5 -30.5t-30.5 -12.5t-30 12t-12 31q0 18 12 30t30 12t30.5 -12.5t12.5 -29.5zM198 14v-14h-180v14l29 7q14 3 19 10t5 24v220q0 14 -3.5 20.5t-13.5 11.5l-25 13v11l113 36l8 -4q-3 -17 -4 -33t-1 -53v-222q0 -17 5 -24t19 -10z" />
    <glyph glyph-name="imacron" unicode="&#x12b;" horiz-adv-x="213"
d="M199 14v-14h-181v14l29 7q14 3 19 10t5 24v220q0 14 -3.5 20.5t-13.5 11.5l-25 13v11l113 36l8 -4q-3 -17 -4 -33t-1 -53v-222q0 -17 5 -24t19 -10zM236 509h-251v36h251v-36z" />
    <glyph glyph-name="iogonek" unicode="&#x12f;" horiz-adv-x="213"
d="M160 537q0 -18 -12.5 -30.5t-30.5 -12.5t-30 12t-12 31q0 18 12 30t30 12t30.5 -12.5t12.5 -29.5zM198 14v-14h-50q-34 -41 -48 -69.5t-14 -57.5q0 -28 15 -44t42 -16q15 0 29 5t27 15l7 -9q-14 -18 -37.5 -31.5t-44.5 -13.5q-36 0 -59 20.5t-23 53.5q0 28 16 58.5
t68 88.5h-108v14l29 7q14 3 19 10t5 24v220q0 14 -3.5 20.5t-13.5 11.5l-25 13v11l113 36l8 -4q-3 -17 -4 -33t-1 -53v-222q0 -17 5 -24t19 -10z" />
    <glyph glyph-name="itilde" unicode="&#x129;" horiz-adv-x="213"
d="M199 14v-14h-181v14l29 7q14 3 19 10t5 24v220q0 14 -3.5 20.5t-13.5 11.5l-25 13v11l113 36l8 -4q-3 -17 -4 -33t-1 -53v-222q0 -17 5 -24t19 -10zM175 480q-8 0 -21 3t-42 13q-29 9 -42 12t-21 3q-12 0 -20 -6t-15 -22l-19 -45l-17 6l23 57q13 32 24 42t29 10
q8 0 21 -3t42 -12q28 -10 41 -13t21 -3q11 0 19 5.5t17 24.5l19 44l17 -7l-22 -55q-13 -33 -24.5 -43.5t-29.5 -10.5z" />
    <glyph glyph-name="jcircumflex" unicode="&#x135;" horiz-adv-x="196"
d="M138 277v-354q0 -33 -31.5 -64.5t-98.5 -64.5l-7 13q38 27 51 53t13 70v345q0 13 -4 20t-14 12l-24 13v11l113 36l7 -4q-3 -21 -4 -39.5t-1 -46.5zM140 590l88 -170l-16 -10l-99 156h-2l-99 -156l-16 10l88 170q7 13 13.5 18t15.5 5q8 0 14 -4.5t13 -18.5z" />
    <glyph glyph-name="ij" unicode="&#x133;" horiz-adv-x="412"
d="M160 537q0 -18 -12.5 -30.5t-30.5 -12.5t-30 12t-12 31q0 18 12 30t30 12t30.5 -12.5t12.5 -29.5zM198 14v-14h-180v14l29 7q14 3 19 10t5 24v220q0 14 -3.5 20.5t-13.5 11.5l-25 13v11l113 36l8 -4q-3 -17 -4 -33t-1 -53v-222q0 -17 5 -24t19 -10zM369 537
q0 -19 -12 -31t-30 -12q-19 0 -30.5 12t-11.5 31q0 18 12 30t30 12t30 -12t12 -30zM353 277v-358q0 -33 -31.5 -64.5t-98.5 -65.5l-8 14q38 26 51 52t13 71v349q0 14 -3.5 20.5t-13.5 11.5l-25 13v11l114 36l7 -4q-3 -21 -4 -39.5t-1 -46.5z" />
    <glyph glyph-name="kcommaaccent" unicode="&#x137;" horiz-adv-x="442"
d="M194 14v-14h-180v14l29 7q14 3 19 10t5 24v532q0 14 -3.5 20.5t-13.5 11.5l-25 13v11l114 37l7 -5q-3 -20 -4 -39t-1 -47v-534q0 -17 5 -24t19 -10zM413 20l27 -6v-14h-188v14l34 6q9 2 10.5 6t-3.5 11l-136 159v6l140 116q5 5 3.5 9.5t-9.5 6.5l-48 9v14h181v-14
l-48 -10q-11 -2 -18 -5t-15 -9l-119 -89l153 -185q11 -12 19 -17t17 -8zM274 -109q0 -40 -27.5 -69.5t-79.5 -43.5l-5 17q39 12 59 29t20 39q0 16 -13 27t-53 25q8 22 18 30t26 8q25 0 40 -17t15 -45z" />
    <glyph glyph-name="kgreenlandic" unicode="&#x138;" horiz-adv-x="442"
d="M199 14v-14h-181v14l30 7q14 3 19 10t5 24v220q0 14 -4 20.5t-14 11.5l-24 13v11l113 36l8 -4q-3 -23 -4 -34.5t-1 -25.5v-248q0 -17 5 -24t19 -10zM444 14v-14h-188v14l34 6q10 2 12 6t-5 11l-136 139v6l140 136q5 5 3.5 9.5t-8.5 6.5l-49 9v14h181v-14l-48 -10
q-11 -2 -18 -5t-15 -9l-122 -105l157 -169q11 -12 19 -17t17 -8z" />
    <glyph glyph-name="lacute" unicode="&#x13a;" horiz-adv-x="210"
d="M194 14v-14h-179v14l28 7q14 3 19 10t5 24v532q0 14 -3.5 20.5t-13.5 11.5l-25 13v11l114 37l7 -5q-3 -20 -4 -39t-1 -47v-534q0 -17 5 -24t19 -10zM111 722l-16 7l38 109q7 16 13 23t14 7t13 -4.5t5 -12.5q0 -4 -2 -9.5t-7 -16.5z" />
    <glyph glyph-name="lcaron" unicode="&#x13e;" horiz-adv-x="260"
d="M194 14v-14h-179v14l28 7q14 3 19 10t5 24v532q0 14 -3.5 20.5t-13.5 11.5l-25 13v11l114 37l7 -5q-3 -20 -4 -39t-1 -47v-534q0 -17 5 -24t19 -10zM213 481l-14 2l17 167q2 19 8 27.5t16 8.5q8 0 12.5 -5t4.5 -13q0 -3 -0.5 -7.5t-3.5 -18.5z" />
    <glyph glyph-name="lcommaaccent" unicode="&#x13c;" horiz-adv-x="210"
d="M194 14v-14h-179v14l28 7q14 3 19 10t5 24v532q0 14 -3.5 20.5t-13.5 11.5l-25 13v11l114 37l7 -5q-3 -20 -4 -39t-1 -47v-534q0 -17 5 -24t19 -10zM156 -109q0 -40 -27.5 -69.5t-79.5 -43.5l-5 17q39 12 59 29t20 39q0 16 -13 27t-53 25q8 22 18 30t26 8q25 0 40 -17
t15 -45z" />
    <glyph glyph-name="ldot" unicode="&#x140;" horiz-adv-x="288"
d="M194 14v-14h-179v14l28 7q14 3 19 10t5 24v532q0 14 -3.5 20.5t-13.5 11.5l-25 13v11l114 37l7 -5q-3 -20 -4 -39t-1 -47v-534q0 -17 5 -24t19 -10zM293 293q0 -19 -13 -32t-32 -13t-32 13t-13 32t13 32.5t32 13.5t32 -13.5t13 -32.5z" />
    <glyph glyph-name="ntilde" unicode="&#xf1;" horiz-adv-x="449"
d="M198 14v-14h-180v14l29 7q14 3 19 10t5 24v220q0 14 -3.5 20.5t-13.5 11.5l-25 13v11l113 36l8 -4q-2 -11 -3 -22t-2 -28q30 22 65.5 38t55.5 16q55 0 86 -31.5t31 -89.5v-191q0 -17 5 -24t19 -10l29 -7v-14h-180v14l29 7q14 3 19 10t5 24v172q0 46 -19.5 68t-61.5 22
q-20 0 -41.5 -6.5t-41.5 -19.5v-236q0 -17 5 -24t19 -10zM293 480q-8 0 -21 3t-42 13q-29 9 -42 12t-21 3q-12 0 -20 -6t-15 -22l-19 -45l-17 6l23 57q13 32 24 42t29 10q8 0 21 -3t42 -12q28 -10 41 -13t21 -3q11 0 19 5.5t17 24.5l19 44l17 -7l-22 -55
q-13 -33 -24.5 -43.5t-29.5 -10.5z" />
    <glyph glyph-name="nacute" unicode="&#x144;" horiz-adv-x="449"
d="M198 14v-14h-180v14l29 7q14 3 19 10t5 24v220q0 14 -3.5 20.5t-13.5 11.5l-25 13v11l113 36l8 -4q-2 -11 -3 -22t-2 -28q30 22 65.5 38t55.5 16q55 0 86 -31.5t31 -89.5v-191q0 -17 5 -24t19 -10l29 -7v-14h-180v14l29 7q14 3 19 10t5 24v172q0 46 -19.5 68t-61.5 22
q-20 0 -41.5 -6.5t-41.5 -19.5v-236q0 -17 5 -24t19 -10zM237 410l-15 7l63 165q6 17 13 24t15 7t13 -5t5 -13q0 -5 -2 -11t-7 -15z" />
    <glyph glyph-name="ncaron" unicode="&#x148;" horiz-adv-x="449"
d="M198 14v-14h-180v14l29 7q14 3 19 10t5 24v220q0 14 -3.5 20.5t-13.5 11.5l-25 13v11l113 36l8 -4q-2 -11 -3 -22t-2 -28q30 22 65.5 38t55.5 16q55 0 86 -31.5t31 -89.5v-191q0 -17 5 -24t19 -10l29 -7v-14h-180v14l29 7q14 3 19 10t5 24v172q0 46 -19.5 68t-61.5 22
q-20 0 -41.5 -6.5t-41.5 -19.5v-236q0 -17 5 -24t19 -10zM200 433l-86 170l16 10l97 -158h2l97 158l16 -10l-86 -170q-6 -12 -12.5 -17.5t-15.5 -5.5t-15 4.5t-13 18.5z" />
    <glyph glyph-name="ncommaaccent" unicode="&#x146;" horiz-adv-x="449"
d="M198 14v-14h-180v14l29 7q14 3 19 10t5 24v220q0 14 -3.5 20.5t-13.5 11.5l-25 13v11l113 36l8 -4q-2 -11 -3 -22t-2 -28q30 22 65.5 38t55.5 16q55 0 86 -31.5t31 -89.5v-191q0 -17 5 -24t19 -10l29 -7v-14h-180v14l29 7q14 3 19 10t5 24v172q0 46 -19.5 68t-61.5 22
q-20 0 -41.5 -6.5t-41.5 -19.5v-236q0 -17 5 -24t19 -10zM279 -109q0 -40 -27.5 -69.5t-79.5 -43.5l-5 17q39 12 59 29t20 39q0 16 -13 27t-53 25q8 22 18 30t26 8q25 0 40 -17t15 -45z" />
    <glyph glyph-name="eng" unicode="&#x14b;" horiz-adv-x="441"
d="M198 14v-14h-180v14l29 7q14 3 19 10t5 24v220q0 14 -3.5 20.5t-13.5 11.5l-25 13v11l113 36l8 -4q-2 -11 -3 -22t-2 -28q30 22 65.5 38t55.5 16q55 0 86 -31.5t31 -89.5v-327q0 -33 -31 -64.5t-99 -65.5l-8 14q38 27 51 53t13 70v301q0 46 -19.5 68t-61.5 22
q-20 0 -41.5 -6.5t-41.5 -19.5v-236q0 -17 5 -24t19 -10z" />
    <glyph glyph-name="napostrophe" unicode="&#x149;" horiz-adv-x="449"
d="M139 498q0 -40 -27.5 -69.5t-79.5 -43.5l-5 17q39 12 59 29t20 39q0 16 -13 27t-53 25q8 22 18 30t26 8q25 0 40 -17t15 -45zM198 14v-14h-180v14l29 7q14 3 19 10t5 24v220q0 14 -3.5 20.5t-13.5 11.5l-25 13v11l113 36l8 -4q-2 -11 -3 -22t-2 -28q30 22 65.5 38
t55.5 16q55 0 86 -31.5t31 -89.5v-191q0 -17 5 -24t19 -10l29 -7v-14h-180v14l29 7q14 3 19 10t5 24v172q0 46 -19.5 68t-61.5 22q-20 0 -41.5 -6.5t-41.5 -19.5v-236q0 -17 5 -24t19 -10z" />
    <glyph glyph-name="oacute" unicode="&#xf3;" horiz-adv-x="455"
d="M423 181q0 -81 -58 -136t-137 -55q-89 0 -142.5 49.5t-53.5 136.5q0 81 58 136t138 55q88 0 141.5 -50t53.5 -136zM114 185q0 -79 31.5 -125.5t86.5 -46.5q51 0 79.5 42t28.5 117q0 79 -31.5 125.5t-85.5 46.5q-52 0 -80.5 -41.5t-28.5 -117.5zM237 410l-15 7l63 165
q6 17 13 24t15 7t13 -5t5 -13q0 -5 -2 -11t-7 -15z" />
    <glyph glyph-name="ocircumflex" unicode="&#xf4;" horiz-adv-x="455"
d="M423 181q0 -81 -58 -136t-137 -55q-89 0 -142.5 49.5t-53.5 136.5q0 81 58 136t138 55q88 0 141.5 -50t53.5 -136zM114 185q0 -79 31.5 -125.5t86.5 -46.5q51 0 79.5 42t28.5 117q0 79 -31.5 125.5t-85.5 46.5q-52 0 -80.5 -41.5t-28.5 -117.5zM256 590l88 -170l-16 -10
l-99 156h-2l-99 -156l-16 10l88 170q7 13 13.5 18t15.5 5q8 0 14 -4.5t13 -18.5z" />
    <glyph glyph-name="odieresis" unicode="&#xf6;" horiz-adv-x="455"
d="M423 181q0 -81 -58 -136t-137 -55q-89 0 -142.5 49.5t-53.5 136.5q0 81 58 136t138 55q88 0 141.5 -50t53.5 -136zM114 185q0 -79 31.5 -125.5t86.5 -46.5q51 0 79.5 42t28.5 117q0 79 -31.5 125.5t-85.5 46.5q-52 0 -80.5 -41.5t-28.5 -117.5zM196 537q0 -18 -12 -30.5
t-30 -12.5q-19 0 -31 12t-12 31q0 18 12.5 30t30.5 12q17 0 29.5 -12.5t12.5 -29.5zM350 537q0 -19 -12 -31t-30 -12q-19 0 -30.5 12t-11.5 31q0 18 12 30t30 12t30 -12t12 -30z" />
    <glyph glyph-name="ograve" unicode="&#xf2;" horiz-adv-x="455"
d="M423 181q0 -81 -58 -136t-137 -55q-89 0 -142.5 49.5t-53.5 136.5q0 81 58 136t138 55q88 0 141.5 -50t53.5 -136zM114 185q0 -79 31.5 -125.5t86.5 -46.5q51 0 79.5 42t28.5 117q0 79 -31.5 125.5t-85.5 46.5q-52 0 -80.5 -41.5t-28.5 -117.5zM174 582l63 -165l-15 -7
l-85 159q-5 9 -7 15t-2 11q0 8 5.5 13t13.5 5t14.5 -7.5t12.5 -23.5z" />
    <glyph glyph-name="otilde" unicode="&#xf5;" horiz-adv-x="455"
d="M423 181q0 -81 -58 -136t-137 -55q-89 0 -142.5 49.5t-53.5 136.5q0 81 58 136t138 55q88 0 141.5 -50t53.5 -136zM114 185q0 -79 31.5 -125.5t86.5 -46.5q51 0 79.5 42t28.5 117q0 79 -31.5 125.5t-85.5 46.5q-52 0 -80.5 -41.5t-28.5 -117.5zM294 480q-8 0 -21 3
t-42 13q-29 9 -42 12t-21 3q-12 0 -20 -6t-15 -22l-19 -45l-17 6l23 57q13 32 24 42t29 10q8 0 21 -3t42 -12q28 -10 41 -13t21 -3q11 0 19 5.5t17 24.5l19 44l17 -7l-22 -55q-13 -33 -24.5 -43.5t-29.5 -10.5z" />
    <glyph glyph-name="obreve" unicode="&#x14f;" horiz-adv-x="455"
d="M423 181q0 -81 -58 -136t-137 -55q-89 0 -142.5 49.5t-53.5 136.5q0 81 58 136t138 55q88 0 141.5 -50t53.5 -136zM114 185q0 -79 31.5 -125.5t86.5 -46.5q51 0 79.5 42t28.5 117q0 79 -31.5 125.5t-85.5 46.5q-52 0 -80.5 -41.5t-28.5 -117.5zM231 432q-51 0 -81.5 39.5
t-37.5 116.5l17 1q8 -58 32.5 -85t69.5 -27q44 0 68.5 27t32.5 85l17 -1q-6 -76 -36.5 -116t-81.5 -40z" />
    <glyph glyph-name="ohungarumlaut" unicode="&#x151;" horiz-adv-x="455"
d="M423 181q0 -81 -58 -136t-137 -55q-89 0 -142.5 49.5t-53.5 136.5q0 81 58 136t138 55q88 0 141.5 -50t53.5 -136zM114 185q0 -79 31.5 -125.5t86.5 -46.5q51 0 79.5 42t28.5 117q0 79 -31.5 125.5t-85.5 46.5q-52 0 -80.5 -41.5t-28.5 -117.5zM183 410l-16 7l46 165
q4 16 10.5 23.5t15.5 7.5q8 0 13 -4.5t5 -12.5q0 -3 -1.5 -8t-7.5 -19zM297 410l-16 7l46 165q4 16 10.5 23.5t15.5 7.5q8 0 13 -4.5t5 -12.5q0 -3 -1.5 -8t-7.5 -19z" />
    <glyph glyph-name="omacron" unicode="&#x14d;" horiz-adv-x="455"
d="M423 181q0 -81 -58 -136t-137 -55q-89 0 -142.5 49.5t-53.5 136.5q0 81 58 136t138 55q88 0 141.5 -50t53.5 -136zM114 185q0 -79 31.5 -125.5t86.5 -46.5q51 0 79.5 42t28.5 117q0 79 -31.5 125.5t-85.5 46.5q-52 0 -80.5 -41.5t-28.5 -117.5zM356 509h-251v36h251v-36z
" />
    <glyph glyph-name="racute" unicode="&#x155;" horiz-adv-x="295"
d="M218 14v-14h-200v14l29 7q14 3 19 10t5 24v220q0 14 -3.5 20.5t-13.5 11.5l-25 13v11l113 36l8 -4q-3 -18 -4 -32t-1 -35q35 33 63.5 52t44.5 19q13 0 22 -7.5t9 -19.5q0 -8 -4 -22.5t-12 -31.5l-4 -1q-25 7 -36 9.5t-18 2.5q-18 0 -34 -5t-31 -16v-221q0 -17 4.5 -23.5
t19.5 -8.5zM191 410l-15 7l63 165q6 17 13 24t15 7t13 -5t5 -13q0 -5 -2 -11t-7 -15z" />
    <glyph glyph-name="rcaron" unicode="&#x159;" horiz-adv-x="295"
d="M218 14v-14h-200v14l29 7q14 3 19 10t5 24v220q0 14 -3.5 20.5t-13.5 11.5l-25 13v11l113 36l8 -4q-3 -18 -4 -32t-1 -35q35 33 63.5 52t44.5 19q13 0 22 -7.5t9 -19.5q0 -8 -4 -22.5t-12 -31.5l-4 -1q-25 7 -36 9.5t-18 2.5q-18 0 -34 -5t-31 -16v-221q0 -17 4.5 -23.5
t19.5 -8.5zM153 433l-86 170l16 10l97 -158h2l97 158l16 -10l-86 -170q-6 -12 -12.5 -17.5t-15.5 -5.5t-15 4.5t-13 18.5z" />
    <glyph glyph-name="rcommaaccent" unicode="&#x157;" horiz-adv-x="295"
d="M218 14v-14h-200v14l29 7q14 3 19 10t5 24v220q0 14 -3.5 20.5t-13.5 11.5l-25 13v11l113 36l8 -4q-3 -18 -4 -32t-1 -35q35 33 63.5 52t44.5 19q13 0 22 -7.5t9 -19.5q0 -8 -4 -22.5t-12 -31.5l-4 -1q-25 7 -36 9.5t-18 2.5q-18 0 -34 -5t-31 -16v-221q0 -17 4.5 -23.5
t19.5 -8.5zM164 -109q0 -40 -27.5 -69.5t-79.5 -43.5l-5 17q39 12 59 29t20 39q0 16 -13 27t-53 25q8 22 18 30t26 8q25 0 40 -17t15 -45z" />
    <glyph glyph-name="scaron" unicode="&#x161;" horiz-adv-x="323"
d="M289 98q0 -49 -38.5 -78.5t-95.5 -29.5q-29 0 -58.5 6.5t-54.5 17.5l-12 102h15q17 -50 45.5 -77t65.5 -27q30 0 47.5 15.5t17.5 43.5q0 22 -14 39t-62 41q-58 30 -77 55.5t-19 60.5q0 46 35 73t92 27q25 0 51.5 -7t45.5 -18l2 -82h-14q-13 43 -34.5 64.5t-50.5 21.5
q-27 0 -43.5 -14.5t-16.5 -38.5q0 -22 14.5 -39t61.5 -41q59 -29 78 -54.5t19 -60.5zM155 433l-86 170l16 10l97 -158h2l97 158l16 -10l-86 -170q-6 -12 -12.5 -17.5t-15.5 -5.5t-15 4.5t-13 18.5z" />
    <glyph glyph-name="sacute" unicode="&#x15b;" horiz-adv-x="323"
d="M289 98q0 -49 -38.5 -78.5t-95.5 -29.5q-29 0 -58.5 6.5t-54.5 17.5l-12 102h15q17 -50 45.5 -77t65.5 -27q30 0 47.5 15.5t17.5 43.5q0 22 -14 39t-62 41q-58 30 -77 55.5t-19 60.5q0 46 35 73t92 27q25 0 51.5 -7t45.5 -18l2 -82h-14q-13 43 -34.5 64.5t-50.5 21.5
q-27 0 -43.5 -14.5t-16.5 -38.5q0 -22 14.5 -39t61.5 -41q59 -29 78 -54.5t19 -60.5zM192 410l-15 7l63 165q6 17 13 24t15 7t13 -5t5 -13q0 -5 -2 -11t-7 -15z" />
    <glyph glyph-name="scedilla" unicode="&#x15f;" horiz-adv-x="323"
d="M238 -143q0 -36 -32.5 -58t-80.5 -22q-21 0 -32.5 6.5t-11.5 18.5q0 7 4.5 14t14.5 15q14 -16 28 -23.5t33 -7.5q20 0 32.5 11t12.5 28q0 12 -6.5 23t-27.5 28q-20 16 -26 26.5t-6 21.5q0 10 13 23.5t40 32.5q-9 -2 -18.5 -3t-19.5 -1q-29 0 -58.5 6.5t-54.5 17.5
l-12 102h15q17 -50 45.5 -77t65.5 -27q30 0 47.5 15.5t17.5 43.5q0 22 -14 39t-62 41q-58 30 -77 55.5t-19 60.5q0 46 35 73t92 27q25 0 51.5 -7t45.5 -18l2 -82h-14q-13 43 -34.5 64.5t-50.5 21.5q-27 0 -43.5 -14.5t-16.5 -38.5q0 -22 14.5 -39t61.5 -41q59 -29 78 -54.5
t19 -60.5q0 -26 -11 -47t-35 -41q-7 -6 -19 -15t-17 -13q-15 -12 -21 -19.5t-6 -14.5q0 -6 4 -12t18 -18q22 -18 29 -31.5t7 -29.5z" />
    <glyph glyph-name="scircumflex" unicode="&#x15d;" horiz-adv-x="323"
d="M289 98q0 -49 -38.5 -78.5t-95.5 -29.5q-29 0 -58.5 6.5t-54.5 17.5l-12 102h15q17 -50 45.5 -77t65.5 -27q30 0 47.5 15.5t17.5 43.5q0 22 -14 39t-62 41q-58 30 -77 55.5t-19 60.5q0 46 35 73t92 27q25 0 51.5 -7t45.5 -18l2 -82h-14q-13 43 -34.5 64.5t-50.5 21.5
q-27 0 -43.5 -14.5t-16.5 -38.5q0 -22 14.5 -39t61.5 -41q59 -29 78 -54.5t19 -60.5zM211 590l88 -170l-16 -10l-99 156h-2l-99 -156l-16 10l88 170q7 13 13.5 18t15.5 5q8 0 14 -4.5t13 -18.5z" />
    <glyph glyph-name="uni0219" unicode="&#x219;" horiz-adv-x="323"
d="M289 98q0 -49 -38.5 -78.5t-95.5 -29.5q-29 0 -58.5 6.5t-54.5 17.5l-12 102h15q17 -50 45.5 -77t65.5 -27q30 0 47.5 15.5t17.5 43.5q0 22 -14 39t-62 41q-58 30 -77 55.5t-19 60.5q0 46 35 73t92 27q25 0 51.5 -7t45.5 -18l2 -82h-14q-13 43 -34.5 64.5t-50.5 21.5
q-27 0 -43.5 -14.5t-16.5 -38.5q0 -22 14.5 -39t61.5 -41q59 -29 78 -54.5t19 -60.5zM216 -109q0 -40 -27.5 -69.5t-79.5 -43.5l-5 17q39 12 59 29t20 39q0 16 -13 27t-53 25q8 22 18 30t26 8q25 0 40 -17t15 -45z" />
    <glyph glyph-name="tbar" unicode="&#x167;" horiz-adv-x="302"
d="M166 -10q-45 0 -71 24t-26 66v97h-42v25h42v109h-54v12l117 100h11v-66h138v-46h-138v-109h126v-25h-126v-64q0 -35 18.5 -52.5t54.5 -17.5q17 0 33 4t34 13l7 -13q-28 -24 -64.5 -40.5t-59.5 -16.5z" />
    <glyph glyph-name="tcaron" unicode="&#x165;" horiz-adv-x="302"
d="M166 -10q-45 0 -71 24t-26 66v231h-54v12l117 100h11v-66h138v-46h-138v-198q0 -35 18.5 -52.5t54.5 -17.5q17 0 33 4t34 13l7 -13q-28 -24 -64.5 -40.5t-59.5 -16.5zM224 408l-14 2l17 167q2 19 8 27.5t16 8.5q8 0 12.5 -5t4.5 -13q0 -3 -0.5 -7.5t-3.5 -18.5z" />
    <glyph glyph-name="uni0163" unicode="&#x163;" horiz-adv-x="302"
d="M166 -10q-45 0 -71 24t-26 66v231h-54v12l117 100h11v-66h138v-46h-138v-198q0 -35 18.5 -52.5t54.5 -17.5q17 0 33 4t34 13l7 -13q-28 -24 -64.5 -40.5t-59.5 -16.5zM220 -109q0 -40 -27.5 -69.5t-79.5 -43.5l-5 17q39 12 59 29t20 39q0 16 -13 27t-53 25q8 22 18 30
t26 8q25 0 40 -17t15 -45z" />
    <glyph glyph-name="uni021B" unicode="&#x21b;" horiz-adv-x="302"
d="M166 -10q-45 0 -71 24t-26 66v231h-54v12l117 100h11v-66h138v-46h-138v-198q0 -35 18.5 -52.5t54.5 -17.5q17 0 33 4t34 13l7 -13q-28 -24 -64.5 -40.5t-59.5 -16.5zM220 -109q0 -40 -27.5 -69.5t-79.5 -43.5l-5 17q39 12 59 29t20 39q0 16 -13 27t-53 25q8 22 18 30
t26 8q25 0 40 -17t15 -45z" />
    <glyph glyph-name="uacute" unicode="&#xfa;" horiz-adv-x="439"
d="M173 -10q-52 0 -81 30t-29 85v170q0 14 -4 20.5t-14 12.5l-27 12v11l117 36l8 -4q-3 -20 -4.5 -38.5t-1.5 -47.5v-156q0 -42 18 -61.5t56 -19.5q20 0 41.5 6.5t41.5 19.5v206q0 17 -4 23t-13 10l-43 15v11l132 36l7 -4q-3 -21 -4 -39.5t-1 -46.5v-202q0 -14 4.5 -20
t19.5 -8l33 -5v-13l-131 -37v52q-30 -22 -65.5 -38t-55.5 -16zM236 410l-15 7l63 165q6 17 13 24t15 7t13 -5t5 -13q0 -5 -2 -11t-7 -15z" />
    <glyph glyph-name="ucircumflex" unicode="&#xfb;" horiz-adv-x="439"
d="M173 -10q-52 0 -81 30t-29 85v170q0 14 -4 20.5t-14 12.5l-27 12v11l117 36l8 -4q-3 -20 -4.5 -38.5t-1.5 -47.5v-156q0 -42 18 -61.5t56 -19.5q20 0 41.5 6.5t41.5 19.5v206q0 17 -4 23t-13 10l-43 15v11l132 36l7 -4q-3 -21 -4 -39.5t-1 -46.5v-202q0 -14 4.5 -20
t19.5 -8l33 -5v-13l-131 -37v52q-30 -22 -65.5 -38t-55.5 -16zM255 590l88 -170l-16 -10l-99 156h-2l-99 -156l-16 10l88 170q7 13 13.5 18t15.5 5q8 0 14 -4.5t13 -18.5z" />
    <glyph glyph-name="udieresis" unicode="&#xfc;" horiz-adv-x="439"
d="M173 -10q-52 0 -81 30t-29 85v170q0 14 -4 20.5t-14 12.5l-27 12v11l117 36l8 -4q-3 -20 -4.5 -38.5t-1.5 -47.5v-156q0 -42 18 -61.5t56 -19.5q20 0 41.5 6.5t41.5 19.5v206q0 17 -4 23t-13 10l-43 15v11l132 36l7 -4q-3 -21 -4 -39.5t-1 -46.5v-202q0 -14 4.5 -20
t19.5 -8l33 -5v-13l-131 -37v52q-30 -22 -65.5 -38t-55.5 -16zM195 537q0 -18 -12 -30.5t-30 -12.5q-19 0 -31 12t-12 31q0 18 12.5 30t30.5 12q17 0 29.5 -12.5t12.5 -29.5zM349 537q0 -19 -12 -31t-30 -12q-19 0 -30.5 12t-11.5 31q0 18 12 30t30 12t30 -12t12 -30z" />
    <glyph glyph-name="ugrave" unicode="&#xf9;" horiz-adv-x="439"
d="M173 -10q-52 0 -81 30t-29 85v170q0 14 -4 20.5t-14 12.5l-27 12v11l117 36l8 -4q-3 -20 -4.5 -38.5t-1.5 -47.5v-156q0 -42 18 -61.5t56 -19.5q20 0 41.5 6.5t41.5 19.5v206q0 17 -4 23t-13 10l-43 15v11l132 36l7 -4q-3 -21 -4 -39.5t-1 -46.5v-202q0 -14 4.5 -20
t19.5 -8l33 -5v-13l-131 -37v52q-30 -22 -65.5 -38t-55.5 -16zM173 582l63 -165l-15 -7l-85 159q-5 9 -7 15t-2 11q0 8 5.5 13t13.5 5t14.5 -7.5t12.5 -23.5z" />
    <glyph glyph-name="ubreve" unicode="&#x16d;" horiz-adv-x="439"
d="M173 -10q-52 0 -81 30t-29 85v170q0 14 -4 20.5t-14 12.5l-27 12v11l117 36l8 -4q-3 -20 -4.5 -38.5t-1.5 -47.5v-156q0 -42 18 -61.5t56 -19.5q20 0 41.5 6.5t41.5 19.5v206q0 17 -4 23t-13 10l-43 15v11l132 36l7 -4q-3 -21 -4 -39.5t-1 -46.5v-202q0 -14 4.5 -20
t19.5 -8l33 -5v-13l-131 -37v52q-30 -22 -65.5 -38t-55.5 -16zM230 432q-51 0 -81.5 39.5t-37.5 116.5l17 1q8 -58 32.5 -85t69.5 -27q44 0 68.5 27t32.5 85l17 -1q-6 -76 -36.5 -116t-81.5 -40z" />
    <glyph glyph-name="uhungarumlaut" unicode="&#x171;" horiz-adv-x="439"
d="M173 -10q-52 0 -81 30t-29 85v170q0 14 -4 20.5t-14 12.5l-27 12v11l117 36l8 -4q-3 -20 -4.5 -38.5t-1.5 -47.5v-156q0 -42 18 -61.5t56 -19.5q20 0 41.5 6.5t41.5 19.5v206q0 17 -4 23t-13 10l-43 15v11l132 36l7 -4q-3 -21 -4 -39.5t-1 -46.5v-202q0 -14 4.5 -20
t19.5 -8l33 -5v-13l-131 -37v52q-30 -22 -65.5 -38t-55.5 -16zM186 410l-16 7l46 165q4 16 10.5 23.5t15.5 7.5q8 0 13 -4.5t5 -12.5q0 -3 -1.5 -8t-7.5 -19zM300 410l-16 7l46 165q4 16 10.5 23.5t15.5 7.5q8 0 13 -4.5t5 -12.5q0 -3 -1.5 -8t-7.5 -19z" />
    <glyph glyph-name="umacron" unicode="&#x16b;" horiz-adv-x="439"
d="M173 -10q-52 0 -81 30t-29 85v170q0 14 -4 20.5t-14 12.5l-27 12v11l117 36l8 -4q-3 -20 -4.5 -38.5t-1.5 -47.5v-156q0 -42 18 -61.5t56 -19.5q20 0 41.5 6.5t41.5 19.5v206q0 17 -4 23t-13 10l-43 15v11l132 36l7 -4q-3 -21 -4 -39.5t-1 -46.5v-202q0 -14 4.5 -20
t19.5 -8l33 -5v-13l-131 -37v52q-30 -22 -65.5 -38t-55.5 -16zM355 509h-251v36h251v-36z" />
    <glyph glyph-name="uogonek" unicode="&#x173;" horiz-adv-x="439"
d="M174 -10q-53 0 -82 28.5t-29 81.5v175q0 14 -4 20.5t-14 12.5l-27 12v11l117 36l8 -4q-3 -20 -4.5 -38.5t-1.5 -47.5v-157q0 -40 17.5 -59.5t52.5 -19.5q20 0 42.5 6.5t44.5 19.5v205q0 17 -4 23t-13 10l-43 15v11l132 36l7 -4q-3 -21 -4 -39.5t-1 -46.5v-202
q0 -14 4.5 -20t19.5 -8l33 -5v-13l-25 -7q-67 -19 -105 -58.5t-38 -89.5q0 -28 15 -44.5t42 -16.5q15 0 29 5t27 15l7 -9q-14 -18 -37.5 -31.5t-44.5 -13.5q-37 0 -59.5 21t-22.5 56q0 31 21 66t60 70v54q-30 -23 -65.5 -39.5t-54.5 -16.5z" />
    <glyph glyph-name="uring" unicode="&#x16f;" horiz-adv-x="439"
d="M173 -10q-52 0 -81 30t-29 85v170q0 14 -4 20.5t-14 12.5l-27 12v11l117 36l8 -4q-3 -20 -4.5 -38.5t-1.5 -47.5v-156q0 -42 18 -61.5t56 -19.5q20 0 41.5 6.5t41.5 19.5v206q0 17 -4 23t-13 10l-43 15v11l132 36l7 -4q-3 -21 -4 -39.5t-1 -46.5v-202q0 -14 4.5 -20
t19.5 -8l33 -5v-13l-131 -37v52q-30 -22 -65.5 -38t-55.5 -16zM232 590q39 0 64.5 -21.5t25.5 -55.5q0 -36 -26 -59.5t-66 -23.5q-41 0 -66.5 21t-25.5 55q0 37 26.5 60.5t67.5 23.5zM233 447q25 0 39 16.5t14 45.5q0 28 -16 46t-42 18q-25 0 -40 -17.5t-15 -45.5
q0 -27 17 -45t43 -18z" />
    <glyph glyph-name="utilde" unicode="&#x169;" horiz-adv-x="439"
d="M173 -10q-52 0 -81 30t-29 85v170q0 14 -4 20.5t-14 12.5l-27 12v11l117 36l8 -4q-3 -20 -4.5 -38.5t-1.5 -47.5v-156q0 -42 18 -61.5t56 -19.5q20 0 41.5 6.5t41.5 19.5v206q0 17 -4 23t-13 10l-43 15v11l132 36l7 -4q-3 -21 -4 -39.5t-1 -46.5v-202q0 -14 4.5 -20
t19.5 -8l33 -5v-13l-131 -37v52q-30 -22 -65.5 -38t-55.5 -16zM294 480q-8 0 -21 3t-42 13q-29 9 -42 12t-21 3q-12 0 -20 -6t-15 -22l-19 -45l-17 6l23 57q13 32 24 42t29 10q8 0 21 -3t42 -12q28 -10 41 -13t21 -3q11 0 19 5.5t17 24.5l19 44l17 -7l-22 -55
q-13 -33 -24.5 -43.5t-29.5 -10.5z" />
    <glyph glyph-name="wacute" unicode="&#x1e83;" horiz-adv-x="607"
d="M207 -15h-22l-129 330q-3 10 -8 15t-14 8l-26 5v14h172v-14l-32 -6q-8 -2 -10.5 -6.5t0.5 -11.5l85 -229l66 168l-24 61q-3 8 -6.5 11.5t-12.5 6.5l-21 6v14h171v-14l-34 -7q-9 -2 -12 -7t0 -14l85 -223l81 219q3 9 0.5 14.5t-10.5 7.5l-41 10v14h134v-14l-30 -9
q-6 -2 -10.5 -6.5t-9.5 -13.5l-131 -329h-21l-93 236zM325 410l-15 7l63 165q6 17 13 24t15 7t13 -5t5 -13q0 -5 -2 -11t-7 -15z" />
    <glyph glyph-name="wcircumflex" unicode="&#x175;" horiz-adv-x="607"
d="M207 -15h-22l-129 330q-3 10 -8 15t-14 8l-26 5v14h172v-14l-32 -6q-8 -2 -10.5 -6.5t0.5 -11.5l85 -229l66 168l-24 61q-3 8 -6.5 11.5t-12.5 6.5l-21 6v14h171v-14l-34 -7q-9 -2 -12 -7t0 -14l85 -223l81 219q3 9 0.5 14.5t-10.5 7.5l-41 10v14h134v-14l-30 -9
q-6 -2 -10.5 -6.5t-9.5 -13.5l-131 -329h-21l-93 236zM343 590l88 -170l-16 -10l-99 156h-2l-99 -156l-16 10l88 170q7 13 13.5 18t15.5 5q8 0 14 -4.5t13 -18.5z" />
    <glyph glyph-name="wdieresis" unicode="&#x1e85;" horiz-adv-x="607"
d="M207 -15h-22l-129 330q-3 10 -8 15t-14 8l-26 5v14h172v-14l-32 -6q-8 -2 -10.5 -6.5t0.5 -11.5l85 -229l66 168l-24 61q-3 8 -6.5 11.5t-12.5 6.5l-21 6v14h171v-14l-34 -7q-9 -2 -12 -7t0 -14l85 -223l81 219q3 9 0.5 14.5t-10.5 7.5l-41 10v14h134v-14l-30 -9
q-6 -2 -10.5 -6.5t-9.5 -13.5l-131 -329h-21l-93 236zM283 537q0 -18 -12 -30.5t-30 -12.5q-19 0 -31 12t-12 31q0 18 12.5 30t30.5 12q17 0 29.5 -12.5t12.5 -29.5zM437 537q0 -19 -12 -31t-30 -12q-19 0 -30.5 12t-11.5 31q0 18 12 30t30 12t30 -12t12 -30z" />
    <glyph glyph-name="wgrave" unicode="&#x1e81;" horiz-adv-x="607"
d="M207 -15h-22l-129 330q-3 10 -8 15t-14 8l-26 5v14h172v-14l-32 -6q-8 -2 -10.5 -6.5t0.5 -11.5l85 -229l66 168l-24 61q-3 8 -6.5 11.5t-12.5 6.5l-21 6v14h171v-14l-34 -7q-9 -2 -12 -7t0 -14l85 -223l81 219q3 9 0.5 14.5t-10.5 7.5l-41 10v14h134v-14l-30 -9
q-6 -2 -10.5 -6.5t-9.5 -13.5l-131 -329h-21l-93 236zM261 582l63 -165l-15 -7l-85 159q-5 9 -7 15t-2 11q0 8 5.5 13t13.5 5t14.5 -7.5t12.5 -23.5z" />
    <glyph glyph-name="yacute" unicode="&#xfd;" horiz-adv-x="419"
d="M81 -280q-11 0 -20.5 10t-17.5 30q40 21 58.5 40.5t36.5 61.5l57 127l-141 328q-5 11 -9 14.5t-12 5.5l-29 6v14h187v-14l-43 -8q-9 -1 -11.5 -6t0.5 -13l99 -235h2l92 228q4 10 2 16t-9 8l-40 10v14h132v-14l-31 -11q-7 -2 -10.5 -6t-8.5 -16l-217 -496
q-24 -57 -38 -75.5t-29 -18.5zM243 410l-15 7l63 165q6 17 13 24t15 7t13 -5t5 -13q0 -5 -2 -11t-7 -15z" />
    <glyph glyph-name="ydieresis" unicode="&#xff;" horiz-adv-x="419"
d="M81 -280q-11 0 -20.5 10t-17.5 30q40 21 58.5 40.5t36.5 61.5l57 127l-141 328q-5 11 -9 14.5t-12 5.5l-29 6v14h187v-14l-43 -8q-9 -1 -11.5 -6t0.5 -13l99 -235h2l92 228q4 10 2 16t-9 8l-40 10v14h132v-14l-31 -11q-7 -2 -10.5 -6t-8.5 -16l-217 -496
q-24 -57 -38 -75.5t-29 -18.5zM202 537q0 -18 -12 -30.5t-30 -12.5q-19 0 -31 12t-12 31q0 18 12.5 30t30.5 12q17 0 29.5 -12.5t12.5 -29.5zM356 537q0 -19 -12 -31t-30 -12q-19 0 -30.5 12t-11.5 31q0 18 12 30t30 12t30 -12t12 -30z" />
    <glyph glyph-name="ycircumflex" unicode="&#x177;" horiz-adv-x="419"
d="M81 -280q-11 0 -20.5 10t-17.5 30q40 21 58.5 40.5t36.5 61.5l57 127l-141 328q-5 11 -9 14.5t-12 5.5l-29 6v14h187v-14l-43 -8q-9 -1 -11.5 -6t0.5 -13l99 -235h2l92 228q4 10 2 16t-9 8l-40 10v14h132v-14l-31 -11q-7 -2 -10.5 -6t-8.5 -16l-217 -496
q-24 -57 -38 -75.5t-29 -18.5zM262 590l88 -170l-16 -10l-99 156h-2l-99 -156l-16 10l88 170q7 13 13.5 18t15.5 5q8 0 14 -4.5t13 -18.5z" />
    <glyph glyph-name="ygrave" unicode="&#x1ef3;" horiz-adv-x="419"
d="M81 -280q-11 0 -20.5 10t-17.5 30q40 21 58.5 40.5t36.5 61.5l57 127l-141 328q-5 11 -9 14.5t-12 5.5l-29 6v14h187v-14l-43 -8q-9 -1 -11.5 -6t0.5 -13l99 -235h2l92 228q4 10 2 16t-9 8l-40 10v14h132v-14l-31 -11q-7 -2 -10.5 -6t-8.5 -16l-217 -496
q-24 -57 -38 -75.5t-29 -18.5zM180 582l63 -165l-15 -7l-85 159q-5 9 -7 15t-2 11q0 8 5.5 13t13.5 5t14.5 -7.5t12.5 -23.5z" />
    <glyph glyph-name="zcaron" unicode="&#x17e;" horiz-adv-x="364"
d="M337 109l-11 -109h-301v11l211 324h-132q-11 0 -15 -2.5t-7 -10.5l-30 -71h-13l3 106h285v-11l-211 -324h145q9 0 13 2t9 11l40 74h14zM163 433l-86 170l16 10l97 -158h2l97 158l16 -10l-86 -170q-6 -12 -12.5 -17.5t-15.5 -5.5t-15 4.5t-13 18.5z" />
    <glyph glyph-name="zacute" unicode="&#x17a;" horiz-adv-x="364"
d="M337 109l-11 -109h-301v11l211 324h-132q-11 0 -15 -2.5t-7 -10.5l-30 -71h-13l3 106h285v-11l-211 -324h145q9 0 13 2t9 11l40 74h14zM201 410l-15 7l63 165q6 17 13 24t15 7t13 -5t5 -13q0 -5 -2 -11t-7 -15z" />
    <glyph glyph-name="zdotaccent" unicode="&#x17c;" horiz-adv-x="364"
d="M337 109l-11 -109h-301v11l211 324h-132q-11 0 -15 -2.5t-7 -10.5l-30 -71h-13l3 106h285v-11l-211 -324h145q9 0 13 2t9 11l40 74h14zM237 537q0 -18 -12 -30.5t-30 -12.5q-19 0 -31 12t-12 31q0 18 12.5 30t30.5 12q17 0 29.5 -12.5t12.5 -29.5z" />
    <glyph glyph-name="acute" unicode="&#xb4;"
d="M219 410l-15 7l63 165q6 17 13 24t15 7t13 -5t5 -13q0 -5 -2 -11t-7 -15z" />
    <glyph glyph-name="grave" unicode="`"
d="M233 582l63 -165l-15 -7l-85 159q-5 9 -7 15t-2 11q0 8 5.5 13t13.5 5t14.5 -7.5t12.5 -23.5z" />
    <glyph glyph-name="circumflex" unicode="&#x2c6;"
d="M294 590l88 -170l-16 -10l-99 156h-2l-99 -156l-16 10l88 170q7 13 13.5 18t15.5 5q8 0 14 -4.5t13 -18.5z" />
    <glyph glyph-name="caron" unicode="&#x2c7;"
d="M238 433l-86 170l16 10l97 -158h2l97 158l16 -10l-86 -170q-6 -12 -12.5 -17.5t-15.5 -5.5t-15 4.5t-13 18.5z" />
    <glyph glyph-name="tilde" unicode="&#x2dc;"
d="M312 480q-8 0 -21 3t-42 13q-29 9 -42 12t-21 3q-12 0 -20 -6t-15 -22l-19 -45l-17 6l23 57q13 32 24 42t29 10q8 0 21 -3t42 -12q28 -10 41 -13t21 -3q11 0 19 5.5t17 24.5l19 44l17 -7l-22 -55q-13 -33 -24.5 -43.5t-29.5 -10.5z" />
    <glyph glyph-name="dieresis" unicode="&#xa8;"
d="M215 537q0 -18 -12 -30.5t-30 -12.5q-19 0 -31 12t-12 31q0 18 12.5 30t30.5 12q17 0 29.5 -12.5t12.5 -29.5zM369 537q0 -19 -12 -31t-30 -12q-19 0 -30.5 12t-11.5 31q0 18 12 30t30 12t30 -12t12 -30z" />
    <glyph glyph-name="ring" unicode="&#x2da;"
d="M252 590q39 0 64.5 -21.5t25.5 -55.5q0 -36 -26 -59.5t-66 -23.5q-41 0 -66.5 21t-25.5 55q0 37 26.5 60.5t67.5 23.5zM253 447q25 0 39 16.5t14 45.5q0 28 -16 46t-42 18q-25 0 -40 -17.5t-15 -45.5q0 -27 17 -45t43 -18z" />
    <glyph glyph-name="cedilla" unicode="&#xb8;" horiz-adv-x="500"
d="M329 -145q0 -34 -33 -56t-81 -22q-21 0 -32.5 6t-11.5 18q0 6 3.5 12t15.5 18q16 -17 30 -24t33 -7t31 11t12 28q0 22 -23 40t-68 30v7l45 84h25l-33 -61q43 -13 65 -34.5t22 -49.5z" />
    <glyph glyph-name="hungarumlaut" unicode="&#x2dd;"
d="M164 410l-16 7l46 165q4 16 10.5 23.5t15.5 7.5q8 0 13 -4.5t5 -12.5q0 -3 -1.5 -8t-7.5 -19zM278 410l-16 7l46 165q4 16 10.5 23.5t15.5 7.5q8 0 13 -4.5t5 -12.5q0 -3 -1.5 -8t-7.5 -19z" />
    <glyph glyph-name="breve" unicode="&#x2d8;"
d="M250 432q-51 0 -81.5 39.5t-37.5 116.5l17 1q8 -58 32.5 -85t69.5 -27q44 0 68.5 27t32.5 85l17 -1q-6 -76 -36.5 -116t-81.5 -40z" />
    <glyph glyph-name="macron" unicode="&#xaf;"
d="M375 509h-251v36h251v-36z" />
    <glyph glyph-name="dotaccent" unicode="&#x2d9;"
d="M292 537q0 -18 -12 -30.5t-30 -12.5q-19 0 -31 12t-12 31q0 18 12.5 30t30.5 12q17 0 29.5 -12.5t12.5 -29.5z" />
    <glyph glyph-name="periodcentered" unicode="&#xb7;" horiz-adv-x="500"
d="M295 332q0 -19 -13 -32t-32 -13t-32 13t-13 32t13 32.5t32 13.5t32 -13.5t13 -32.5z" />
    <glyph glyph-name="ogonek" unicode="&#x2db;" horiz-adv-x="500"
d="M294 -221q-36 0 -59 20.5t-23 53.5q0 28 17 59t71 92l20 -2q-36 -42 -50 -71t-14 -58q0 -28 15 -44t42 -16q15 0 29 5t27 15l7 -9q-14 -18 -37.5 -31.5t-44.5 -13.5z" />
    <glyph glyph-name="commaaccent" unicode="&#xf6c3;" horiz-adv-x="500"
d="M349 -109q0 -40 -27.5 -69.5t-79.5 -43.5l-5 17q39 12 59 29t20 39q0 16 -13 27t-53 25q8 22 18 30t26 8q25 0 40 -17t15 -45z" />
    <glyph glyph-name="caron.alt"
d="M255 408l-14 2l17 167q2 19 8 27.5t16 8.5q8 0 12.5 -5t4.5 -13q0 -3 -0.5 -7.5t-3.5 -18.5z" />
    <glyph glyph-name="revcommaaccent" horiz-adv-x="500"
d="M193 487q0 41 27 70t79 44l6 -17q-38 -12 -58.5 -29.5t-20.5 -39.5q0 -16 12 -26.5t54 -24.5q-8 -22 -18 -30.5t-26 -8.5q-25 0 -40 17t-15 45z" />
    <glyph glyph-name="acute.cap"
d="M215 407l-16 7l38 109q7 16 13 23t14 7t13 -4.5t5 -12.5q0 -4 -2 -9.5t-7 -16.5z" />
    <glyph glyph-name="grave.cap"
d="M261 526l39 -112l-16 -7l-58 105q-5 10 -6.5 15t-1.5 9q0 8 5 12.5t13 4.5t14 -6.5t11 -20.5z" />
    <glyph glyph-name="circumflex.cap"
d="M279 532l80 -115l-16 -10l-92 104h-1l-93 -104l-16 10l80 115q9 13 14.5 17t14.5 4q8 0 14 -4.5t15 -16.5z" />
    <glyph glyph-name="caron.cap"
d="M343 553l16 -10l-79 -115q-8 -12 -14.5 -16t-14.5 -4q-9 0 -15 4t-14 16l-80 115l16 10l92 -104h1z" />
    <glyph glyph-name="tilde.cap"
d="M304 444q-7 0 -18.5 3.5t-36.5 14.5q-26 12 -37.5 15.5t-19.5 3.5q-12 0 -19.5 -6.5t-13.5 -23.5l-14 -35l-17 7l16 44q12 32 23.5 43t31.5 11q7 0 18 -3.5t36 -14.5q26 -12 37.5 -15.5t18.5 -3.5q12 0 19.5 6t15.5 25l15 33l17 -7l-17 -43q-14 -34 -25 -44t-30 -10z" />
    <glyph glyph-name="dieresis.cap"
d="M219 483q0 -18 -12 -30.5t-30 -12.5q-19 0 -31 12t-12 31q0 18 12.5 30t30.5 12q17 0 29.5 -12.5t12.5 -29.5zM365 483q0 -19 -12 -31t-30 -12q-19 0 -30.5 12t-11.5 31q0 18 12 30t30 12t30 -12t12 -30z" />
    <glyph glyph-name="ring.cap"
d="M252 547q38 0 63 -20t25 -52q0 -35 -25.5 -57t-64.5 -22q-40 0 -65 20t-25 52q0 35 25.5 57t66.5 22zM253 414q24 0 38 15t14 42q0 26 -16 43t-41 17q-24 0 -39 -16t-15 -43q0 -25 16.5 -41.5t42.5 -16.5z" />
    <glyph glyph-name="hungarumlaut.cap"
d="M173 407l-16 7l35 110q4 15 10.5 22t14.5 7t12.5 -4.5t4.5 -12.5q0 -4 -1.5 -8.5t-6.5 -14.5zM281 407l-16 7l35 110q4 15 10.5 22t14.5 7t12.5 -4.5t4.5 -12.5q0 -4 -1.5 -8.5t-6.5 -14.5z" />
    <glyph glyph-name="breve.cap"
d="M250 408q-47 0 -74 31.5t-32 92.5l16 1q9 -42 30.5 -61.5t59.5 -19.5q39 0 60 19t29 62l16 -1q-5 -61 -31.5 -92.5t-73.5 -31.5z" />
    <glyph glyph-name="macron.cap"
d="M363 467h-227v36h227v-36z" />
    <glyph glyph-name="dotaccent.cap"
d="M294 482q0 -19 -13 -32t-31 -13q-19 0 -32 13t-13 32t13 32t32 13q18 0 31 -13t13 -32z" />
    <glyph glyph-name="period" unicode="." horiz-adv-x="178"
d="M88 95q22 0 37.5 -15.5t15.5 -37.5t-15.5 -37t-37.5 -15t-37 15t-15 37t15 37.5t37 15.5z" />
    <glyph glyph-name="comma" unicode="," horiz-adv-x="178"
d="M146 29q0 -38 -25.5 -78t-81.5 -88l-14 16q35 32 50.5 55.5t15.5 44.5q0 15 -8.5 23t-45.5 23q8 39 21 54t36 15t37.5 -18t14.5 -47z" />
    <glyph glyph-name="colon" unicode=":" horiz-adv-x="178"
d="M88 95q22 0 37.5 -15.5t15.5 -37.5t-15.5 -37t-37.5 -15t-37 15t-15 37t15 37.5t37 15.5zM88 366q22 0 37.5 -15.5t15.5 -37.5t-15.5 -37t-37.5 -15t-37 15t-15 37t15 37.5t37 15.5z" />
    <glyph glyph-name="semicolon" unicode=";" horiz-adv-x="178"
d="M148 29q0 -38 -25.5 -78t-81.5 -88l-14 16q35 32 50.5 55.5t15.5 44.5q0 15 -8.5 23t-45.5 23q8 39 21 54t36 15t37.5 -18t14.5 -47zM91 366q22 0 37.5 -15.5t15.5 -37.5t-15.5 -37t-37.5 -15t-37 15t-15 37t15 37.5t37 15.5z" />
    <glyph glyph-name="ellipsis" unicode="&#x2026;" horiz-adv-x="602"
d="M88 95q22 0 37.5 -15.5t15.5 -37.5t-15.5 -37t-37.5 -15t-37 15t-15 37t15 37.5t37 15.5zM300 95q22 0 37.5 -15.5t15.5 -37.5t-15.5 -37t-37.5 -15t-37 15t-15 37t15 37.5t37 15.5zM512 95q22 0 37.5 -15.5t15.5 -37.5t-15.5 -37t-37.5 -15t-37 15t-15 37t15 37.5
t37 15.5z" />
    <glyph glyph-name="question" unicode="?" horiz-adv-x="352"
d="M144 218l-4 -50h-20l-13 111q-2 19 2.5 26t28.5 15q66 22 94.5 50t28.5 70q0 45 -26.5 74t-67.5 29q-18 0 -37 -10t-48 -38h-5q-15 18 -22 31t-7 24q0 15 16.5 22.5t51.5 7.5q90 0 152 -51.5t62 -125.5q0 -59 -36.5 -97t-122.5 -64q-16 -5 -20.5 -9t-6.5 -15zM129 95
q22 0 37.5 -15.5t15.5 -37.5t-15.5 -37t-37.5 -15t-37 15t-15 37t15 37.5t37 15.5z" />
    <glyph glyph-name="exclam" unicode="!" horiz-adv-x="234"
d="M163 478l-37 -310h-19l-37 310q-2 12 -3 22.5t-1 17.5q0 29 13 45.5t37 16.5t37.5 -16.5t13.5 -45.5q0 -7 -1 -17.5t-3 -22.5zM116 95q22 0 37.5 -15.5t15.5 -37.5t-15.5 -37t-37.5 -15t-37 15t-15 37t15 37.5t37 15.5z" />
    <glyph glyph-name="questiondown" unicode="&#xbf;" horiz-adv-x="352"
d="M208 139l4 50h20l13 -111q2 -19 -2.5 -26t-28.5 -15q-66 -22 -94.5 -50t-28.5 -70q0 -45 26.5 -74t67.5 -29q18 0 37 10t48 38h5q15 -18 22 -31t7 -24q0 -15 -16.5 -22.5t-51.5 -7.5q-90 0 -152 51.5t-62 125.5q0 59 36.5 97t122.5 64q16 5 20.5 9t6.5 15zM223 262
q-22 0 -37.5 15.5t-15.5 37.5t15.5 37t37.5 15t37 -15t15 -37t-15 -37.5t-37 -15.5z" />
    <glyph glyph-name="exclamdown" unicode="&#xa1;" horiz-adv-x="234"
d="M71 -121l37 310h19l37 -310q2 -12 3 -22.5t1 -17.5q0 -29 -13 -45.5t-37 -16.5t-37.5 16.5t-13.5 45.5q0 7 1 17.5t3 22.5zM118 262q-22 0 -37.5 15.5t-15.5 37.5t15.5 37t37.5 15t37 -15t15 -37t-15 -37.5t-37 -15.5z" />
    <glyph glyph-name="parenleft" unicode="(" horiz-adv-x="212"
d="M83 253q0 -105 28.5 -202t78.5 -156l-16 -17q-58 65 -92 167t-34 208t34 207.5t92 167.5l16 -17q-50 -60 -78.5 -156.5t-28.5 -201.5z" />
    <glyph glyph-name="parenright" unicode=")" horiz-adv-x="212"
d="M38 -122l-17 17q50 59 78.5 156.5t28.5 201.5t-28.5 201t-78.5 157l17 17q57 -66 91 -168t34 -207q0 -106 -34 -208t-91 -167z" />
    <glyph glyph-name="braceleft" unicode="{" horiz-adv-x="207"
d="M184 -102l-7 -20l-32 11q-42 14 -60.5 37.5t-18.5 60.5q0 14 3 32.5t13 58.5q9 38 12 56t3 31q0 39 -17.5 56.5t-55.5 20.5v21q38 3 55.5 20.5t17.5 57.5q0 13 -3 31t-12 56q-10 40 -13 58.5t-3 32.5q0 37 18.5 60.5t60.5 37.5l32 11l7 -20l-24 -9q-36 -14 -48 -31
t-12 -45q0 -16 3 -37t13 -64q8 -36 10.5 -52t2.5 -28q0 -32 -17 -55.5t-47 -32.5v-2q31 -10 47.5 -33.5t16.5 -54.5q0 -12 -2.5 -28t-10.5 -52q-10 -43 -13 -64t-3 -37q0 -29 12.5 -46.5t47.5 -29.5z" />
    <glyph glyph-name="braceright" unicode="}" horiz-adv-x="207"
d="M61 -110l-32 -12l-6 20l24 9q31 12 43.5 30t12.5 48q0 13 -2.5 31.5t-10.5 60.5q-7 41 -9.5 58.5t-2.5 28.5q0 32 16 55t47 33v2q-31 10 -47 32.5t-16 55.5q0 11 2.5 28.5t9.5 57.5q8 42 10.5 61t2.5 32q0 29 -12 47t-44 31l-24 9l6 20l32 -12q42 -15 59 -37.5t17 -58.5
q0 -10 -2.5 -26t-9.5 -54q-9 -43 -12 -63t-3 -34q0 -42 17.5 -59.5t55.5 -19.5v-23q-39 -2 -56 -19t-17 -60q0 -14 3 -33.5t12 -62.5q7 -38 9.5 -54t2.5 -26q0 -36 -17 -58.5t-59 -37.5z" />
    <glyph glyph-name="bracketleft" unicode="[" horiz-adv-x="197"
d="M174 -104l-1 -18l-106 7v736l106 7l1 -18l-52 -6q-13 -1 -18 -7t-5 -23v-642q0 -17 5 -23t18 -7z" />
    <glyph glyph-name="bracketright" unicode="]" horiz-adv-x="197"
d="M129 -115l-105 -7l-1 18l51 6q13 1 18 7t5 23v642q0 17 -5 23t-18 7l-51 6l1 18l105 -7v-736z" />
    <glyph glyph-name="slash" unicode="/" horiz-adv-x="210"
d="M217 564l-199 -568l-25 9l198 569z" />
    <glyph glyph-name="backslash" unicode="\" horiz-adv-x="210"
d="M217 5l-26 -9l-198 568l25 10z" />
    <glyph glyph-name="underscore" unicode="_" horiz-adv-x="400"
d="M380 -56h-360v26h360v-26z" />
    <glyph glyph-name="hyphen" unicode="-" horiz-adv-x="232"
d="M212 226h-192v44h192v-44z" />
    <glyph glyph-name="uni00AD" unicode="&#xad;" horiz-adv-x="0"
 />
    <glyph glyph-name="endash" unicode="&#x2013;" horiz-adv-x="400"
d="M380 234h-360v26h360v-26z" />
    <glyph glyph-name="emdash" unicode="&#x2014;" horiz-adv-x="800"
d="M780 234h-760v26h760v-26z" />
    <glyph glyph-name="brokenbar" unicode="&#xa6;" horiz-adv-x="200"
d="M113 670v-370h-27v370h27zM113 100v-370h-27v370h27z" />
    <glyph glyph-name="bar" unicode="|" horiz-adv-x="200"
d="M113 670v-940h-27v940h27z" />
    <glyph glyph-name="guillemotleft" unicode="&#xab;" horiz-adv-x="320"
d="M67 178l78 -178l-20 -11l-96 182v14l96 182l20 -11zM187 178l78 -178l-20 -11l-96 182v14l96 182l20 -11z" />
    <glyph glyph-name="guillemotright" unicode="&#xbb;" horiz-adv-x="320"
d="M75 -11l-20 11l77 178l-77 178l20 11l95 -182v-14zM195 -11l-20 11l77 178l-77 178l20 11l95 -182v-14z" />
    <glyph glyph-name="guilsinglleft" unicode="&#x2039;" horiz-adv-x="200"
d="M67 178l78 -178l-20 -11l-96 182v14l96 182l20 -11z" />
    <glyph glyph-name="guilsinglright" unicode="&#x203a;" horiz-adv-x="200"
d="M75 -11l-20 11l77 178l-77 178l20 11l95 -182v-14z" />
    <glyph glyph-name="quotesinglbase" unicode="&#x201a;" horiz-adv-x="196"
d="M144 22q0 -44 -26 -75t-82 -55l-8 18q38 19 53 34.5t15 36.5q0 18 -10.5 28t-52.5 23q8 34 21 49.5t34 15.5q26 0 41 -19.5t15 -55.5z" />
    <glyph glyph-name="quotedblbase" unicode="&#x201e;" horiz-adv-x="348"
d="M144 22q0 -44 -26 -75t-82 -55l-8 18q38 19 53 34.5t15 36.5q0 18 -10.5 28t-52.5 23q8 34 21 49.5t34 15.5q26 0 41 -19.5t15 -55.5zM296 22q0 -44 -26 -75t-82 -55l-8 18q38 19 53 34.5t15 36.5q0 18 -10.5 28t-52.5 23q8 34 21 49.5t34 15.5q26 0 41 -19.5t15 -55.5z
" />
    <glyph glyph-name="quoteleft" unicode="&#x2018;" horiz-adv-x="196"
d="M36 489q0 44 26 75.5t82 55.5l7 -18q-38 -19 -53 -35t-15 -36q0 -18 10.5 -28.5t52.5 -23.5q-7 -34 -20 -49.5t-35 -15.5q-25 0 -40 20t-15 55z" />
    <glyph glyph-name="quotedblleft" unicode="&#x201c;" horiz-adv-x="348"
d="M36 489q0 44 26 75.5t82 55.5l7 -18q-38 -19 -53 -35t-15 -36q0 -18 10.5 -28.5t52.5 -23.5q-7 -34 -20 -49.5t-35 -15.5q-25 0 -40 20t-15 55zM188 489q0 44 26 75.5t82 55.5l7 -18q-38 -19 -53 -35t-15 -36q0 -18 10.5 -28.5t52.5 -23.5q-7 -34 -20 -49.5t-35 -15.5
q-25 0 -40 20t-15 55z" />
    <glyph glyph-name="quoteright" unicode="&#x2019;" horiz-adv-x="196"
d="M144 545q0 -45 -25.5 -76t-82.5 -55l-8 18q38 19 53 34.5t15 36.5q0 19 -10.5 29t-52.5 23q8 34 21 49.5t34 15.5q26 0 41 -19.5t15 -55.5z" />
    <glyph glyph-name="quotedblright" unicode="&#x201d;" horiz-adv-x="348"
d="M144 545q0 -45 -25.5 -76t-82.5 -55l-8 18q38 19 53 34.5t15 36.5q0 19 -10.5 29t-52.5 23q8 34 21 49.5t34 15.5q26 0 41 -19.5t15 -55.5zM296 545q0 -45 -25.5 -76t-82.5 -55l-8 18q38 19 53 34.5t15 36.5q0 19 -10.5 29t-52.5 23q8 34 21 49.5t34 15.5q26 0 41 -19.5
t15 -55.5z" />
    <glyph glyph-name="quotesingle" unicode="'" horiz-adv-x="190"
d="M102 404h-13l-31 157q-5 26 5.5 42.5t31.5 16.5t31.5 -16.5t5.5 -42.5z" />
    <glyph glyph-name="quotedbl" unicode="&#x22;" horiz-adv-x="325"
d="M102 404h-13l-31 157q-5 26 5.5 42.5t31.5 16.5t31.5 -16.5t5.5 -42.5zM237 404h-13l-31 157q-5 26 5.5 42.5t31.5 16.5t31.5 -16.5t5.5 -42.5z" />
    <glyph glyph-name="bullet" unicode="&#x2022;" horiz-adv-x="286"
d="M248 247q0 -46 -29.5 -76.5t-76.5 -30.5t-76 30t-29 77q0 46 29.5 76t75.5 30q47 0 76.5 -30t29.5 -76z" />
    <glyph glyph-name="ampersand" unicode="&#x26;" horiz-adv-x="671"
d="M411 112q-52 -64 -103 -93t-108 -29q-73 0 -119.5 42.5t-46.5 111.5q0 55 36 100.5t119 90.5q-37 30 -54 58.5t-17 61.5q0 55 41 90t104 35q59 0 96.5 -27.5t37.5 -71.5q0 -34 -26.5 -62.5t-86.5 -57.5q50 -38 92 -79.5t77 -87.5l87 113q8 11 5 16.5t-19 8.5l-42 8v17
h169v-16l-33 -8q-14 -3 -22 -8t-23 -22l-107 -129q14 -20 20.5 -30t11.5 -19q24 -42 45.5 -59t48.5 -17q15 0 31 5t42 18l6 -8q-33 -40 -60 -57t-56 -17q-39 0 -68.5 22t-58.5 70q-2 3 -3.5 6t-5.5 9q-5 6 -6.5 9t-3.5 6zM251 558q-30 0 -49.5 -20.5t-19.5 -53.5
q1 -25 16.5 -48t69.5 -63q28 19 42.5 46.5t14.5 60.5q0 35 -20.5 56.5t-53.5 21.5zM206 321q-49 -33 -71 -68.5t-22 -78.5q0 -56 35 -91t92 -35q45 0 82.5 20t74.5 65q-37 51 -83.5 97t-100.5 86q-1 1 -3 2.5t-4 2.5z" />
    <glyph glyph-name="paragraph" unicode="&#xb6;" horiz-adv-x="446"
d="M372 13q0 -92 -39.5 -139.5t-116.5 -47.5q-38 0 -67 12t-29 29q0 9 7.5 21.5t20.5 26.5h6q34 -34 55 -46.5t42 -12.5q37 0 54.5 36t17.5 112q0 25 -2 53t-9 81q-3 28 -4.5 41.5t-2.5 25.5h-47q-107 0 -173 53t-66 142q0 79 60 124.5t165 45.5h182v-17l-32 -7
q-19 -4 -25.5 -11t-10.5 -27q-4 -21 -6.5 -59.5t-2.5 -87.5q0 -37 2.5 -77.5t9.5 -116.5q7 -64 9 -95.5t2 -58.5z" />
    <glyph glyph-name="dagger" unicode="&#x2020;" horiz-adv-x="400"
d="M207 446h-14q-1 26 -9.5 58t-21.5 66l2 13l31 43h11l31 -43l2 -13q-14 -32 -22.5 -64.5t-9.5 -59.5zM222 414v14q24 1 52 8.5t58 21.5l13 -2l43 -30v-10l-43 -30l-13 -2q-28 14 -56 21.5t-54 8.5zM179 428v-14q-26 -1 -54.5 -8.5t-56.5 -21.5l-13 2l-43 30v10l43 30l13 2
q30 -14 58 -21.5t53 -8.5zM192 397h16q0 -98 11 -193.5t32 -171.5l-3 -14l-40 -46h-15l-40 46l-4 14q21 76 32 171.5t11 193.5z" />
    <glyph glyph-name="daggerdbl" unicode="&#x2021;" horiz-adv-x="400"
d="M207 478h-14q-4 21 -11.5 43.5t-19.5 48.5l2 13l31 43h11l31 -43l2 -13q-13 -25 -20.5 -47.5t-11.5 -44.5zM388 448l-43 -30l-13 -2q-28 14 -56 21.5t-54 8.5v14q24 1 52 8.5t58 21.5l13 -2l43 -30v-10zM179 460v-14q-26 -1 -54.5 -8.5t-56.5 -21.5l-13 2l-43 30v10
l43 30l13 2q30 -14 58 -21.5t53 -8.5zM208 169h-16q-3 29 -12 61.5t-21 60.5v15q13 30 21.5 62t11.5 61h16q3 -29 11.5 -61t21.5 -62v-15q-13 -30 -21.5 -62t-11.5 -60zM388 139l-43 -30l-13 -2q-30 14 -58 21.5t-52 8.5v14q26 1 54 8.5t56 21.5l13 -2l43 -29v-11zM179 151
v-14q-25 -1 -53 -8.5t-58 -21.5l-13 2l-43 30v11l43 29l13 2q28 -14 56.5 -21.5t54.5 -8.5zM237 14l-31 -42h-11l-31 42l-2 13q12 26 19.5 48.5t11.5 44.5h14q4 -22 11.5 -44.5t20.5 -48.5z" />
    <glyph glyph-name="section" unicode="&#xa7;" horiz-adv-x="364"
d="M333 119q0 -88 -57 -141t-154 -53q-37 0 -61 11.5t-24 30.5q0 10 6.5 22t18.5 26h5q37 -32 60.5 -43.5t48.5 -11.5q30 0 47.5 15t17.5 40t-19 56t-61 74q-73 73 -102 127.5t-29 117.5q0 82 56 136t140 54q38 0 62 -11t24 -29q0 -10 -6.5 -21t-20.5 -24h-5q-32 28 -54 39
t-46 11q-27 0 -42.5 -15t-15.5 -41q0 -23 14.5 -48.5t60.5 -74.5q79 -82 107.5 -135t28.5 -112zM187 191q38 -39 62 -76.5t32 -70.5q17 68 -7 130.5t-102 141.5q-33 34 -56.5 71t-31.5 70q-18 -64 6.5 -128t96.5 -138z" />
    <glyph glyph-name="asterisk" unicode="*" horiz-adv-x="308"
d="M179 428l5 -91l-16 -4l-26 88l-78 -60l-12 13l72 76l-94 49l6 16l94 -30l-6 92l16 3l27 -87l78 59l11 -13l-74 -75l96 -50l-5 -15z" />
    <glyph glyph-name="trademark" unicode="&#x2122;" horiz-adv-x="797"
d="M248 275v-14h-150v14l21 3q12 2 15.5 6.5t3.5 16.5v248h-60q-16 0 -22 -5.5t-11 -20.5l-11 -34h-12v85l5 2q6 -3 14.5 -4.5t19.5 -1.5h224q12 0 20.5 1.5t14.5 4.5l6 -2v-85h-14l-10 34q-5 15 -11 20.5t-22 5.5h-61v-248q0 -12 3.5 -16.5t14.5 -6.5zM475 275v-14h-111v14
l21 3q12 3 15.5 7t3.5 16v228q0 12 -3.5 16t-15.5 6l-21 4v15h113l92 -229l91 229h115v-15l-21 -4q-12 -2 -15.5 -6t-3.5 -16v-228q0 -12 3.5 -16t15.5 -7l21 -3v-14h-149v14l21 3q12 2 15.5 6.5t3.5 16.5v217l-103 -260h-34l-100 247v-204q0 -13 4 -17.5t15 -5.5z" />
    <glyph glyph-name="registered" unicode="&#xae;" horiz-adv-x="599"
d="M574 285q0 -116 -77.5 -193.5t-196.5 -77.5q-121 0 -198 77t-77 194t77 193.5t198 76.5q119 0 196.5 -77t77.5 -193zM55 285q0 -107 69 -177t178 -70q106 0 174 70.5t68 176.5q0 105 -70 176t-176 71q-109 0 -176 -69.5t-67 -177.5zM303 168v-14h-136v14l18 3
q11 2 14.5 6t3.5 15v207q0 11 -3 15t-15 6l-18 4v13h126q59 0 94 -20t35 -54q0 -27 -22 -45.5t-58 -24.5l81 -103q11 -12 15 -14.5t15 -4.5l16 -3v-14h-75q-12 0 -18 2.5t-13 13.5l-66 93q-7 8 -13.5 11t-18.5 3h-2v-85q0 -11 3.5 -15t14.5 -6zM291 420h-28v-126h20
q34 0 52 17.5t18 49.5q0 27 -17 43t-45 16z" />
    <glyph glyph-name="copyright" unicode="&#xa9;" horiz-adv-x="756"
d="M729 285q0 -148 -99.5 -247t-251.5 -99q-155 0 -253.5 98t-98.5 248t98.5 248t253.5 98q152 0 251.5 -99t99.5 -247zM62 285q0 -137 89 -228t229 -91q137 0 225 91t88 228q0 136 -90.5 227.5t-227.5 91.5q-139 0 -226 -90t-87 -229zM397 99q-98 0 -156.5 49t-58.5 132
q0 84 63.5 138t161.5 54q36 0 73.5 -10t60.5 -26v-75h-12l-9 24q-13 32 -44 49.5t-74 17.5q-61 0 -94.5 -40.5t-33.5 -114.5q0 -86 33.5 -131.5t97.5 -45.5q35 0 61.5 16t48.5 50l15 23h8l-2 -76q-20 -15 -59 -24.5t-80 -9.5z" />
    <glyph glyph-name="at" unicode="@" horiz-adv-x="662"
d="M430 62q63 0 116.5 64.5t53.5 151.5q0 85 -51 131.5t-144 46.5q-63 0 -123 -24.5t-108 -68.5q-49 -46 -75.5 -104.5t-26.5 -121.5q0 -106 63 -164.5t176 -58.5q52 0 103 15t85 40l11 -18q-36 -28 -91 -44.5t-111 -16.5q-121 0 -194.5 64.5t-73.5 175.5q0 71 29 135.5
t82 113.5q52 48 119 74.5t137 26.5q103 0 163 -52.5t60 -143.5q0 -51 -18.5 -97.5t-54.5 -83.5q-36 -38 -83 -59.5t-92 -21.5q-27 0 -36.5 18t3.5 48l3 8q-27 -33 -59.5 -53.5t-57.5 -20.5q-31 0 -49.5 21t-18.5 57q0 42 23 89t63 85q41 40 88 58.5t91 10.5l7 20l69 8
l-94 -276q-5 -18 -1.5 -25.5t17.5 -7.5zM389 315q-50 0 -100 -65t-50 -136q0 -24 8 -36t23 -12q30 0 61.5 36.5t52.5 98.5l22 62q8 24 3.5 38t-20.5 14z" />
    <glyph glyph-name="ordfeminine" unicode="&#xaa;" horiz-adv-x="245"
d="M240 411l4 -9q-20 -15 -38 -24t-27 -9q-16 0 -25 8t-11 24q-22 -15 -40.5 -23.5t-30.5 -8.5q-23 0 -37 12.5t-14 34.5q0 18 12.5 30.5t40.5 21.5l68 25v36q0 20 -12.5 32t-33.5 12q-8 0 -14.5 -2t-11.5 -6q-4 -3 -6.5 -8t-2.5 -12q0 -5 1 -12.5t4 -16.5q-7 -4 -14.5 -6
t-13.5 -2q-7 0 -12 5.5t-5 13.5q0 23 39 50t73 27q28 0 50 -17t22 -41v-117q0 -11 4.5 -17t12.5 -6q4 0 8.5 1t9.5 4zM84 434q0 -13 7.5 -20t22.5 -7q7 0 14 1.5t14 5.5v65l-28 -12q-17 -7 -23.5 -14.5t-6.5 -18.5zM243 327v-32h-222v32h222z" />
    <glyph glyph-name="ordmasculine" unicode="&#xba;" horiz-adv-x="280"
d="M140 604q55 0 89.5 -30.5t34.5 -83.5t-36.5 -87t-89.5 -34q-55 0 -89 30.5t-34 83.5q0 52 37 86.5t88 34.5zM137 585q-26 0 -39.5 -23.5t-13.5 -69.5q0 -51 14.5 -78t42.5 -27q26 0 39.5 23.5t13.5 69.5q0 50 -15 77.5t-42 27.5zM265 327v-32h-250v32h250z" />
    <glyph glyph-name="numbersign" unicode="#" horiz-adv-x="495"
d="M148 158l-30 -158h-29l30 158h-94l5 28h95l38 197h-94l5 28h94l31 159h29l-31 -159h148l31 159h29l-31 -159h96l-5 -28h-96l-38 -197h95l-5 -28h-96l-30 -158h-29l30 158h-148zM192 383l-38 -197h148l38 197h-148z" />
    <glyph glyph-name="uni2116" unicode="&#x2116;" horiz-adv-x="990"
d="M219 16v-16h-180v16l32 7q23 6 29 13.5t6 28.5v439q0 21 -6 28.5t-29 13.5l-32 7v17h132l363 -445v310q0 118 44.5 181.5t125.5 63.5q33 0 58.5 -10.5t25.5 -25.5q0 -6 -6.5 -16.5t-18.5 -24.5h-4q-42 32 -58.5 39t-35.5 7q-43 0 -69.5 -49.5t-26.5 -136.5v-463h-38
l-389 479v-414q0 -22 6.5 -29.5t28.5 -11.5zM791 550q55 0 89.5 -30.5t34.5 -83.5t-36.5 -87t-89.5 -34q-55 0 -89 30.5t-34 83.5q0 52 37 86.5t88 34.5zM788 531q-26 0 -39.5 -23.5t-13.5 -69.5q0 -51 14.5 -78t42.5 -27q26 0 39.5 23.5t13.5 69.5q0 50 -15 77.5t-42 27.5z
M916 273v-32h-250v32h250z" />
    <glyph glyph-name="Euro" unicode="&#x20ac;" horiz-adv-x="598"
d="M380 340v-26h-367v26h69q17 109 92.5 174.5t184.5 65.5q51 0 97 -14t84 -42v-113h-15l-17 44q-19 48 -58 73t-94 25q-76 0 -126.5 -57.5t-60.5 -155.5h211zM358 -10q-114 0 -190.5 67t-88.5 180h-66v27h367v-27h-210q12 -100 65.5 -160.5t127.5 -60.5q50 0 86 21.5
t61 66.5l25 44h14l-5 -105q-30 -23 -82.5 -38t-103.5 -15z" />
    <glyph glyph-name="dollar" unicode="$" horiz-adv-x="469"
d="M220 -10h-10q-38 0 -76.5 9.5t-76.5 28.5l-9 130h16l21 -53q18 -45 49.5 -67t77.5 -22q59 0 92 27.5t33 78.5q0 40 -23.5 70t-100.5 69q-85 44 -111.5 80t-26.5 86q0 58 40.5 100t104.5 51v92h32v-90q38 0 71.5 -9t60.5 -26l6 -106h-16l-14 36q-16 40 -44 59t-71 19
q-45 0 -74 -26t-29 -66q0 -36 22.5 -63t97.5 -66q46 -24 67 -38t36 -28q23 -23 34 -50.5t11 -60.5q0 -65 -42.5 -108t-115.5 -54v-93h-32v90z" />
    <glyph glyph-name="yen" unicode="&#xa5;" horiz-adv-x="546"
d="M456 276h-366v26h127l-147 215q-9 15 -18 21t-24 9l-26 6v17h226v-18l-52 -9q-13 -2 -17 -8.5t2 -15.5l141 -209l137 206q8 11 4 18.5t-19 10.5l-43 8v17h161v-17l-22 -6q-14 -4 -22.5 -10.5t-20.5 -22.5l-147 -212h126v-26zM232 201h-142v26h366v-26h-143v-136
q0 -21 6 -28.5t29 -13.5l32 -7v-16h-215v16l32 7q23 6 29 13.5t6 28.5v136z" />
    <glyph glyph-name="sterling" unicode="&#xa3;" horiz-adv-x="486"
d="M59 0q-28 12 -37 21t-9 22q0 21 26.5 37.5t65.5 21.5q27 24 41.5 56t14.5 69q0 13 -2 25t-6 24h-112v26h102q-4 8 -13.5 28t-14.5 32q-7 17 -10 33t-3 32q0 68 57 110.5t150 42.5q50 0 81.5 -15t31.5 -38q0 -10 -8 -23t-25 -28h-5q-48 40 -80.5 57t-60.5 17
q-35 0 -55.5 -22.5t-20.5 -60.5q0 -19 6 -38.5t26 -56.5q15 -27 21 -41.5t10 -28.5h182v-26h-178q1 -3 1 -6v-10q0 -50 -28 -92t-77 -65q28 0 54.5 -4.5t67.5 -16.5q31 -10 47.5 -13t32.5 -3q34 0 57.5 17.5t50.5 62.5l20 -7q-30 -82 -61 -115.5t-73 -33.5q-25 0 -48 9
t-60 36q-30 23 -46 30t-33 7q-22 0 -38.5 -14t-41.5 -58z" />
    <glyph glyph-name="florin" unicode="&#x192;" horiz-adv-x="422"
d="M87 -280q-40 0 -70.5 12t-30.5 30q0 6 6.5 16.5t25.5 33.5h7q36 -34 58.5 -48t42.5 -14q30 0 44 34.5t14 105.5v380h-92v29h92q1 138 52.5 209.5t149.5 71.5q40 0 70.5 -12t30.5 -30q0 -6 -6.5 -16.5t-25.5 -33.5h-7q-36 34 -58.5 48t-42.5 14q-30 0 -44 -34.5
t-14 -105.5v-111h132v-29h-132v-267q0 -139 -52 -211t-150 -72z" />
    <glyph glyph-name="cent" unicode="&#xa2;" horiz-adv-x="366"
d="M215 -9v-91h-30v91q-69 7 -111 56t-42 123q0 73 41.5 124t111.5 67v94h30v-89q4 1 8.5 1h13.5q44 0 72.5 -12t28.5 -29q0 -8 -8 -20.5t-21 -25.5h-5q-36 38 -54 49.5t-37 11.5q-47 0 -74.5 -37t-27.5 -100q0 -71 37 -113t100 -42q24 0 47.5 6.5t47.5 19.5l8 -11
q-26 -27 -65.5 -48.5t-70.5 -24.5z" />
    <glyph glyph-name="colonmonetary" unicode="&#x20a1;" horiz-adv-x="565"
d="M370 649l-243 -708l-33 10l37 108q-43 38 -66 93.5t-23 119.5q0 130 76.5 216t192.5 92l27 79zM243 0l-29 -83l-33 10l246 711l32 -10l-23 -67q19 -7 36.5 -16t33.5 -21v-113h-15l-18 44q-8 22 -20 38.5t-30 28.5l-169 -488q17 -9 36.5 -13.5t37.5 -4.5q50 0 86 21.5
t62 66.5l25 44h13l-5 -105q-30 -23 -82 -38t-103 -15q-19 0 -39.5 2.5t-41.5 7.5zM133 290q0 -39 7 -76.5t20 -70.5l141 409q-78 -9 -123 -78.5t-45 -183.5z" />
    <glyph glyph-name="uni20AE" unicode="&#x20ae;" horiz-adv-x="544"
d="M480 402l-404 -165l-12 26l167 68v211h-116q-25 0 -36.5 -8t-18.5 -30l-23 -73h-15v145l6 2q14 -4 27.5 -6t30.5 -2h371q17 0 30.5 2t27.5 6l7 -2v-145h-16l-22 73q-6 21 -18 29.5t-38 8.5h-116v-178l156 64zM231 207l-155 -63l-12 26l404 165l12 -26l-168 -69v-175
q0 -21 6 -28.5t29 -13.5l32 -7v-16h-215v16l32 7q23 6 29 13.5t6 28.5v142z" />
    <glyph glyph-name="uni20B4" unicode="&#x20b4;" horiz-adv-x="492"
d="M445 312h-400v27h195q61 32 83.5 59.5t22.5 62.5q0 40 -28.5 66t-73.5 26q-44 0 -72 -19t-43 -59l-15 -36h-16l7 106q26 17 60.5 26t72.5 9q75 0 125.5 -43.5t50.5 -109.5q0 -26 -7.5 -48t-22.5 -40h61v-27zM98 232h-53v27h400v-27h-223q-38 -24 -54.5 -50.5t-16.5 -59.5
q0 -51 33 -78.5t93 -27.5q46 0 77 22t49 67l21 53h16l-8 -130q-39 -19 -77 -28.5t-76 -9.5q-87 0 -144 45t-57 120q0 21 5 40.5t15 36.5z" />
    <glyph glyph-name="uni20BA" unicode="&#x20ba;" horiz-adv-x="487"
d="M374 484l12 -26l-348 -147l-12 26l99 42v191h73v-160zM472 174q0 -80 -57.5 -127t-159.5 -47h-130v255l-87 -37l-12 26l348 147l12 -26l-188 -79v-239h101q67 0 103.5 24t36.5 67q0 12 -6.5 24.5t-36.5 44.5v5q15 13 25 19t18 6q15 0 24 -17t9 -46z" />
    <glyph glyph-name="uni20B9" unicode="&#x20b9;" horiz-adv-x="444"
d="M421 16v-16h-108q-24 0 -34 4.5t-21 21.5l-127 191q-11 17 -24.5 23t-41.5 6h-48v27h79q70 0 107 29.5t43 89.5h-229v27h230q-2 59 -36 91.5t-96 32.5h-98v27h416v-27h-209q52 -11 81.5 -42.5t29.5 -77.5v-4h95v-27h-98q-11 -47 -50 -80.5t-96 -44.5l144 -203
q16 -23 26 -29t37 -13z" />
    <glyph glyph-name="dong" unicode="&#x20ab;" horiz-adv-x="461"
d="M446 27l-127 -35v53q-31 -23 -68 -39t-60 -16q-71 0 -115 47.5t-44 123.5q0 91 58.5 148.5t149.5 57.5q19 0 38 -3t41 -10v135h-105v26h105v72q0 15 -3.5 21t-14.5 11l-24 13v11l114 37l7 -5q-3 -20 -4 -39t-1 -47v-74h53v-26h-53v-414q0 -13 4 -18.5t20 -9.5l29 -7v-13z
M229 344q-56 0 -87.5 -39t-31.5 -108q0 -72 33.5 -114t90.5 -42q23 0 45.5 6.5t39.5 18.5v182q0 46 -24 71t-66 25zM446 -120h-414v27h414v-27z" />
    <glyph glyph-name="uni20A9" unicode="&#x20a9;" horiz-adv-x="843"
d="M804 353v-27h-768v27h92l-68 164q-7 16 -13.5 21.5t-20.5 8.5l-24 6v17h203v-18l-40 -9q-17 -3 -21 -8.5t1 -16.5l67 -165h163l-71 164q-6 15 -13.5 21t-21.5 9l-23 6v17h196v-18l-36 -9q-15 -4 -19.5 -9.5t0.5 -17.5l71 -164h10l71 167q5 10 1.5 15t-21.5 11l-27 7v18
h151v-17l-30 -7q-13 -3 -20 -8t-15 -21l-77 -164h178l63 165q4 12 0 17.5t-20 8.5l-38 8v18h157v-17l-24 -7q-16 -4 -23 -9.5t-12 -19.5l-66 -164h88zM673 246l-102 -252h-41l-104 237h-4l-103 -237h-42l-104 252h-137v27h768v-27h-131zM256 246l68 -168l71 168h-139z
M503 246l73 -170l64 170h-137z" />
    <glyph glyph-name="uni20AA" unicode="&#x20aa;" horiz-adv-x="612"
d="M200 0v330h56v-286h112q77 0 110.5 33.5t33.5 110.5v282h80v-282q0 -95 -52 -141.5t-156 -46.5h-184zM411 280v-141h-55v141q0 76 -32 110.5t-104 34.5h-121v-425h-79v470h208q92 0 137.5 -46.5t45.5 -143.5z" />
    <glyph glyph-name="uni20AD" unicode="&#x20ad;" horiz-adv-x="605"
d="M256 16v-16h-215v16l32 7q23 6 29 13.5t6 28.5v239h-67v26h67v174q0 21 -6 28.5t-29 13.5l-32 7v17h215v-17l-32 -7q-23 -6 -29 -13.5t-6 -28.5v-198l233 210q12 10 9 17.5t-20 11.5l-40 8v17h201v-17l-30 -7q-23 -4 -36 -10t-27 -17l-222 -186l3 -3h276v-26h-252
l222 -242q15 -16 29 -23.5t41 -15.5l24 -7v-16h-249v16l43 9q18 4 21 10t-8 19l-218 236v-225q0 -21 6 -28.5t29 -13.5z" />
    <glyph glyph-name="uni20B1" unicode="&#x20b1;" horiz-adv-x="558"
d="M540 426h-499v27h67v51q0 21 -6 28.5t-29 13.5l-32 7v17h229q79 0 133 -31.5t69 -85.5h68v-27zM253 543h-64v-90h194q-12 45 -44.5 67.5t-85.5 22.5zM276 16v-16h-235v16l32 7q23 6 29 13.5t6 28.5v284h-67v27h499v-27h-77q-23 -53 -82 -82t-145 -29h-13v16l14 2
q59 5 95.5 28.5t49.5 64.5h-193v-284q0 -22 6.5 -29.5t28.5 -10.5z" />
    <glyph glyph-name="uni20B5" unicode="&#x20b5;" horiz-adv-x="565"
d="M335 -10v-90h-32v91q-116 7 -188.5 86t-72.5 201q0 127 72.5 210t188.5 91v91h32v-90q47 -1 90.5 -15.5t80.5 -40.5v-113h-15l-18 44q-18 47 -57 72.5t-94 25.5q-86 0 -138 -70.5t-52 -186.5q0 -123 57 -201.5t140 -78.5q50 0 86 21.5t61 66.5l25 44h13l-5 -105
q-29 -22 -77.5 -37t-96.5 -16z" />
    <glyph glyph-name="uni20B8" unicode="&#x20b8;" horiz-adv-x="544"
d="M522 570v-27h-500v27h500zM379 16v-16h-215v16l32 7q23 6 29 13.5t6 28.5v398h-116q-25 0 -36.5 -8t-18.5 -30l-23 -73h-15v144l6 2q14 -4 27.5 -6t30.5 -2h371q17 0 30.5 2t27.5 6l7 -2v-144h-16l-22 73q-6 21 -18.5 29.5t-37.5 8.5h-116v-398q0 -21 6 -28.5t29 -13.5z
" />
    <glyph glyph-name="uni20BC" unicode="&#x20bc;" horiz-adv-x="550"
d="M92 0h-68v121q0 165 55 253t166 99v107h60v-107q110 -11 165.5 -99t55.5 -253v-121h-68v149q0 139 -37.5 212t-115.5 84v-320l-60 -23v343q-78 -11 -115.5 -84t-37.5 -212v-149z" />
    <glyph glyph-name="uni20BD" unicode="&#x20bd;" horiz-adv-x="510"
d="M477 413q0 -83 -60.5 -129.5t-171.5 -46.5h-204v26h67v241q0 21 -6 28.5t-29 13.5l-32 7v17h229q94 0 150.5 -42.5t56.5 -114.5zM253 543h-64v-280h61q68 0 103.5 36t35.5 103q0 68 -35 104.5t-101 36.5zM276 16v-16h-235v16l32 7q23 6 29 13.5t6 28.5v95h-67v27h339v-27
h-191v-95q0 -20 5.5 -27t29.5 -12z" />
    <glyph glyph-name="currency" unicode="&#xa4;" horiz-adv-x="500"
d="M145 128l-56 -56l-22 23l55 55q-19 21 -29 48.5t-10 57.5q0 29 10 56.5t28 49.5l-55 55l22 22l56 -56q21 17 47 26t54 9q29 0 56 -10t50 -29l60 60l22 -23l-60 -60q16 -22 25 -47.5t9 -52.5t-9 -52.5t-26 -47.5l61 -61l-23 -23l-61 61q-22 -19 -48.5 -29t-55.5 -10
q-27 0 -53 9t-47 25zM113 256q0 -58 36.5 -96.5t95.5 -38.5t95 38t36 97q0 58 -36 96t-95 38t-95.5 -38t-36.5 -96z" />
    <glyph glyph-name="zero" unicode="0" horiz-adv-x="488"
d="M244 580q92 0 149.5 -80.5t57.5 -213.5q0 -128 -59 -212t-147 -84q-92 0 -150.5 80.5t-58.5 213.5q0 127 60 211.5t148 84.5zM247 14q55 0 86 71.5t31 199.5t-32 198.5t-90 70.5q-56 0 -87.5 -71t-31.5 -197q0 -130 32.5 -201t91.5 -71z" />
    <glyph glyph-name="one" unicode="1" horiz-adv-x="310"
d="M273 14v-14h-228v14l51 10q15 3 20 10t5 24v385q0 26 -7 36.5t-24 10.5q-9 0 -18 -2t-35 -12l-8 16l162 90l11 -6q-3 -16 -4 -33t-1 -38v-447q0 -17 5 -24t19 -10z" />
    <glyph glyph-name="two" unicode="2" horiz-adv-x="426"
d="M401 123l-26 -123h-346v11q154 158 211 241t57 151q0 51 -29 81.5t-79 30.5q-52 0 -87 -32t-57 -98l-13 2q14 93 61 143t122 50t118.5 -43t43.5 -111t-54.5 -144t-200.5 -210v-2h190q31 0 43.5 6t19.5 24l10 25z" />
    <glyph glyph-name="three" unicode="3" horiz-adv-x="409"
d="M374 179q0 -79 -69.5 -134t-173.5 -55q-55 0 -85.5 15t-30.5 43q0 11 6 22.5t22 29.5h5q26 -40 56 -58t70 -18q60 0 94.5 35t34.5 94q0 57 -39.5 91t-105.5 34q-15 0 -30.5 -2.5t-29.5 -7.5l-6 22q90 28 131.5 62.5t41.5 83.5q0 37 -25 58.5t-68 21.5q-46 0 -79.5 -24
t-50.5 -70l-12 4q14 72 59.5 113t111.5 41q62 0 101 -32.5t39 -82.5q0 -44 -28 -76.5t-85 -54.5v-2q67 -8 106.5 -50.5t39.5 -102.5z" />
    <glyph glyph-name="four" unicode="4" horiz-adv-x="454"
d="M412 15v-15h-224v15l45 10q18 3 23.5 10.5t5.5 26.5v92h-247v37l301 389h22v-381h99v-45h-99v-92q0 -19 5.5 -26.5t23.5 -10.5zM262 461l-205 -262h205v262z" />
    <glyph glyph-name="five" unicode="5" horiz-adv-x="403"
d="M368 183q0 -82 -69.5 -137.5t-170.5 -55.5q-55 0 -85.5 15t-30.5 43q0 11 6 22.5t22 29.5h5q26 -40 56.5 -58t72.5 -18q56 0 90 34.5t34 90.5q0 65 -57 102.5t-173 50.5l-3 4l40 264h251l-12 -70h-219l-19 -127q125 -13 193.5 -63t68.5 -127z" />
    <glyph glyph-name="six" unicode="6" horiz-adv-x="459"
d="M33 219q0 135 82.5 234t228.5 133l4 -16q-110 -41 -169 -128.5t-59 -208.5q0 -101 33 -160t90 -59q48 0 76.5 39.5t28.5 105.5q0 67 -30.5 104.5t-86.5 37.5q-21 0 -41 -6t-37 -17l-9 12q24 24 65.5 42.5t65.5 18.5q69 0 112.5 -46.5t43.5 -118.5q0 -86 -55.5 -141
t-141.5 -55q-90 0 -145.5 62.5t-55.5 166.5z" />
    <glyph glyph-name="seven" unicode="7" horiz-adv-x="406"
d="M387 558l-216 -558h-59v11l222 487h-213q-30 0 -43 -7t-22 -29l-10 -25l-14 2l19 131h336v-12z" />
    <glyph glyph-name="eight" unicode="8" horiz-adv-x="444"
d="M276 318q80 -45 108.5 -82.5t28.5 -84.5q0 -75 -54 -118t-143 -43q-83 0 -134 39.5t-51 105.5q0 49 29.5 84t101.5 72q-57 34 -80.5 67t-23.5 76q0 65 49.5 105.5t127.5 40.5q69 0 112 -34.5t43 -91.5q0 -43 -27 -75.5t-87 -60.5zM224 555q-43 0 -70 -24.5t-27 -65.5
q0 -35 25 -64.5t102 -71.5q35 22 51.5 51t16.5 69q0 50 -26 78t-72 28zM182 280q-38 -24 -56.5 -57.5t-18.5 -79.5q0 -60 31 -94.5t85 -34.5q51 0 84 29.5t33 77.5q0 29 -13.5 53.5t-41.5 45.5q-10 8 -35.5 22.5t-67.5 37.5z" />
    <glyph glyph-name="nine" unicode="9" horiz-adv-x="460"
d="M427 351q0 -135 -82.5 -234t-228.5 -133l-4 16q110 41 169 128.5t59 208.5q0 101 -33 160t-90 59q-48 0 -76.5 -39.5t-28.5 -105.5q0 -67 30.5 -104.5t86.5 -37.5q21 0 41 6t37 17l9 -12q-24 -24 -65.5 -42.5t-65.5 -18.5q-69 0 -112.5 46.5t-43.5 118.5q0 86 55.5 141
t141.5 55q90 0 145.5 -62.5t55.5 -166.5z" />
    <glyph glyph-name="zero.tlf" horiz-adv-x="480"
d="M240 580q92 0 149.5 -80.5t57.5 -213.5q0 -128 -59 -212t-147 -84q-92 0 -150.5 80.5t-58.5 213.5q0 127 60 211.5t148 84.5zM243 14q55 0 86 71.5t31 199.5t-32 198.5t-90 70.5q-56 0 -87.5 -71t-31.5 -197q0 -130 32.5 -201t91.5 -71z" />
    <glyph glyph-name="one.tlf" horiz-adv-x="480"
d="M391 14v-14h-287v14l81 12q15 2 20 9t5 23v385q0 25 -7.5 35.5t-23.5 10.5q-8 0 -20.5 -3t-63.5 -24l-7 16l192 104l10 -6q-2 -17 -3 -34t-1 -37v-447q0 -17 4.5 -23.5t19.5 -8.5z" />
    <glyph glyph-name="two.tlf" horiz-adv-x="480"
d="M423 123l-26 -123h-346v11q154 158 211 241t57 151q0 51 -29 81.5t-79 30.5q-52 0 -87 -32t-57 -98l-13 2q14 93 61 143t122 50t118.5 -43t43.5 -111t-54.5 -144t-200.5 -210v-2h190q31 0 43.5 6t19.5 24l10 25z" />
    <glyph glyph-name="three.tlf" horiz-adv-x="480"
d="M405 179q0 -79 -69.5 -134t-173.5 -55q-55 0 -85.5 15t-30.5 43q0 11 6 22.5t22 29.5h5q26 -40 56 -58t70 -18q60 0 94.5 35t34.5 94q0 57 -39.5 91t-105.5 34q-15 0 -30.5 -2.5t-29.5 -7.5l-6 22q90 28 131.5 62.5t41.5 83.5q0 37 -25 58.5t-68 21.5q-46 0 -79.5 -24
t-50.5 -70l-12 4q14 72 59.5 113t111.5 41q62 0 101 -32.5t39 -82.5q0 -44 -28 -76.5t-85 -54.5v-2q67 -8 106.5 -50.5t39.5 -102.5z" />
    <glyph glyph-name="four.tlf" horiz-adv-x="480"
d="M425 15v-15h-224v15l45 10q18 3 23.5 10.5t5.5 26.5v92h-247v37l301 389h22v-381h99v-45h-99v-92q0 -19 5.5 -26.5t23.5 -10.5zM275 461l-205 -262h205v262z" />
    <glyph glyph-name="five.tlf" horiz-adv-x="480"
d="M401 183q0 -82 -69.5 -137.5t-170.5 -55.5q-55 0 -85.5 15t-30.5 43q0 11 6 22.5t22 29.5h5q26 -40 56.5 -58t72.5 -18q56 0 90 34.5t34 90.5q0 65 -57 102.5t-173 50.5l-3 4l40 264h251l-12 -70h-219l-19 -127q125 -13 193.5 -63t68.5 -127z" />
    <glyph glyph-name="six.tlf" horiz-adv-x="480"
d="M44 219q0 135 82.5 234t228.5 133l4 -16q-110 -41 -169 -128.5t-59 -208.5q0 -101 33 -160t90 -59q48 0 76.5 39.5t28.5 105.5q0 67 -30.5 104.5t-86.5 37.5q-21 0 -41 -6t-37 -17l-9 12q24 24 65.5 42.5t65.5 18.5q69 0 112.5 -46.5t43.5 -118.5q0 -86 -55.5 -141
t-141.5 -55q-90 0 -145.5 62.5t-55.5 166.5z" />
    <glyph glyph-name="seven.tlf" horiz-adv-x="480"
d="M418 558l-216 -558h-59v11l222 487h-213q-30 0 -43 -7t-22 -29l-10 -25l-14 2l19 131h336v-12z" />
    <glyph glyph-name="eight.tlf" horiz-adv-x="480"
d="M293 318q80 -45 108.5 -82.5t28.5 -84.5q0 -75 -54 -118t-143 -43q-83 0 -134 39.5t-51 105.5q0 49 29.5 84t101.5 72q-57 34 -80.5 67t-23.5 76q0 65 49.5 105.5t127.5 40.5q69 0 112 -34.5t43 -91.5q0 -43 -27 -75.5t-87 -60.5zM241 555q-43 0 -70 -24.5t-27 -65.5
q0 -35 25 -64.5t102 -71.5q35 22 51.5 51t16.5 69q0 50 -26 78t-72 28zM199 280q-38 -24 -56.5 -57.5t-18.5 -79.5q0 -60 31 -94.5t85 -34.5q51 0 84 29.5t33 77.5q0 29 -13.5 53.5t-41.5 45.5q-10 8 -35.5 22.5t-67.5 37.5z" />
    <glyph glyph-name="nine.tlf" horiz-adv-x="480"
d="M435 351q0 -135 -82.5 -234t-228.5 -133l-4 16q110 41 169 128.5t59 208.5q0 101 -33 160t-90 59q-48 0 -76.5 -39.5t-28.5 -105.5q0 -67 30.5 -104.5t86.5 -37.5q21 0 41 6t37 17l9 -12q-24 -24 -65.5 -42.5t-65.5 -18.5q-69 0 -112.5 46.5t-43.5 118.5q0 86 55.5 141
t141.5 55q90 0 145.5 -62.5t55.5 -166.5z" />
    <glyph glyph-name="zero.posf" horiz-adv-x="558"
d="M276 480q107 0 173.5 -66t66.5 -178q0 -106 -68.5 -176t-166.5 -70q-108 0 -174 65t-66 178q0 105 68.5 176t166.5 71zM284 14q67 0 106.5 58.5t39.5 157.5q0 102 -42.5 163t-114.5 61q-66 0 -105.5 -58.5t-39.5 -157.5q0 -102 42 -163t114 -61z" />
    <glyph glyph-name="one.posf" horiz-adv-x="300"
d="M264 14v-14h-228v14l51 10q15 3 20 10t5 24v352q0 17 -5 24t-20 10l-51 11v15h228v-15l-52 -11q-14 -2 -19 -9t-5 -25v-352q0 -17 5 -24t19 -10z" />
    <glyph glyph-name="two.posf" horiz-adv-x="400"
d="M180 480q72 0 118 -42t46 -106q0 -38 -20 -74.5t-63 -76.5q-20 -19 -47.5 -40.5t-92.5 -68.5v-2h252l-10 -70h-350v11q153 121 200 177.5t47 114.5q0 51 -29.5 81.5t-81.5 30.5q-42 0 -74 -24.5t-54 -72.5l-12 2q13 77 57.5 118.5t113.5 41.5z" />
    <glyph glyph-name="three.posf" horiz-adv-x="418"
d="M374 79q0 -79 -69.5 -134t-173.5 -55q-55 0 -85.5 15t-30.5 43q0 11 6 22.5t22 29.5h5q26 -40 56 -58t70 -18q60 0 94.5 35t34.5 94q0 57 -39.5 91t-105.5 34q-15 0 -30.5 -2.5t-29.5 -7.5l-6 22q90 28 131.5 62.5t41.5 83.5q0 37 -25 58.5t-68 21.5q-46 0 -79.5 -24
t-50.5 -70l-12 4q14 72 59.5 113t111.5 41q62 0 101 -32.5t39 -82.5q0 -44 -28 -76.5t-85 -54.5v-2q67 -8 106.5 -50.5t39.5 -102.5z" />
    <glyph glyph-name="four.posf" horiz-adv-x="456"
d="M338 54v-154h-76v154h-247v37l301 389h22v-381h100v-45h-100zM262 361l-205 -262h205v262z" />
    <glyph glyph-name="five.posf" horiz-adv-x="410"
d="M368 83q0 -82 -69.5 -137.5t-170.5 -55.5q-55 0 -85.5 15t-30.5 43q0 11 6 22.5t22 29.5h5q26 -40 56.5 -58t72.5 -18q56 0 90 34.5t34 90.5q0 65 -57 102.5t-173 50.5l-3 4l40 264h251l-12 -70h-219l-19 -127q125 -13 193.5 -63t68.5 -127z" />
    <glyph glyph-name="six.posf" horiz-adv-x="459"
d="M33 219q0 135 82.5 234t228.5 133l4 -16q-110 -41 -169 -128.5t-59 -208.5q0 -101 33 -160t90 -59q48 0 76.5 39.5t28.5 105.5q0 67 -30.5 104.5t-86.5 37.5q-21 0 -41 -6t-37 -17l-9 12q24 24 65.5 42.5t65.5 18.5q69 0 112.5 -46.5t43.5 -118.5q0 -86 -55.5 -141
t-141.5 -55q-90 0 -145.5 62.5t-55.5 166.5z" />
    <glyph glyph-name="seven.posf" horiz-adv-x="358"
d="M346 458l-241 -569h-44v12l232 496h-292l11 73h334v-12z" />
    <glyph glyph-name="eight.posf" horiz-adv-x="444"
d="M276 318q80 -45 108.5 -82.5t28.5 -84.5q0 -75 -54 -118t-143 -43q-83 0 -134 39.5t-51 105.5q0 49 29.5 84t101.5 72q-57 34 -80.5 67t-23.5 76q0 65 49.5 105.5t127.5 40.5q69 0 112 -34.5t43 -91.5q0 -43 -27 -75.5t-87 -60.5zM224 555q-43 0 -70 -24.5t-27 -65.5
q0 -35 25 -64.5t102 -71.5q35 22 51.5 51t16.5 69q0 50 -26 78t-72 28zM182 280q-38 -24 -56.5 -57.5t-18.5 -79.5q0 -60 31 -94.5t85 -34.5q51 0 84 29.5t33 77.5q0 29 -13.5 53.5t-41.5 45.5q-10 8 -35.5 22.5t-67.5 37.5z" />
    <glyph glyph-name="nine.posf" horiz-adv-x="460"
d="M427 251q0 -135 -82.5 -234t-228.5 -133l-4 16q110 41 169 128.5t59 208.5q0 101 -33 160t-90 59q-48 0 -76.5 -39.5t-28.5 -105.5q0 -67 30.5 -104.5t86.5 -37.5q21 0 41 6t37 17l9 -12q-24 -24 -65.5 -42.5t-65.5 -18.5q-69 0 -112.5 46.5t-43.5 118.5q0 86 55.5 141
t141.5 55q90 0 145.5 -62.5t55.5 -166.5z" />
    <glyph glyph-name="degree" unicode="&#xb0;" horiz-adv-x="287"
d="M264 477q0 -50 -35 -84.5t-86 -34.5q-50 0 -85 34.5t-35 84.5t35 84.5t85 34.5q51 0 86 -34.5t35 -84.5zM66 477q0 -35 22 -58t55 -23t55 23t22 58t-22 58t-55 23t-55 -23t-22 -58z" />
    <glyph glyph-name="percent" unicode="%" horiz-adv-x="591"
d="M245 428q0 -64 -32.5 -106.5t-82.5 -42.5q-49 0 -81 42.5t-32 106.5t32 105.5t81 41.5q50 0 82.5 -41.5t32.5 -105.5zM77 428q0 -65 13.5 -98.5t40.5 -33.5q26 0 40 34t14 98q0 63 -14 96.5t-41 33.5q-26 0 -39.5 -33t-13.5 -97zM468 555l-323 -555l-25 14l324 556z
M574 143q0 -64 -32.5 -106.5t-82.5 -42.5q-49 0 -81 42.5t-32 106.5t32 105.5t81 41.5q50 0 82.5 -41.5t32.5 -105.5zM406 143q0 -65 13.5 -98.5t40.5 -33.5q26 0 40 34t14 98q0 63 -14 96.5t-41 33.5q-26 0 -39.5 -33t-13.5 -97z" />
    <glyph glyph-name="perthousand" unicode="&#x2030;" horiz-adv-x="871"
d="M245 428q0 -64 -32.5 -106.5t-82.5 -42.5q-49 0 -81 42.5t-32 106.5t32 105.5t81 41.5q50 0 82.5 -41.5t32.5 -105.5zM77 428q0 -65 13.5 -98.5t40.5 -33.5q26 0 40 34t14 98q0 63 -14 96.5t-41 33.5q-26 0 -39.5 -33t-13.5 -97zM468 555l-323 -555l-25 14l324 556z
M574 143q0 -64 -32.5 -106.5t-82.5 -42.5q-49 0 -81 42.5t-32 106.5t32 105.5t81 41.5q50 0 82.5 -41.5t32.5 -105.5zM406 143q0 -65 13.5 -98.5t40.5 -33.5q26 0 40 34t14 98q0 63 -14 96.5t-41 33.5q-26 0 -39.5 -33t-13.5 -97zM854 143q0 -64 -32.5 -106.5t-82.5 -42.5
q-49 0 -81 42.5t-32 106.5t32 105.5t81 41.5q50 0 82.5 -41.5t32.5 -105.5zM686 143q0 -65 13.5 -98.5t40.5 -33.5q26 0 40 34t14 98q0 63 -14 96.5t-41 33.5q-26 0 -39.5 -33t-13.5 -97z" />
    <glyph glyph-name="fraction" unicode="&#x2044;" horiz-adv-x="88"
d="M218 555l-323 -555l-25 14l324 556z" />
    <glyph glyph-name="uni2215" unicode="&#x2215;" horiz-adv-x="192"
d="M270 555l-323 -555l-25 14l324 556z" />
    <glyph glyph-name="zerosuperior" unicode="&#x2070;" horiz-adv-x="262"
d="M245 516q0 -64 -32.5 -106.5t-82.5 -42.5q-49 0 -81 42.5t-32 106.5t32 105.5t81 41.5q50 0 82.5 -41.5t32.5 -105.5zM77 516q0 -65 13.5 -98.5t40.5 -33.5q26 0 40 34t14 98q0 63 -14 96.5t-41 33.5q-26 0 -39.5 -33t-13.5 -97z" />
    <glyph glyph-name="onesuperior" unicode="&#xb9;" horiz-adv-x="168"
d="M153 383v-10h-130v10l26 5q7 2 9.5 5.5t2.5 11.5v178q0 16 -4.5 22.5t-15.5 6.5q-4 0 -8.5 -1t-14.5 -4l-5 9l99 50l6 -3q-2 -9 -2.5 -18t-0.5 -26v-214q0 -9 2.5 -12.5t9.5 -4.5z" />
    <glyph glyph-name="twosuperior" unicode="&#xb2;" horiz-adv-x="223"
d="M212 453l-17 -80h-182v6q72 71 102 112.5t30 76.5q0 25 -13.5 38.5t-38.5 13.5t-42 -14.5t-29 -44.5h-7q8 48 33 75t63 27q40 0 63.5 -21.5t23.5 -55.5q0 -33 -28 -70.5t-91 -91.5v-2h92q12 0 17 3.5t9 12.5l5 16z" />
    <glyph glyph-name="threesuperior" unicode="&#xb3;" horiz-adv-x="215"
d="M201 461q0 -40 -38 -66.5t-97 -26.5q-27 0 -42.5 8t-15.5 23q0 6 4.5 14t12.5 16h4q13 -21 29.5 -31.5t34.5 -10.5q28 0 45 16t17 43q0 26 -19.5 42.5t-52.5 16.5q-8 0 -17.5 -1.5t-17.5 -4.5l-4 12q46 16 66 32.5t20 40.5q0 16 -12.5 26.5t-33.5 10.5q-23 0 -39 -11.5
t-24 -34.5l-7 2q6 40 30.5 63t62.5 23q34 0 54 -16t20 -42q0 -21 -13.5 -36t-44.5 -26v-1q36 -4 57 -26.5t21 -54.5z" />
    <glyph glyph-name="foursuperior" unicode="&#x2074;" horiz-adv-x="246"
d="M219 385v-12h-125v12l18 3q11 1 14.5 5t3.5 16v36h-117v24l152 194h18v-189h49v-29h-49v-36q0 -12 3.5 -16t14.5 -5zM130 589l-92 -115h92v115z" />
    <glyph glyph-name="fivesuperior" unicode="&#x2075;" horiz-adv-x="207"
d="M192 466q0 -44 -35 -71t-93 -27q-27 0 -42 8t-15 23q0 6 4.5 14t12.5 16h4q14 -22 30 -32t37 -10q24 0 37.5 14.5t13.5 39.5q0 29 -28 47t-83 23l-2 2l25 145h131l-7 -51h-115l-7 -47q62 -6 97 -31t35 -63z" />
    <glyph glyph-name="sixsuperior" unicode="&#x2076;" horiz-adv-x="235"
d="M15 479q0 67 46.5 116t126.5 68l2 -9q-55 -23 -84.5 -67.5t-29.5 -105.5q0 -48 12 -72t36 -24q20 0 32 17.5t12 46.5t-13.5 47.5t-35.5 18.5q-7 0 -14 -1.5t-13 -5.5l-5 6q12 12 31 21t32 9q33 0 53.5 -22t20.5 -56q0 -43 -29 -70.5t-74 -27.5q-49 0 -77.5 29t-28.5 82z
" />
    <glyph glyph-name="sevensuperior" unicode="&#x2077;" horiz-adv-x="216"
d="M206 651l-114 -278h-34v6l112 228h-113q-12 0 -16.5 -3.5t-8.5 -14.5l-5 -16l-8 2l7 83h180v-7z" />
    <glyph glyph-name="eightsuperior" unicode="&#x2078;" horiz-adv-x="228"
d="M150 535q36 -20 50.5 -39t14.5 -44q0 -39 -29 -61.5t-77 -22.5q-45 0 -70.5 19.5t-25.5 54.5q0 24 14.5 42.5t44.5 30.5q-23 14 -33.5 31t-10.5 39q0 35 26 56.5t69 21.5q36 0 57.5 -17t21.5 -47q0 -21 -13.5 -38t-38.5 -26zM117 645q-20 0 -32 -9.5t-12 -26.5
q0 -18 12 -32t52 -35q12 9 18 23t6 32q0 23 -11.5 35.5t-32.5 12.5zM84 509q-12 -11 -18 -26t-6 -34q0 -29 15 -46.5t40 -17.5q23 0 37.5 12.5t14.5 32.5q0 15 -7 27t-23 23q-9 7 -28.5 16.5t-24.5 12.5z" />
    <glyph glyph-name="ninesuperior" unicode="&#x2079;" horiz-adv-x="237"
d="M221 552q0 -67 -46 -116t-126 -68l-3 8q56 23 85.5 67.5t29.5 105.5q0 48 -12 72t-36 24q-20 0 -32 -17t-12 -46q0 -31 13 -49t36 -18q7 0 14 1.5t13 5.5l5 -6q-13 -13 -32 -21.5t-32 -8.5q-32 0 -52.5 22t-20.5 56q0 44 29 71.5t74 27.5q49 0 77 -29.5t28 -81.5z" />
    <glyph glyph-name="zeroinferior" unicode="&#x2080;" horiz-adv-x="262"
d="M245 55q0 -64 -32.5 -106.5t-82.5 -42.5q-49 0 -81 42.5t-32 106.5t32 105.5t81 41.5q50 0 82.5 -41.5t32.5 -105.5zM77 55q0 -65 13.5 -98.5t40.5 -33.5q26 0 40 34t14 98q0 63 -14 96.5t-41 33.5q-26 0 -39.5 -33t-13.5 -97z" />
    <glyph glyph-name="oneinferior" unicode="&#x2081;" horiz-adv-x="168"
d="M153 -78v-10h-130v10l26 5q7 2 9.5 5.5t2.5 11.5v178q0 16 -4.5 22.5t-15.5 6.5q-4 0 -8.5 -1t-14.5 -4l-5 9l99 50l6 -3q-2 -9 -2.5 -18t-0.5 -26v-214q0 -9 2.5 -12.5t9.5 -4.5z" />
    <glyph glyph-name="twoinferior" unicode="&#x2082;" horiz-adv-x="223"
d="M212 -8l-17 -80h-182v6q72 71 102 112.5t30 76.5q0 25 -13.5 38.5t-38.5 13.5t-42 -14.5t-29 -44.5h-7q8 48 33 75t63 27q40 0 63.5 -21.5t23.5 -55.5q0 -33 -28 -70.5t-91 -91.5v-2h92q12 0 17 3.5t9 12.5l5 16z" />
    <glyph glyph-name="threeinferior" unicode="&#x2083;" horiz-adv-x="215"
d="M201 0q0 -40 -38 -66.5t-97 -26.5q-27 0 -42.5 8t-15.5 23q0 6 4.5 14t12.5 16h4q13 -21 29.5 -31.5t34.5 -10.5q28 0 45 16t17 43q0 26 -19.5 42.5t-52.5 16.5q-8 0 -17.5 -1.5t-17.5 -4.5l-4 12q46 16 66 32.5t20 40.5q0 16 -12.5 26.5t-33.5 10.5q-23 0 -39 -11.5
t-24 -34.5l-7 2q6 40 30.5 63t62.5 23q34 0 54 -16t20 -42q0 -21 -13.5 -36t-44.5 -26v-1q36 -4 57 -26.5t21 -54.5z" />
    <glyph glyph-name="fourinferior" unicode="&#x2084;" horiz-adv-x="246"
d="M219 -76v-12h-125v12l18 3q11 1 14.5 5t3.5 16v36h-117v24l152 194h18v-189h49v-29h-49v-36q0 -12 3.5 -16t14.5 -5zM130 128l-92 -115h92v115z" />
    <glyph glyph-name="fiveinferior" unicode="&#x2085;" horiz-adv-x="207"
d="M192 5q0 -44 -35 -71t-93 -27q-27 0 -42 8t-15 23q0 6 4.5 14t12.5 16h4q14 -22 30 -32t37 -10q24 0 37.5 14.5t13.5 39.5q0 29 -28 47t-83 23l-2 2l25 145h131l-7 -51h-115l-7 -47q62 -6 97 -31t35 -63z" />
    <glyph glyph-name="sixinferior" unicode="&#x2086;" horiz-adv-x="235"
d="M15 18q0 67 46.5 116t126.5 68l2 -9q-55 -23 -84.5 -67.5t-29.5 -105.5q0 -48 12 -72t36 -24q20 0 32 17.5t12 46.5t-13.5 47.5t-35.5 18.5q-7 0 -14 -1.5t-13 -5.5l-5 6q12 12 31 21t32 9q33 0 53.5 -22t20.5 -56q0 -43 -29 -70.5t-74 -27.5q-49 0 -77.5 29t-28.5 82z
" />
    <glyph glyph-name="seveninferior" unicode="&#x2087;" horiz-adv-x="216"
d="M206 190l-114 -278h-34v6l112 228h-113q-12 0 -16.5 -3.5t-8.5 -14.5l-5 -16l-8 2l7 83h180v-7z" />
    <glyph glyph-name="eightinferior" unicode="&#x2088;" horiz-adv-x="228"
d="M150 74q36 -20 50.5 -39t14.5 -44q0 -39 -29 -61.5t-77 -22.5q-45 0 -70.5 19.5t-25.5 54.5q0 24 14.5 42.5t44.5 30.5q-23 14 -33.5 31t-10.5 39q0 35 26 56.5t69 21.5q36 0 57.5 -17t21.5 -47q0 -21 -13.5 -38t-38.5 -26zM117 184q-20 0 -32 -9.5t-12 -26.5
q0 -18 12 -32t52 -35q12 9 18 23t6 32q0 23 -11.5 35.5t-32.5 12.5zM84 48q-12 -11 -18 -26t-6 -34q0 -29 15 -46.5t40 -17.5q23 0 37.5 12.5t14.5 32.5q0 15 -7 27t-23 23q-9 7 -28.5 16.5t-24.5 12.5z" />
    <glyph glyph-name="nineinferior" unicode="&#x2089;" horiz-adv-x="237"
d="M221 91q0 -67 -46 -116t-126 -68l-3 8q56 23 85.5 67.5t29.5 105.5q0 48 -12 72t-36 24q-20 0 -32 -17t-12 -46q0 -31 13 -49t36 -18q7 0 14 1.5t13 5.5l5 -6q-13 -13 -32 -21.5t-32 -8.5q-32 0 -52.5 22t-20.5 56q0 44 29 71.5t74 27.5q49 0 77 -29.5t28 -81.5z" />
    <glyph glyph-name="zero.numerator" horiz-adv-x="262"
d="M245 428q0 -64 -32.5 -106.5t-82.5 -42.5q-49 0 -81 42.5t-32 106.5t32 105.5t81 41.5q50 0 82.5 -41.5t32.5 -105.5zM77 428q0 -65 13.5 -98.5t40.5 -33.5q26 0 40 34t14 98q0 63 -14 96.5t-41 33.5q-26 0 -39.5 -33t-13.5 -97z" />
    <glyph glyph-name="one.numerator" horiz-adv-x="168"
d="M153 295v-10h-130v10l26 5q7 2 9.5 5.5t2.5 11.5v178q0 16 -4.5 22.5t-15.5 6.5q-4 0 -8.5 -1t-14.5 -4l-5 9l99 50l6 -3q-2 -9 -2.5 -18t-0.5 -26v-214q0 -9 2.5 -12.5t9.5 -4.5z" />
    <glyph glyph-name="two.numerator" horiz-adv-x="223"
d="M212 365l-17 -80h-182v6q72 71 102 112.5t30 76.5q0 25 -13.5 38.5t-38.5 13.5t-42 -14.5t-29 -44.5h-7q8 48 33 75t63 27q40 0 63.5 -21.5t23.5 -55.5q0 -33 -28 -70.5t-91 -91.5v-2h92q12 0 17 3.5t9 12.5l5 16z" />
    <glyph glyph-name="three.numerator" horiz-adv-x="215"
d="M201 373q0 -40 -38 -66.5t-97 -26.5q-27 0 -42.5 8t-15.5 23q0 6 4.5 14t12.5 16h4q13 -21 29.5 -31.5t34.5 -10.5q28 0 45 16t17 43q0 26 -19.5 42.5t-52.5 16.5q-8 0 -17.5 -1.5t-17.5 -4.5l-4 12q46 16 66 32.5t20 40.5q0 16 -12.5 26.5t-33.5 10.5q-23 0 -39 -11.5
t-24 -34.5l-7 2q6 40 30.5 63t62.5 23q34 0 54 -16t20 -42q0 -21 -13.5 -36t-44.5 -26v-1q36 -4 57 -26.5t21 -54.5z" />
    <glyph glyph-name="four.numerator" horiz-adv-x="246"
d="M219 297v-12h-125v12l18 3q11 1 14.5 5t3.5 16v36h-117v24l152 194h18v-189h49v-29h-49v-36q0 -12 3.5 -16t14.5 -5zM130 501l-92 -115h92v115z" />
    <glyph glyph-name="five.numerator" horiz-adv-x="207"
d="M192 378q0 -44 -35 -71t-93 -27q-27 0 -42 8t-15 23q0 6 4.5 14t12.5 16h4q14 -22 30 -32t37 -10q24 0 37.5 14.5t13.5 39.5q0 29 -28 47t-83 23l-2 2l25 145h131l-7 -51h-115l-7 -47q62 -6 97 -31t35 -63z" />
    <glyph glyph-name="six.numerator" horiz-adv-x="235"
d="M15 391q0 67 46.5 116t126.5 68l2 -9q-55 -23 -84.5 -67.5t-29.5 -105.5q0 -48 12 -72t36 -24q20 0 32 17.5t12 46.5t-13.5 47.5t-35.5 18.5q-7 0 -14 -1.5t-13 -5.5l-5 6q12 12 31 21t32 9q33 0 53.5 -22t20.5 -56q0 -43 -29 -70.5t-74 -27.5q-49 0 -77.5 29t-28.5 82z
" />
    <glyph glyph-name="seven.numerator" horiz-adv-x="216"
d="M206 563l-114 -278h-34v6l112 228h-113q-12 0 -16.5 -3.5t-8.5 -14.5l-5 -16l-8 2l7 83h180v-7z" />
    <glyph glyph-name="eight.numerator" horiz-adv-x="228"
d="M150 447q36 -20 50.5 -39t14.5 -44q0 -39 -29 -61.5t-77 -22.5q-45 0 -70.5 19.5t-25.5 54.5q0 24 14.5 42.5t44.5 30.5q-23 14 -33.5 31t-10.5 39q0 35 26 56.5t69 21.5q36 0 57.5 -17t21.5 -47q0 -21 -13.5 -38t-38.5 -26zM117 557q-20 0 -32 -9.5t-12 -26.5
q0 -18 12 -32t52 -35q12 9 18 23t6 32q0 23 -11.5 35.5t-32.5 12.5zM84 421q-12 -11 -18 -26t-6 -34q0 -29 15 -46.5t40 -17.5q23 0 37.5 12.5t14.5 32.5q0 15 -7 27t-23 23q-9 7 -28.5 16.5t-24.5 12.5z" />
    <glyph glyph-name="nine.numerator" horiz-adv-x="237"
d="M221 464q0 -67 -46 -116t-126 -68l-3 8q56 23 85.5 67.5t29.5 105.5q0 48 -12 72t-36 24q-20 0 -32 -17t-12 -46q0 -31 13 -49t36 -18q7 0 14 1.5t13 5.5l5 -6q-13 -13 -32 -21.5t-32 -8.5q-32 0 -52.5 22t-20.5 56q0 44 29 71.5t74 27.5q49 0 77 -29.5t28 -81.5z" />
    <glyph glyph-name="zero.denominator" horiz-adv-x="262"
d="M245 143q0 -64 -32.5 -106.5t-82.5 -42.5q-49 0 -81 42.5t-32 106.5t32 105.5t81 41.5q50 0 82.5 -41.5t32.5 -105.5zM77 143q0 -65 13.5 -98.5t40.5 -33.5q26 0 40 34t14 98q0 63 -14 96.5t-41 33.5q-26 0 -39.5 -33t-13.5 -97z" />
    <glyph glyph-name="one.denominator" horiz-adv-x="168"
d="M153 10v-10h-130v10l26 5q7 2 9.5 5.5t2.5 11.5v178q0 16 -4.5 22.5t-15.5 6.5q-4 0 -8.5 -1t-14.5 -4l-5 9l99 50l6 -3q-2 -9 -2.5 -18t-0.5 -26v-214q0 -9 2.5 -12.5t9.5 -4.5z" />
    <glyph glyph-name="two.denominator" horiz-adv-x="223"
d="M212 80l-17 -80h-182v6q72 71 102 112.5t30 76.5q0 25 -13.5 38.5t-38.5 13.5t-42 -14.5t-29 -44.5h-7q8 48 33 75t63 27q40 0 63.5 -21.5t23.5 -55.5q0 -33 -28 -70.5t-91 -91.5v-2h92q12 0 17 3.5t9 12.5l5 16z" />
    <glyph glyph-name="three.denominator" horiz-adv-x="215"
d="M201 88q0 -40 -38 -66.5t-97 -26.5q-27 0 -42.5 8t-15.5 23q0 6 4.5 14t12.5 16h4q13 -21 29.5 -31.5t34.5 -10.5q28 0 45 16t17 43q0 26 -19.5 42.5t-52.5 16.5q-8 0 -17.5 -1.5t-17.5 -4.5l-4 12q46 16 66 32.5t20 40.5q0 16 -12.5 26.5t-33.5 10.5q-23 0 -39 -11.5
t-24 -34.5l-7 2q6 40 30.5 63t62.5 23q34 0 54 -16t20 -42q0 -21 -13.5 -36t-44.5 -26v-1q36 -4 57 -26.5t21 -54.5z" />
    <glyph glyph-name="four.denominator" horiz-adv-x="246"
d="M219 12v-12h-125v12l18 3q11 1 14.5 5t3.5 16v36h-117v24l152 194h18v-189h49v-29h-49v-36q0 -12 3.5 -16t14.5 -5zM130 216l-92 -115h92v115z" />
    <glyph glyph-name="five.denominator" horiz-adv-x="207"
d="M192 93q0 -44 -35 -71t-93 -27q-27 0 -42 8t-15 23q0 6 4.5 14t12.5 16h4q14 -22 30 -32t37 -10q24 0 37.5 14.5t13.5 39.5q0 29 -28 47t-83 23l-2 2l25 145h131l-7 -51h-115l-7 -47q62 -6 97 -31t35 -63z" />
    <glyph glyph-name="six.denominator" horiz-adv-x="235"
d="M15 106q0 67 46.5 116t126.5 68l2 -9q-55 -23 -84.5 -67.5t-29.5 -105.5q0 -48 12 -72t36 -24q20 0 32 17.5t12 46.5t-13.5 47.5t-35.5 18.5q-7 0 -14 -1.5t-13 -5.5l-5 6q12 12 31 21t32 9q33 0 53.5 -22t20.5 -56q0 -43 -29 -70.5t-74 -27.5q-49 0 -77.5 29t-28.5 82z
" />
    <glyph glyph-name="seven.denominator" horiz-adv-x="216"
d="M206 278l-114 -278h-34v6l112 228h-113q-12 0 -16.5 -3.5t-8.5 -14.5l-5 -16l-8 2l7 83h180v-7z" />
    <glyph glyph-name="eight.denominator" horiz-adv-x="228"
d="M150 162q36 -20 50.5 -39t14.5 -44q0 -39 -29 -61.5t-77 -22.5q-45 0 -70.5 19.5t-25.5 54.5q0 24 14.5 42.5t44.5 30.5q-23 14 -33.5 31t-10.5 39q0 35 26 56.5t69 21.5q36 0 57.5 -17t21.5 -47q0 -21 -13.5 -38t-38.5 -26zM117 272q-20 0 -32 -9.5t-12 -26.5
q0 -18 12 -32t52 -35q12 9 18 23t6 32q0 23 -11.5 35.5t-32.5 12.5zM84 136q-12 -11 -18 -26t-6 -34q0 -29 15 -46.5t40 -17.5q23 0 37.5 12.5t14.5 32.5q0 15 -7 27t-23 23q-9 7 -28.5 16.5t-24.5 12.5z" />
    <glyph glyph-name="nine.denominator" horiz-adv-x="237"
d="M221 179q0 -67 -46 -116t-126 -68l-3 8q56 23 85.5 67.5t29.5 105.5q0 48 -12 72t-36 24q-20 0 -32 -17t-12 -46q0 -31 13 -49t36 -18q7 0 14 1.5t13 5.5l5 -6q-13 -13 -32 -21.5t-32 -8.5q-32 0 -52.5 22t-20.5 56q0 44 29 71.5t74 27.5q49 0 77 -29.5t28 -81.5z" />
    <glyph glyph-name="onehalf" unicode="&#xbd;" horiz-adv-x="474"
d="M153 295v-10h-130v10l26 5q7 2 9.5 5.5t2.5 11.5v178q0 16 -4.5 22.5t-15.5 6.5q-4 0 -8.5 -1t-14.5 -4l-5 9l99 50l6 -3q-2 -9 -2.5 -18t-0.5 -26v-214q0 -9 2.5 -12.5t9.5 -4.5zM386 555l-323 -555l-25 14l324 556zM462 80l-17 -80h-182v6q72 71 102 112.5t30 76.5
q0 25 -13.5 38.5t-38.5 13.5t-42 -14.5t-29 -44.5h-7q8 48 33 75t63 27q40 0 63.5 -21.5t23.5 -55.5q0 -33 -28 -70.5t-91 -91.5v-2h92q12 0 17 3.5t9 12.5l5 16z" />
    <glyph glyph-name="onethird" unicode="&#x2153;" horiz-adv-x="472"
d="M153 295v-10h-130v10l26 5q7 2 9.5 5.5t2.5 11.5v178q0 16 -4.5 22.5t-15.5 6.5q-4 0 -8.5 -1t-14.5 -4l-5 9l99 50l6 -3q-2 -9 -2.5 -18t-0.5 -26v-214q0 -9 2.5 -12.5t9.5 -4.5zM386 555l-323 -555l-25 14l324 556zM457 88q0 -40 -38 -66.5t-97 -26.5q-27 0 -42.5 8
t-15.5 23q0 6 4.5 14t12.5 16h4q13 -21 29.5 -31.5t34.5 -10.5q28 0 45 16t17 43q0 26 -19.5 42.5t-52.5 16.5q-8 0 -17.5 -1.5t-17.5 -4.5l-4 12q46 16 66 32.5t20 40.5q0 16 -12.5 26.5t-33.5 10.5q-23 0 -39 -11.5t-24 -34.5l-7 2q6 40 30.5 63t62.5 23q34 0 54 -16
t20 -42q0 -21 -13.5 -36t-44.5 -26v-1q36 -4 57 -26.5t21 -54.5z" />
    <glyph glyph-name="onequarter" unicode="&#xbc;" horiz-adv-x="454"
d="M153 295v-10h-130v10l26 5q7 2 9.5 5.5t2.5 11.5v178q0 16 -4.5 22.5t-15.5 6.5q-4 0 -8.5 -1t-14.5 -4l-5 9l99 50l6 -3q-2 -9 -2.5 -18t-0.5 -26v-214q0 -9 2.5 -12.5t9.5 -4.5zM386 555l-323 -555l-25 14l324 556zM427 12v-12h-125v12l18 3q11 1 14.5 5t3.5 16v36
h-117v24l152 194h18v-189h49v-29h-49v-36q0 -12 3.5 -16t14.5 -5zM338 216l-92 -115h92v115z" />
    <glyph glyph-name="onefifth" horiz-adv-x="464"
d="M153 295v-10h-130v10l26 5q7 2 9.5 5.5t2.5 11.5v178q0 16 -4.5 22.5t-15.5 6.5q-4 0 -8.5 -1t-14.5 -4l-5 9l99 50l6 -3q-2 -9 -2.5 -18t-0.5 -26v-214q0 -9 2.5 -12.5t9.5 -4.5zM386 555l-323 -555l-25 14l324 556zM448 93q0 -44 -35 -71t-93 -27q-27 0 -42 8t-15 23
q0 6 4.5 14t12.5 16h4q14 -22 30 -32t37 -10q24 0 37.5 14.5t13.5 39.5q0 29 -28 47t-83 23l-2 2l25 145h131l-7 -51h-115l-7 -47q62 -6 97 -31t35 -63z" />
    <glyph glyph-name="onesixth" horiz-adv-x="456"
d="M153 295v-10h-130v10l26 5q7 2 9.5 5.5t2.5 11.5v178q0 16 -4.5 22.5t-15.5 6.5q-4 0 -8.5 -1t-14.5 -4l-5 9l99 50l6 -3q-2 -9 -2.5 -18t-0.5 -26v-214q0 -9 2.5 -12.5t9.5 -4.5zM386 555l-323 -555l-25 14l324 556zM235 106q0 67 46.5 116t126.5 68l2 -9
q-55 -23 -84.5 -67.5t-29.5 -105.5q0 -48 12 -72t36 -24q20 0 32 17.5t12 46.5t-13.5 47.5t-35.5 18.5q-7 0 -14 -1.5t-13 -5.5l-5 6q12 12 31 21t32 9q33 0 53.5 -22t20.5 -56q0 -43 -29 -70.5t-74 -27.5q-49 0 -77.5 29t-28.5 82z" />
    <glyph glyph-name="oneseventh" horiz-adv-x="473"
d="M153 295v-10h-130v10l26 5q7 2 9.5 5.5t2.5 11.5v178q0 16 -4.5 22.5t-15.5 6.5q-4 0 -8.5 -1t-14.5 -4l-5 9l99 50l6 -3q-2 -9 -2.5 -18t-0.5 -26v-214q0 -9 2.5 -12.5t9.5 -4.5zM386 555l-323 -555l-25 14l324 556zM462 278l-114 -278h-34v6l112 228h-113
q-12 0 -16.5 -3.5t-8.5 -14.5l-5 -16l-8 2l7 83h180v-7z" />
    <glyph glyph-name="oneeighth" unicode="&#x215b;" horiz-adv-x="484"
d="M153 295v-10h-130v10l26 5q7 2 9.5 5.5t2.5 11.5v178q0 16 -4.5 22.5t-15.5 6.5q-4 0 -8.5 -1t-14.5 -4l-5 9l99 50l6 -3q-2 -9 -2.5 -18t-0.5 -26v-214q0 -9 2.5 -12.5t9.5 -4.5zM386 555l-323 -555l-25 14l324 556zM406 162q36 -20 50.5 -39t14.5 -44q0 -39 -29 -61.5
t-77 -22.5q-45 0 -70.5 19.5t-25.5 54.5q0 24 14.5 42.5t44.5 30.5q-23 14 -33.5 31t-10.5 39q0 35 26 56.5t69 21.5q36 0 57.5 -17t21.5 -47q0 -21 -13.5 -38t-38.5 -26zM373 272q-20 0 -32 -9.5t-12 -26.5q0 -18 12 -32t52 -35q12 9 18 23t6 32q0 23 -11.5 35.5
t-32.5 12.5zM340 136q-12 -11 -18 -26t-6 -34q0 -29 15 -46.5t40 -17.5q23 0 37.5 12.5t14.5 32.5q0 15 -7 27t-23 23q-9 7 -28.5 16.5t-24.5 12.5z" />
    <glyph glyph-name="oneninth" horiz-adv-x="494"
d="M153 295v-10h-130v10l26 5q7 2 9.5 5.5t2.5 11.5v178q0 16 -4.5 22.5t-15.5 6.5q-4 0 -8.5 -1t-14.5 -4l-5 9l99 50l6 -3q-2 -9 -2.5 -18t-0.5 -26v-214q0 -9 2.5 -12.5t9.5 -4.5zM386 555l-323 -555l-25 14l324 556zM477 179q0 -67 -46 -116t-126 -68l-3 8
q56 23 85.5 67.5t29.5 105.5q0 48 -12 72t-36 24q-20 0 -32 -17t-12 -46q0 -31 13 -49t36 -18q7 0 14 1.5t13 5.5l5 -6q-13 -13 -32 -21.5t-32 -8.5q-32 0 -52.5 22t-20.5 56q0 44 29 71.5t74 27.5q49 0 77 -29.5t28 -81.5z" />
    <glyph glyph-name="twothirds" unicode="&#x2154;" horiz-adv-x="527"
d="M212 365l-17 -80h-182v6q72 71 102 112.5t30 76.5q0 25 -13.5 38.5t-38.5 13.5t-42 -14.5t-29 -44.5h-7q8 48 33 75t63 27q40 0 63.5 -21.5t23.5 -55.5q0 -33 -28 -70.5t-91 -91.5v-2h92q12 0 17 3.5t9 12.5l5 16zM441 555l-323 -555l-25 14l324 556zM513 88
q0 -40 -38 -66.5t-97 -26.5q-27 0 -42.5 8t-15.5 23q0 6 4.5 14t12.5 16h4q13 -21 29.5 -31.5t34.5 -10.5q28 0 45 16t17 43q0 26 -19.5 42.5t-52.5 16.5q-8 0 -17.5 -1.5t-17.5 -4.5l-4 12q46 16 66 32.5t20 40.5q0 16 -12.5 26.5t-33.5 10.5q-23 0 -39 -11.5t-24 -34.5
l-7 2q6 40 30.5 63t62.5 23q34 0 54 -16t20 -42q0 -21 -13.5 -36t-44.5 -26v-1q36 -4 57 -26.5t21 -54.5z" />
    <glyph glyph-name="twofifths" horiz-adv-x="519"
d="M212 365l-17 -80h-182v6q72 71 102 112.5t30 76.5q0 25 -13.5 38.5t-38.5 13.5t-42 -14.5t-29 -44.5h-7q8 48 33 75t63 27q40 0 63.5 -21.5t23.5 -55.5q0 -33 -28 -70.5t-91 -91.5v-2h92q12 0 17 3.5t9 12.5l5 16zM441 555l-323 -555l-25 14l324 556zM504 93
q0 -44 -35 -71t-93 -27q-27 0 -42 8t-15 23q0 6 4.5 14t12.5 16h4q14 -22 30 -32t37 -10q24 0 37.5 14.5t13.5 39.5q0 29 -28 47t-83 23l-2 2l25 145h131l-7 -51h-115l-7 -47q62 -6 97 -31t35 -63z" />
    <glyph glyph-name="twosevenths" horiz-adv-x="528"
d="M212 365l-17 -80h-182v6q72 71 102 112.5t30 76.5q0 25 -13.5 38.5t-38.5 13.5t-42 -14.5t-29 -44.5h-7q8 48 33 75t63 27q40 0 63.5 -21.5t23.5 -55.5q0 -33 -28 -70.5t-91 -91.5v-2h92q12 0 17 3.5t9 12.5l5 16zM441 555l-323 -555l-25 14l324 556zM518 278l-114 -278
h-34v6l112 228h-113q-12 0 -16.5 -3.5t-8.5 -14.5l-5 -16l-8 2l7 83h180v-7z" />
    <glyph glyph-name="twoninths" horiz-adv-x="549"
d="M212 365l-17 -80h-182v6q72 71 102 112.5t30 76.5q0 25 -13.5 38.5t-38.5 13.5t-42 -14.5t-29 -44.5h-7q8 48 33 75t63 27q40 0 63.5 -21.5t23.5 -55.5q0 -33 -28 -70.5t-91 -91.5v-2h92q12 0 17 3.5t9 12.5l5 16zM441 555l-323 -555l-25 14l324 556zM533 179
q0 -67 -46 -116t-126 -68l-3 8q56 23 85.5 67.5t29.5 105.5q0 48 -12 72t-36 24q-20 0 -32 -17t-12 -46q0 -31 13 -49t36 -18q7 0 14 1.5t13 5.5l5 -6q-13 -13 -32 -21.5t-32 -8.5q-32 0 -52.5 22t-20.5 56q0 44 29 71.5t74 27.5q49 0 77 -29.5t28 -81.5z" />
    <glyph glyph-name="threequarters" unicode="&#xbe;" horiz-adv-x="526"
d="M201 373q0 -40 -38 -66.5t-97 -26.5q-27 0 -42.5 8t-15.5 23q0 6 4.5 14t12.5 16h4q13 -21 29.5 -31.5t34.5 -10.5q28 0 45 16t17 43q0 26 -19.5 42.5t-52.5 16.5q-8 0 -17.5 -1.5t-17.5 -4.5l-4 12q46 16 66 32.5t20 40.5q0 16 -12.5 26.5t-33.5 10.5q-23 0 -39 -11.5
t-24 -34.5l-7 2q6 40 30.5 63t62.5 23q34 0 54 -16t20 -42q0 -21 -13.5 -36t-44.5 -26v-1q36 -4 57 -26.5t21 -54.5zM433 555l-323 -555l-25 14l324 556zM499 12v-12h-125v12l18 3q11 1 14.5 5t3.5 16v36h-117v24l152 194h18v-189h49v-29h-49v-36q0 -12 3.5 -16t14.5 -5z
M410 216l-92 -115h92v115z" />
    <glyph glyph-name="threefifths" horiz-adv-x="512"
d="M201 373q0 -40 -38 -66.5t-97 -26.5q-27 0 -42.5 8t-15.5 23q0 6 4.5 14t12.5 16h4q13 -21 29.5 -31.5t34.5 -10.5q28 0 45 16t17 43q0 26 -19.5 42.5t-52.5 16.5q-8 0 -17.5 -1.5t-17.5 -4.5l-4 12q46 16 66 32.5t20 40.5q0 16 -12.5 26.5t-33.5 10.5q-23 0 -39 -11.5
t-24 -34.5l-7 2q6 40 30.5 63t62.5 23q34 0 54 -16t20 -42q0 -21 -13.5 -36t-44.5 -26v-1q36 -4 57 -26.5t21 -54.5zM433 555l-323 -555l-25 14l324 556zM496 93q0 -44 -35 -71t-93 -27q-27 0 -42 8t-15 23q0 6 4.5 14t12.5 16h4q14 -22 30 -32t37 -10q24 0 37.5 14.5
t13.5 39.5q0 29 -28 47t-83 23l-2 2l25 145h131l-7 -51h-115l-7 -47q62 -6 97 -31t35 -63z" />
    <glyph glyph-name="threesevenths" horiz-adv-x="520"
d="M201 373q0 -40 -38 -66.5t-97 -26.5q-27 0 -42.5 8t-15.5 23q0 6 4.5 14t12.5 16h4q13 -21 29.5 -31.5t34.5 -10.5q28 0 45 16t17 43q0 26 -19.5 42.5t-52.5 16.5q-8 0 -17.5 -1.5t-17.5 -4.5l-4 12q46 16 66 32.5t20 40.5q0 16 -12.5 26.5t-33.5 10.5q-23 0 -39 -11.5
t-24 -34.5l-7 2q6 40 30.5 63t62.5 23q34 0 54 -16t20 -42q0 -21 -13.5 -36t-44.5 -26v-1q36 -4 57 -26.5t21 -54.5zM433 555l-323 -555l-25 14l324 556zM510 278l-114 -278h-34v6l112 228h-113q-12 0 -16.5 -3.5t-8.5 -14.5l-5 -16l-8 2l7 83h180v-7z" />
    <glyph glyph-name="threeeighths" unicode="&#x215c;" horiz-adv-x="532"
d="M201 373q0 -40 -38 -66.5t-97 -26.5q-27 0 -42.5 8t-15.5 23q0 6 4.5 14t12.5 16h4q13 -21 29.5 -31.5t34.5 -10.5q28 0 45 16t17 43q0 26 -19.5 42.5t-52.5 16.5q-8 0 -17.5 -1.5t-17.5 -4.5l-4 12q46 16 66 32.5t20 40.5q0 16 -12.5 26.5t-33.5 10.5q-23 0 -39 -11.5
t-24 -34.5l-7 2q6 40 30.5 63t62.5 23q34 0 54 -16t20 -42q0 -21 -13.5 -36t-44.5 -26v-1q36 -4 57 -26.5t21 -54.5zM433 555l-323 -555l-25 14l324 556zM454 162q36 -20 50.5 -39t14.5 -44q0 -39 -29 -61.5t-77 -22.5q-45 0 -70.5 19.5t-25.5 54.5q0 24 14.5 42.5
t44.5 30.5q-23 14 -33.5 31t-10.5 39q0 35 26 56.5t69 21.5q36 0 57.5 -17t21.5 -47q0 -21 -13.5 -38t-38.5 -26zM421 272q-20 0 -32 -9.5t-12 -26.5q0 -18 12 -32t52 -35q12 9 18 23t6 32q0 23 -11.5 35.5t-32.5 12.5zM388 136q-12 -11 -18 -26t-6 -34q0 -29 15 -46.5
t40 -17.5q23 0 37.5 12.5t14.5 32.5q0 15 -7 27t-23 23q-9 7 -28.5 16.5t-24.5 12.5z" />
    <glyph glyph-name="fourfifths" horiz-adv-x="542"
d="M219 297v-12h-125v12l18 3q11 1 14.5 5t3.5 16v36h-117v24l152 194h18v-189h49v-29h-49v-36q0 -12 3.5 -16t14.5 -5zM130 501l-92 -115h92v115zM464 555l-323 -555l-25 14l324 556zM526 93q0 -44 -35 -71t-93 -27q-27 0 -42 8t-15 23q0 6 4.5 14t12.5 16h4q14 -22 30 -32
t37 -10q24 0 37.5 14.5t13.5 39.5q0 29 -28 47t-83 23l-2 2l25 145h131l-7 -51h-115l-7 -47q62 -6 97 -31t35 -63z" />
    <glyph glyph-name="foursevenths" horiz-adv-x="551"
d="M219 297v-12h-125v12l18 3q11 1 14.5 5t3.5 16v36h-117v24l152 194h18v-189h49v-29h-49v-36q0 -12 3.5 -16t14.5 -5zM130 501l-92 -115h92v115zM464 555l-323 -555l-25 14l324 556zM540 278l-114 -278h-34v6l112 228h-113q-12 0 -16.5 -3.5t-8.5 -14.5l-5 -16l-8 2l7 83
h180v-7z" />
    <glyph glyph-name="fourninths" horiz-adv-x="572"
d="M219 297v-12h-125v12l18 3q11 1 14.5 5t3.5 16v36h-117v24l152 194h18v-189h49v-29h-49v-36q0 -12 3.5 -16t14.5 -5zM130 501l-92 -115h92v115zM464 555l-323 -555l-25 14l324 556zM555 179q0 -67 -46 -116t-126 -68l-3 8q56 23 85.5 67.5t29.5 105.5q0 48 -12 72t-36 24
q-20 0 -32 -17t-12 -46q0 -31 13 -49t36 -18q7 0 14 1.5t13 5.5l5 -6q-13 -13 -32 -21.5t-32 -8.5q-32 0 -52.5 22t-20.5 56q0 44 29 71.5t74 27.5q49 0 77 -29.5t28 -81.5z" />
    <glyph glyph-name="fivesixths" horiz-adv-x="491"
d="M192 378q0 -44 -35 -71t-93 -27q-27 0 -42 8t-15 23q0 6 4.5 14t12.5 16h4q14 -22 30 -32t37 -10q24 0 37.5 14.5t13.5 39.5q0 29 -28 47t-83 23l-2 2l25 145h131l-7 -51h-115l-7 -47q62 -6 97 -31t35 -63zM425 555l-323 -555l-25 14l324 556zM271 106q0 67 46.5 116
t126.5 68l2 -9q-55 -23 -84.5 -67.5t-29.5 -105.5q0 -48 12 -72t36 -24q20 0 32 17.5t12 46.5t-13.5 47.5t-35.5 18.5q-7 0 -14 -1.5t-13 -5.5l-5 6q12 12 31 21t32 9q33 0 53.5 -22t20.5 -56q0 -43 -29 -70.5t-74 -27.5q-49 0 -77.5 29t-28.5 82z" />
    <glyph glyph-name="fivesevenths" horiz-adv-x="512"
d="M192 378q0 -44 -35 -71t-93 -27q-27 0 -42 8t-15 23q0 6 4.5 14t12.5 16h4q14 -22 30 -32t37 -10q24 0 37.5 14.5t13.5 39.5q0 29 -28 47t-83 23l-2 2l25 145h131l-7 -51h-115l-7 -47q62 -6 97 -31t35 -63zM425 555l-323 -555l-25 14l324 556zM502 278l-114 -278h-34v6
l112 228h-113q-12 0 -16.5 -3.5t-8.5 -14.5l-5 -16l-8 2l7 83h180v-7z" />
    <glyph glyph-name="fiveeighths" unicode="&#x215d;" horiz-adv-x="524"
d="M192 378q0 -44 -35 -71t-93 -27q-27 0 -42 8t-15 23q0 6 4.5 14t12.5 16h4q14 -22 30 -32t37 -10q24 0 37.5 14.5t13.5 39.5q0 29 -28 47t-83 23l-2 2l25 145h131l-7 -51h-115l-7 -47q62 -6 97 -31t35 -63zM425 555l-323 -555l-25 14l324 556zM446 162q36 -20 50.5 -39
t14.5 -44q0 -39 -29 -61.5t-77 -22.5q-45 0 -70.5 19.5t-25.5 54.5q0 24 14.5 42.5t44.5 30.5q-23 14 -33.5 31t-10.5 39q0 35 26 56.5t69 21.5q36 0 57.5 -17t21.5 -47q0 -21 -13.5 -38t-38.5 -26zM413 272q-20 0 -32 -9.5t-12 -26.5q0 -18 12 -32t52 -35q12 9 18 23t6 32
q0 23 -11.5 35.5t-32.5 12.5zM380 136q-12 -11 -18 -26t-6 -34q0 -29 15 -46.5t40 -17.5q23 0 37.5 12.5t14.5 32.5q0 15 -7 27t-23 23q-9 7 -28.5 16.5t-24.5 12.5z" />
    <glyph glyph-name="fiveninths" horiz-adv-x="533"
d="M192 378q0 -44 -35 -71t-93 -27q-27 0 -42 8t-15 23q0 6 4.5 14t12.5 16h4q14 -22 30 -32t37 -10q24 0 37.5 14.5t13.5 39.5q0 29 -28 47t-83 23l-2 2l25 145h131l-7 -51h-115l-7 -47q62 -6 97 -31t35 -63zM425 555l-323 -555l-25 14l324 556zM517 179q0 -67 -46 -116
t-126 -68l-3 8q56 23 85.5 67.5t29.5 105.5q0 48 -12 72t-36 24q-20 0 -32 -17t-12 -46q0 -31 13 -49t36 -18q7 0 14 1.5t13 5.5l5 -6q-13 -13 -32 -21.5t-32 -8.5q-32 0 -52.5 22t-20.5 56q0 44 29 71.5t74 27.5q49 0 77 -29.5t28 -81.5z" />
    <glyph glyph-name="sixsevenths" horiz-adv-x="540"
d="M15 391q0 67 46.5 116t126.5 68l2 -9q-55 -23 -84.5 -67.5t-29.5 -105.5q0 -48 12 -72t36 -24q20 0 32 17.5t12 46.5t-13.5 47.5t-35.5 18.5q-7 0 -14 -1.5t-13 -5.5l-5 6q12 12 31 21t32 9q33 0 53.5 -22t20.5 -56q0 -43 -29 -70.5t-74 -27.5q-49 0 -77.5 29t-28.5 82z
M453 555l-323 -555l-25 14l324 556zM530 278l-114 -278h-34v6l112 228h-113q-12 0 -16.5 -3.5t-8.5 -14.5l-5 -16l-8 2l7 83h180v-7z" />
    <glyph glyph-name="seveneighths" unicode="&#x215e;" horiz-adv-x="533"
d="M206 563l-114 -278h-34v6l112 228h-113q-12 0 -16.5 -3.5t-8.5 -14.5l-5 -16l-8 2l7 83h180v-7zM434 555l-323 -555l-25 14l324 556zM455 162q36 -20 50.5 -39t14.5 -44q0 -39 -29 -61.5t-77 -22.5q-45 0 -70.5 19.5t-25.5 54.5q0 24 14.5 42.5t44.5 30.5
q-23 14 -33.5 31t-10.5 39q0 35 26 56.5t69 21.5q36 0 57.5 -17t21.5 -47q0 -21 -13.5 -38t-38.5 -26zM422 272q-20 0 -32 -9.5t-12 -26.5q0 -18 12 -32t52 -35q12 9 18 23t6 32q0 23 -11.5 35.5t-32.5 12.5zM389 136q-12 -11 -18 -26t-6 -34q0 -29 15 -46.5t40 -17.5
q23 0 37.5 12.5t14.5 32.5q0 15 -7 27t-23 23q-9 7 -28.5 16.5t-24.5 12.5z" />
    <glyph glyph-name="sevenninths" horiz-adv-x="542"
d="M206 563l-114 -278h-34v6l112 228h-113q-12 0 -16.5 -3.5t-8.5 -14.5l-5 -16l-8 2l7 83h180v-7zM434 555l-323 -555l-25 14l324 556zM526 179q0 -67 -46 -116t-126 -68l-3 8q56 23 85.5 67.5t29.5 105.5q0 48 -12 72t-36 24q-20 0 -32 -17t-12 -46q0 -31 13 -49t36 -18
q7 0 14 1.5t13 5.5l5 -6q-13 -13 -32 -21.5t-32 -8.5q-32 0 -52.5 22t-20.5 56q0 44 29 71.5t74 27.5q49 0 77 -29.5t28 -81.5z" />
    <glyph glyph-name="eightninths" horiz-adv-x="554"
d="M150 447q36 -20 50.5 -39t14.5 -44q0 -39 -29 -61.5t-77 -22.5q-45 0 -70.5 19.5t-25.5 54.5q0 24 14.5 42.5t44.5 30.5q-23 14 -33.5 31t-10.5 39q0 35 26 56.5t69 21.5q36 0 57.5 -17t21.5 -47q0 -21 -13.5 -38t-38.5 -26zM117 557q-20 0 -32 -9.5t-12 -26.5
q0 -18 12 -32t52 -35q12 9 18 23t6 32q0 23 -11.5 35.5t-32.5 12.5zM84 421q-12 -11 -18 -26t-6 -34q0 -29 15 -46.5t40 -17.5q23 0 37.5 12.5t14.5 32.5q0 15 -7 27t-23 23q-9 7 -28.5 16.5t-24.5 12.5zM446 555l-323 -555l-25 14l324 556zM537 179q0 -67 -46 -116
t-126 -68l-3 8q56 23 85.5 67.5t29.5 105.5q0 48 -12 72t-36 24q-20 0 -32 -17t-12 -46q0 -31 13 -49t36 -18q7 0 14 1.5t13 5.5l5 -6q-13 -13 -32 -21.5t-32 -8.5q-32 0 -52.5 22t-20.5 56q0 44 29 71.5t74 27.5q49 0 77 -29.5t28 -81.5z" />
    <glyph glyph-name="plus" unicode="+" horiz-adv-x="500"
d="M265 224v-175h-31v175h-168v30h168v175h31v-175h168v-30h-168z" />
    <glyph glyph-name="minus" unicode="&#x2212;" horiz-adv-x="500"
d="M433 254v-30h-367v30h367z" />
    <glyph glyph-name="multiply" unicode="&#xd7;" horiz-adv-x="500"
d="M249 218l-136 -136l-21 21l136 137l-136 136l21 21l136 -136l136 136l21 -22l-135 -135l136 -137l-22 -21z" />
    <glyph glyph-name="divide" unicode="&#xf7;" horiz-adv-x="500"
d="M281 385q0 -13 -9 -22.5t-22 -9.5t-22.5 9.5t-9.5 22.5t9.5 22t22.5 9t22 -9t9 -22zM433 252v-30h-367v30h367zM281 89q0 -13 -9 -22t-22 -9t-22.5 9.5t-9.5 21.5q0 14 9.5 23t22.5 9t22 -9t9 -23z" />
    <glyph glyph-name="equal" unicode="=" horiz-adv-x="500"
d="M433 341v-30h-367v30h367zM433 169v-31h-367v31h367z" />
    <glyph glyph-name="logicalnot" unicode="&#xac;" horiz-adv-x="499"
d="M429 340v-192h-30v162h-330v30h360z" />
    <glyph glyph-name="asciitilde" unicode="~" horiz-adv-x="500"
d="M335 203q-17 0 -35.5 5t-54.5 22q-33 15 -50 20t-32 5q-24 0 -43 -11t-42 -39l-22 18q24 33 50.5 47.5t59.5 14.5q17 0 36 -5t55 -22q32 -15 48.5 -19.5t31.5 -4.5q24 0 42.5 11t41.5 38l22 -19q-24 -32 -50 -46.5t-58 -14.5z" />
    <glyph glyph-name="less" unicode="&#x3c;" horiz-adv-x="500"
d="M433 98v-34l-367 159v29l367 159v-33l-327 -140z" />
    <glyph glyph-name="greater" unicode="&#x3e;" horiz-adv-x="500"
d="M433 223l-367 -159v34l327 140l-327 140v33l367 -159v-29z" />
    <glyph glyph-name="plusminus" unicode="&#xb1;" horiz-adv-x="500"
d="M265 322v-164h-31v164h-168v30h168v171h31v-171h168v-30h-168zM433 29v-29h-367v29h367z" />
    <glyph glyph-name="asciicircum" unicode="^" horiz-adv-x="500"
d="M263 684l147 -324h-32l-128 288l-129 -288h-32l147 324h27z" />
    <glyph glyph-name="notequal" unicode="&#x2260;" horiz-adv-x="500"
d="M207 138l-74 -137l-24 13l67 124h-110v31h127l76 142h-203v30h220l73 136l24 -13l-66 -123h116v-30h-133l-76 -142h209v-31h-226z" />
    <glyph glyph-name="approxequal" unicode="&#x2248;" horiz-adv-x="500"
d="M335 291q-17 0 -35.5 5t-54.5 22q-33 15 -50 20t-32 5q-24 0 -43 -11t-42 -39l-22 18q24 33 50.5 47.5t59.5 14.5q17 0 36 -5t55 -22q32 -15 48.5 -19.5t31.5 -4.5q24 0 42.5 11t41.5 38l22 -19q-24 -32 -50 -46.5t-58 -14.5zM335 124q-17 0 -35.5 5t-54.5 22
q-33 15 -50 20t-32 5q-24 0 -43 -11t-42 -39l-22 18q24 33 50.5 47.5t59.5 14.5q17 0 36 -5t55 -22q32 -15 48.5 -19.5t31.5 -4.5q24 0 42.5 11t41.5 38l22 -19q-24 -32 -50 -46.5t-58 -14.5z" />
    <glyph glyph-name="lessequal" unicode="&#x2264;" horiz-adv-x="500"
d="M433 197v-31l-367 156v31l367 157v-31l-331 -141zM433 29v-29h-367v29h367z" />
    <glyph glyph-name="greaterequal" unicode="&#x2265;" horiz-adv-x="500"
d="M433 353v-31l-367 -156v31l332 141l-332 141v31zM433 29v-29h-367v29h367z" />
    <glyph glyph-name="infinity" unicode="&#x221e;" horiz-adv-x="705"
d="M348 218q-40 -81 -80 -113.5t-92 -32.5q-71 0 -113 45.5t-42 125.5q0 78 43 124.5t112 46.5q57 0 98.5 -33.5t80.5 -114.5q38 80 78.5 114t93.5 34q70 0 113 -46t43 -124q0 -79 -43 -125.5t-113 -46.5q-58 0 -99 33t-80 113zM177 386q-58 0 -92.5 -38t-34.5 -105
t34.5 -105t92.5 -38q46 0 82 30.5t77 112.5q-38 80 -74 111.5t-85 31.5zM654 244q0 65 -35 103.5t-93 38.5q-46 0 -82 -30.5t-78 -114.5q40 -79 76 -110t84 -31q59 0 93.5 38.5t34.5 105.5z" />
    <glyph glyph-name="lozenge" unicode="&#x25ca;" horiz-adv-x="499"
d="M466 340l-204 -340h-26l-204 340l204 340h26zM249 643l-181 -303l181 -304l181 304z" />
    <glyph glyph-name="radical" unicode="&#x221a;" horiz-adv-x="600"
d="M581 715l-261 -715h-33l-130 324h-97v30h140l114 -286l236 647h31z" />
    <glyph glyph-name="integral" unicode="&#x222b;" horiz-adv-x="261"
d="M-20 -280q-33 0 -58.5 10.5t-25.5 25.5q0 6 6.5 16.5t18.5 24.5h4q32 -27 53 -38t41 -11q37 0 55.5 37t18.5 111v501q0 141 47 212t141 71q33 0 58.5 -10.5t25.5 -25.5q0 -6 -6.5 -16.5t-18.5 -24.5h-4q-32 27 -53 38t-42 11q-37 0 -55.5 -37t-18.5 -111v-501
q0 -141 -46.5 -212t-140.5 -71z" />
    <glyph glyph-name="partialdiff" unicode="&#x2202;" horiz-adv-x="459"
d="M426 219q0 135 -82.5 234t-228.5 133l-4 -16q110 -41 169 -128.5t59 -208.5q0 -101 -33 -160t-90 -59q-48 0 -76.5 39.5t-28.5 105.5q0 67 30.5 104.5t86.5 37.5q21 0 41 -6t37 -17l9 12q-24 24 -65.5 42.5t-65.5 18.5q-69 0 -112.5 -46.5t-43.5 -118.5q0 -86 55.5 -141
t141.5 -55q90 0 145.5 62.5t55.5 166.5z" />
    <glyph glyph-name="product" unicode="&#x220f;" horiz-adv-x="686"
d="M645 16v-16h-215v16l33 7q23 6 29 13.5t6 28.5v477h-310v-477q0 -21 6 -28.5t29 -13.5l33 -7v-16h-215v16l32 7q23 6 29 13.5t6 28.5v439q0 21 -6 28.5t-29 13.5l-32 7v17h604v-17l-32 -7q-23 -6 -29 -13.5t-6 -28.5v-439q0 -21 6 -28.5t29 -13.5z" />
    <glyph glyph-name="pi" unicode="&#x3c0;" horiz-adv-x="462"
d="M173 138q0 -65 -25 -106.5t-63 -41.5q-24 0 -40 17t-26 53l3 3q68 -4 94.5 17.5t26.5 80.5q0 30 -1 63t-3 61h-84q-11 0 -17 -4.5t-6 -12.5q0 -10 9 -20t32 -26v-3q-11 -14 -21 -20.5t-21 -6.5q-14 0 -22.5 11.5t-8.5 31.5q0 44 35 83t81 39h268q12 0 20 6t24 32l10 -2
l-8 -108h-115q-4 -37 -6.5 -74t-2.5 -68q0 -41 15 -60.5t46 -19.5q16 0 29 7t30 27l14 -7q-18 -55 -38 -77.5t-48 -22.5q-40 0 -60 35.5t-20 104.5q0 27 3.5 65.5t11.5 89.5h-124q4 -35 6 -75.5t2 -71.5z" />
    <glyph glyph-name="mu" unicode="&#xb5;" horiz-adv-x="439"
d="M173 -10q-28 0 -49.5 8.5t-35.5 25.5v-69q0 -67 19 -111.5t61 -78.5l1 -5q-10 -20 -21.5 -30t-23.5 -10q-30 0 -46 60t-16 174l1 237v84q0 14 -4 20.5t-14 12.5l-27 12v11l117 36l8 -4q-3 -20 -4.5 -38.5t-1.5 -47.5v-156q0 -42 18 -61.5t56 -19.5q20 0 41.5 6.5
t41.5 19.5v206q0 17 -4 23t-13 10l-43 15v11l132 36l7 -4q-3 -21 -4 -39.5t-1 -46.5v-202q0 -14 4.5 -20t19.5 -8l33 -5v-13l-131 -37v52q-30 -22 -65.5 -38t-55.5 -16z" />
    <glyph glyph-name="summation" unicode="&#x2211;" horiz-adv-x="547"
d="M495 154l-13 -154h-448v13l181 241l-171 302v14h344q17 0 30.5 2t27.5 6l7 -2v-145h-16l-22 73q-6 21 -18 29.5t-38 8.5h-215l140 -247l-172 -228l291 3q24 0 34.5 6.5t19.5 26.5l22 51h16z" />
    <glyph glyph-name="Omega" unicode="&#x2126;" horiz-adv-x="682"
d="M677 123l-25 -123h-272v11q87 85 122.5 154.5t35.5 153.5q0 105 -56 169.5t-150 64.5q-90 0 -140 -56.5t-50 -156.5q0 -94 34 -165t125 -164v-11h-272l-25 123l16 2l10 -25q7 -18 19 -24t44 -6h131v3q-92 71 -132 132.5t-40 128.5q0 109 81.5 177.5t205.5 68.5
q128 0 209 -64.5t81 -168.5q0 -74 -42.5 -142t-128.5 -132v-3h130q31 0 43.5 6t19.5 24l10 25z" />
    <glyph glyph-name="uni03A9" unicode="&#x3a9;" horiz-adv-x="741"
d="M677 123l-25 -123h-272v11q87 85 122.5 154.5t35.5 153.5q0 105 -56 169.5t-150 64.5q-90 0 -140 -56.5t-50 -156.5q0 -94 34 -165t125 -164v-11h-272l-25 123l16 2l10 -25q7 -18 19 -24t44 -6h131v3q-92 71 -132 132.5t-40 128.5q0 109 81.5 177.5t205.5 68.5
q128 0 209 -64.5t81 -168.5q0 -74 -42.5 -142t-128.5 -132v-3h130q31 0 43.5 6t19.5 24l10 25z" />
    <glyph glyph-name="Delta" unicode="&#x2206;" horiz-adv-x="524"
d="M509 18v-18h-494v18q6 7 10.5 14.5t9.5 20.5l208 523h36l209 -523q7 -16 11 -23t10 -12zM93 27h291q14 0 18.5 6t-0.5 17l-168 425l-159 -426q-5 -12 -0.5 -17t18.5 -5z" />
    <glyph glyph-name="uni0394" unicode="&#x394;" horiz-adv-x="554"
d="M509 18v-18h-494v18q6 7 10.5 14.5t9.5 20.5l208 523h36l209 -523q7 -16 11 -23t10 -12zM93 27h291q14 0 18.5 6t-0.5 17l-168 425l-159 -426q-5 -12 -0.5 -17t18.5 -5z" />
    <glyph glyph-name="uni2113" unicode="&#x2113;" horiz-adv-x="389"
d="M206 -10q-57 0 -88 32t-31 93v49q-4 -2 -8 -3.5t-13 -5.5q-17 -7 -26 -11t-17 -7l-7 20q7 3 15 6.5t23 9.5q14 7 21 10t12 5v115q0 135 42.5 206t120.5 71q46 0 75 -34t29 -90q0 -77 -46 -141t-134 -109q-2 -1 -6.5 -3.5t-7.5 -3.5v-66q0 -46 20 -68t63 -22q26 0 50.5 8
t56.5 27l8 -11q-38 -34 -80 -55.5t-72 -21.5zM230 556q-35 0 -52.5 -37t-17.5 -109v-187l3 2q59 31 88 86t29 136q0 53 -12.5 81t-37.5 28z" />
    <glyph glyph-name="arrowleft" unicode="&#x2190;" horiz-adv-x="665"
d="M18 288v13q59 17 117.5 53.5t92.5 78.5l12 -7q-6 -17 -9.5 -35t-3.5 -36q0 -23 12.5 -35.5t35.5 -12.5q78 0 161.5 10t149.5 28l14 -3l47 -41v-13l-47 -41l-14 -3q-66 18 -149.5 28t-161.5 10q-23 0 -35.5 -12.5t-12.5 -35.5q0 -18 3.5 -36t9.5 -35l-12 -7
q-34 42 -92.5 78.5t-117.5 53.5z" />
    <glyph glyph-name="arrowup" unicode="&#x2191;" horiz-adv-x="314"
d="M151 609h12q16 -57 52.5 -115.5t79.5 -94.5l-6 -12q-19 7 -36.5 10t-35.5 3q-23 0 -35.5 -12t-12.5 -35q0 -78 10 -161.5t28 -150.5l-3 -13l-41 -46h-13l-40 46l-3 13q18 67 28 150.5t10 161.5q0 23 -12.5 35t-36.5 12q-17 0 -34.5 -3t-36.5 -10l-7 12q43 35 80 93.5
t53 116.5z" />
    <glyph glyph-name="arrowright" unicode="&#x2192;" horiz-adv-x="665"
d="M647 301v-13q-59 -17 -117.5 -53.5t-92.5 -78.5l-12 7q6 17 9.5 35t3.5 36q0 23 -12.5 35.5t-35.5 12.5q-78 0 -161.5 -10t-149.5 -28l-14 3l-47 41v13l47 41l14 3q66 -18 149.5 -28t161.5 -10q23 0 35.5 12.5t12.5 35.5q0 18 -3.5 36t-9.5 35l12 7q34 -42 92.5 -78.5
t117.5 -53.5z" />
    <glyph glyph-name="arrowdown" unicode="&#x2193;" horiz-adv-x="314"
d="M163 -18h-12q-17 57 -53.5 115.5t-79.5 93.5l7 12q19 -7 36.5 -10t34.5 -3q24 0 36.5 12.5t12.5 35.5q0 78 -10 161.5t-28 149.5l3 13l40 47h13l41 -47l3 -13q-18 -66 -28 -149.5t-10 -161.5q0 -23 12.5 -35.5t35.5 -12.5q18 0 35.5 3t36.5 10l6 -12q-42 -35 -79 -93.5
t-53 -115.5z" />
    <glyph glyph-name="uni2194" unicode="&#x2194;" horiz-adv-x="785"
d="M767 301v-12q-52 -16 -106 -52.5t-88 -78.5l-13 7q6 18 9.5 35.5t3.5 34.5q0 23 -11.5 36t-31.5 13q-24 0 -72 -14.5t-58 -17.5h-15q-10 3 -58 17.5t-72 14.5q-20 0 -31.5 -13t-11.5 -36q0 -17 3.5 -34.5t9.5 -35.5l-13 -7q-33 42 -87 78.5t-107 52.5v12q53 16 107 52.5
t87 78.5l13 -7q-6 -17 -9.5 -34.5t-3.5 -34.5q0 -23 11.5 -36t31.5 -13q13 0 29.5 3.5t52.5 14.5q20 6 30 8.5l18 4.5h15l18 -4.5t30 -8.5q36 -11 52.5 -14.5t29.5 -3.5q20 0 31.5 13t11.5 36q0 17 -3.5 34.5t-9.5 34.5l13 7q34 -42 88 -78.5t106 -52.5z" />
    <glyph glyph-name="uni2195" unicode="&#x2195;" horiz-adv-x="311"
d="M161 -88h-12q-16 52 -52 105.5t-79 87.5l7 13q18 -6 35.5 -9.5t34.5 -3.5q23 0 36 11.5t13 31.5q0 24 -14.5 72t-17.5 58v15q3 10 17.5 58t14.5 72q0 20 -13 31.5t-36 11.5q-17 0 -34.5 -3.5t-35.5 -9.5l-7 13q42 33 78.5 87t52.5 107h12q16 -53 52.5 -107t78.5 -87
l-7 -13q-17 6 -34.5 9.5t-34.5 3.5q-23 0 -36 -11.5t-13 -31.5q0 -13 3.5 -29.5t14.5 -52.5q6 -20 8.5 -30l4.5 -18v-15l-4.5 -18t-8.5 -30q-11 -36 -14.5 -52.5t-3.5 -29.5q0 -20 13 -31.5t36 -11.5q17 0 34.5 3.5t34.5 9.5l7 -13q-43 -34 -79 -87.5t-52 -105.5z" />
    <glyph glyph-name="uni2196" unicode="&#x2196;" horiz-adv-x="491"
d="M18 511l9 9q53 -30 120 -45.5t122 -9.5l4 -14q-39 -20 -57.5 -38.5t-18.5 -36.5q0 -9 4 -17.5t12 -16.5q45 -46 115.5 -101.5t131.5 -91.5l7 -11l4 -62l-8 -9l-63 4l-11 7q-35 59 -88.5 127t-104.5 120q-9 8 -17 12t-17 4q-19 0 -38.5 -19t-37.5 -56l-13 3q6 55 -9.5 122
t-45.5 120z" />
    <glyph glyph-name="uni2197" unicode="&#x2197;" horiz-adv-x="491"
d="M464 520l8 -9q-29 -53 -44.5 -120t-9.5 -122l-14 -3q-18 37 -37 56t-38 19q-9 0 -17.5 -4t-16.5 -12q-50 -50 -104 -118.5t-89 -128.5l-11 -7l-63 -4l-8 9l4 62l7 11q60 35 129.5 90t117.5 103q8 8 12 16.5t4 17.5q0 18 -18.5 36.5t-57.5 38.5l4 14q55 -6 122 9.5
t120 45.5z" />
    <glyph glyph-name="uni2198" unicode="&#x2198;" horiz-adv-x="491"
d="M472 75l-8 -10q-52 29 -119 45t-123 11l-4 13q38 20 57 38.5t19 37.5q0 9 -4 17t-12 16q-47 48 -117 103t-130 90l-7 12l-4 62l8 9l63 -4l11 -7q35 -60 88.5 -128.5t104.5 -119.5q8 -8 16.5 -12t17.5 -4q19 0 38.5 19.5t36.5 56.5l14 -4q-6 -55 9.5 -122t44.5 -119z" />
    <glyph glyph-name="uni2199" unicode="&#x2199;" horiz-adv-x="491"
d="M27 65l-9 10q30 52 45.5 118.5t9.5 122.5l13 4q18 -37 37.5 -56.5t38.5 -19.5q9 0 17 4t17 12q51 52 104.5 120.5t88.5 127.5l11 7l63 4l8 -9l-4 -62l-7 -12q-62 -36 -132.5 -91.5t-114.5 -101.5q-8 -8 -12 -16t-4 -17q0 -19 19 -37.5t57 -38.5l-4 -13q-56 5 -123 -11
t-119 -45z" />
    <glyph glyph-name="estimated" unicode="&#x212e;" horiz-adv-x="696"
d="M654 264v-7h-496q-2 0 -3 -1t-1 -2v-150q0 -5 1.5 -9.5t5.5 -8.5q37 -38 86 -59t102 -21q57 0 108 23.5t89 66.5h44q-43 -50 -107 -78.5t-135 -28.5q-127 0 -216.5 80.5t-89.5 194.5q0 115 89.5 196t216.5 81t216.5 -81t89.5 -196zM542 276v151q0 6 -2 10.5t-6 8.5
q-37 38 -84.5 58t-100.5 20t-102 -21t-85 -60q-4 -3 -6 -8t-2 -11v-148q0 -1 1.5 -2.5t2.5 -1.5h381q1 0 2 1t1 3z" />
    </font>
</defs>
</svg>
